{
DisplayStrings = (
"miejsce nerzwy proje Br jest jeszczrzch  e  zdje/eogonek c/cacute , /Zdotaccent/zdotaccent  no... zalezno/sacute ci "
);
copyright = "Copyright \U00A9 2016 by Beata Kurek. All rights reserved.";
date = "2016-09-13 21:53:53 +0000";
designer = "Beata Kurek";
familyName = "Bajaderka";
fontMaster = (
{
alignmentZones = (
"{600, 10}",
"{390, 10}",
"{0, -10}",
"{-234, -10}"
);
ascender = 740;
capHeight = 700;
descender = "-260";
id = "248CDC77-21EA-41B6-93B8-E98A9208AB16";
italicAngle = 30;
xHeight = 390;
}
);
glyphs = (
{
glyphname = A;
lastChange = "2016-10-27 00:30:08 +0200";
layers = (
{
anchors = (
{
name = ogonek;
position = "{549, 10}";
},
{
name = top;
position = "{305, 700}";
}
);
layerId = "248CDC77-21EA-41B6-93B8-E98A9208AB16";
name = Regular;
paths = (
{
closed = 1;
nodes = (
"519 83 OFFCURVE",
"435 7 OFFCURVE",
"408 7 CURVE SMOOTH",
"380 7 OFFCURVE",
"439 134 OFFCURVE",
"508 268 CURVE",
"534 270 OFFCURVE",
"565 270 OFFCURVE",
"595 270 CURVE",
"603 292 OFFCURVE",
"584 298 OFFCURVE",
"520 293 CURVE",
"585 423 OFFCURVE",
"631 534 OFFCURVE",
"643 567 CURVE",
"648 608 OFFCURVE",
"632 603 OFFCURVE",
"628 599 CURVE",
"581 557 OFFCURVE",
"487 444 OFFCURVE",
"344 277 CURVE",
"295 272 OFFCURVE",
"270 262 OFFCURVE",
"279 252 CURVE",
"294 255 OFFCURVE",
"312 256 OFFCURVE",
"328 258 CURVE",
"215 124 OFFCURVE",
"103 8 OFFCURVE",
"45 8 CURVE SMOOTH",
"22 8 OFFCURVE",
"4 24 OFFCURVE",
"4 63 CURVE SMOOTH",
"4 180 OFFCURVE",
"162 324 OFFCURVE",
"238 308 CURVE",
"241 308 OFFCURVE",
"243 326 OFFCURVE",
"215 326 CURVE SMOOTH",
"127 326 OFFCURVE",
"-10 193 OFFCURVE",
"-10 69 CURVE SMOOTH",
"-10 25 OFFCURVE",
"13 0 OFFCURVE",
"44 0 CURVE SMOOTH",
"122 0 OFFCURVE",
"226 123 OFFCURVE",
"343 258 CURVE",
"387 263 OFFCURVE",
"427 266 OFFCURVE",
"479 268 CURVE",
"411 130 OFFCURVE",
"351 -1 OFFCURVE",
"408 -1 CURVE SMOOTH",
"480 -1 OFFCURVE",
"597 166 OFFCURVE",
"552 166 CURVE"
);
},
{
closed = 1;
nodes = (
"479 416 OFFCURVE",
"554 511 OFFCURVE",
"622 580 CURVE",
"608 541 OFFCURVE",
"555 422 OFFCURVE",
"489 290 CURVE",
"436 287 OFFCURVE",
"403 285 OFFCURVE",
"361 279 CURVE"
);
}
);
width = 610;
}
);
unicode = 0041;
},
{
glyphname = Aogonek;
lastChange = "2016-10-27 00:30:19 +0200";
layers = (
{
layerId = "248CDC77-21EA-41B6-93B8-E98A9208AB16";
name = Regular;
paths = (
{
closed = 1;
nodes = (
"429 -14 OFFCURVE",
"416 -16 OFFCURVE",
"408 -19 CURVE SMOOTH",
"327 -53 OFFCURVE",
"266 -169 OFFCURVE",
"331 -169 CURVE SMOOTH",
"375 -169 OFFCURVE",
"423 -94 OFFCURVE",
"399 -94 CURVE",
"387 -118 OFFCURVE",
"351 -161 OFFCURVE",
"327 -161 CURVE SMOOTH",
"296 -161 OFFCURVE",
"348 -62 OFFCURVE",
"430 -19 CURVE"
);
},
{
closed = 1;
nodes = (
"519 83 OFFCURVE",
"435 7 OFFCURVE",
"408 7 CURVE SMOOTH",
"380 7 OFFCURVE",
"439 134 OFFCURVE",
"508 268 CURVE",
"534 270 OFFCURVE",
"565 270 OFFCURVE",
"595 270 CURVE",
"603 292 OFFCURVE",
"584 298 OFFCURVE",
"520 293 CURVE",
"585 423 OFFCURVE",
"631 534 OFFCURVE",
"643 567 CURVE",
"648 608 OFFCURVE",
"632 603 OFFCURVE",
"628 599 CURVE",
"581 557 OFFCURVE",
"487 444 OFFCURVE",
"344 277 CURVE",
"295 272 OFFCURVE",
"270 262 OFFCURVE",
"279 252 CURVE",
"294 255 OFFCURVE",
"312 256 OFFCURVE",
"328 258 CURVE",
"215 124 OFFCURVE",
"103 8 OFFCURVE",
"45 8 CURVE SMOOTH",
"22 8 OFFCURVE",
"4 24 OFFCURVE",
"4 63 CURVE SMOOTH",
"4 180 OFFCURVE",
"162 324 OFFCURVE",
"238 308 CURVE",
"241 308 OFFCURVE",
"243 326 OFFCURVE",
"215 326 CURVE SMOOTH",
"127 326 OFFCURVE",
"-10 193 OFFCURVE",
"-10 69 CURVE SMOOTH",
"-10 25 OFFCURVE",
"13 0 OFFCURVE",
"44 0 CURVE SMOOTH",
"122 0 OFFCURVE",
"226 123 OFFCURVE",
"343 258 CURVE",
"387 263 OFFCURVE",
"427 266 OFFCURVE",
"479 268 CURVE",
"411 130 OFFCURVE",
"351 -1 OFFCURVE",
"408 -1 CURVE SMOOTH",
"480 -1 OFFCURVE",
"597 166 OFFCURVE",
"552 166 CURVE"
);
},
{
closed = 1;
nodes = (
"479 416 OFFCURVE",
"554 511 OFFCURVE",
"622 580 CURVE",
"608 541 OFFCURVE",
"555 422 OFFCURVE",
"489 290 CURVE",
"436 287 OFFCURVE",
"403 285 OFFCURVE",
"361 279 CURVE"
);
}
);
width = 610;
}
);
leftMetricsKey = A;
rightMetricsKey = A;
unicode = 0104;
},
{
glyphname = B;
lastChange = "2016-10-27 00:37:02 +0200";
layers = (
{
layerId = "248CDC77-21EA-41B6-93B8-E98A9208AB16";
name = Regular;
paths = (
{
closed = 1;
nodes = (
"617 561 OFFCURVE",
"519 217 OFFCURVE",
"311 217 CURVE SMOOTH",
"288 217 OFFCURVE",
"281 227 OFFCURVE",
"281 232 CURVE SMOOTH",
"281 249 OFFCURVE",
"305 263 OFFCURVE",
"344 263 CURVE SMOOTH",
"383 263 OFFCURVE",
"406 228 OFFCURVE",
"406 189 CURVE SMOOTH",
"406 110 OFFCURVE",
"332 2 OFFCURVE",
"265 2 CURVE SMOOTH",
"218 2 OFFCURVE",
"217 62 OFFCURVE",
"259 109 CURVE SMOOTH",
"306 159 OFFCURVE",
"373 200 OFFCURVE",
"445 200 CURVE SMOOTH",
"497 200 OFFCURVE",
"505 174 OFFCURVE",
"505 170 CURVE",
"518 170 OFFCURVE",
"517 208 OFFCURVE",
"449 208 CURVE SMOOTH",
"373 208 OFFCURVE",
"304 171 OFFCURVE",
"256 119 CURVE SMOOTH",
"206 65 OFFCURVE",
"206 -6 OFFCURVE",
"265 -6 CURVE SMOOTH",
"353 -6 OFFCURVE",
"430 100 OFFCURVE",
"430 187 CURVE SMOOTH",
"430 231 OFFCURVE",
"397 271 OFFCURVE",
"344 271 CURVE SMOOTH",
"299 271 OFFCURVE",
"273 252 OFFCURVE",
"273 232 CURVE SMOOTH",
"273 224 OFFCURVE",
"282 210 OFFCURVE",
"312 210 CURVE SMOOTH",
"554 210 OFFCURVE",
"651 569 OFFCURVE",
"408 569 CURVE SMOOTH",
"143 569 OFFCURVE",
"-35 290 OFFCURVE",
"-35 119 CURVE SMOOTH",
"-35 34 OFFCURVE",
"0 -9 OFFCURVE",
"52 -9 CURVE SMOOTH",
"201 -9 OFFCURVE",
"272 452 OFFCURVE",
"449 607 CURVE SMOOTH",
"475 630 OFFCURVE",
"509 649 OFFCURVE",
"542 649 CURVE SMOOTH",
"564 649 OFFCURVE",
"576 641 OFFCURVE",
"583 632 CURVE",
"595 630 OFFCURVE",
"590 657 OFFCURVE",
"542 657 CURVE SMOOTH",
"505 657 OFFCURVE",
"476 643 OFFCURVE",
"443 619 CURVE SMOOTH",
"326 534 OFFCURVE",
"250 326 OFFCURVE",
"182 171 CURVE SMOOTH",
"138 71 OFFCURVE",
"96 -1 OFFCURVE",
"52 -1 CURVE SMOOTH",
"5 -1 OFFCURVE",
"-25 40 OFFCURVE",
"-25 121 CURVE SMOOTH",
"-25 293 OFFCURVE",
"156 561 OFFCURVE",
"405 561 CURVE SMOOTH"
);
}
);
width = 507;
}
);
unicode = 0042;
},
{
glyphname = C;
lastChange = "2016-10-12 22:57:21 +0200";
layers = (
{
anchors = (
{
name = bottom;
position = "{224, 0}";
},
{
name = top;
position = "{224, 700}";
}
);
layerId = "248CDC77-21EA-41B6-93B8-E98A9208AB16";
name = Regular;
paths = (
{
closed = 1;
nodes = (
"70 -9 OFFCURVE",
"49 52 OFFCURVE",
"49 117 CURVE",
"49 330 OFFCURVE",
"284 608 OFFCURVE",
"455 608 CURVE SMOOTH",
"652 608 OFFCURVE",
"496 215 OFFCURVE",
"179 215 CURVE SMOOTH",
"64 215 OFFCURVE",
"7 265 OFFCURVE",
"7 319 CURVE SMOOTH",
"7 373 OFFCURVE",
"60 428 OFFCURVE",
"148 428 CURVE SMOOTH",
"311 428 OFFCURVE",
"364 323 OFFCURVE",
"322 323 CURVE",
"319 360 OFFCURVE",
"267 418 OFFCURVE",
"146 418 CURVE SMOOTH",
"64 418 OFFCURVE",
"17 369 OFFCURVE",
"16 321 CURVE SMOOTH",
"15 272 OFFCURVE",
"64 224 OFFCURVE",
"182 224 CURVE SMOOTH",
"462 224 OFFCURVE",
"614 600 OFFCURVE",
"464 600 CURVE SMOOTH",
"315 600 OFFCURVE",
"71 319 OFFCURVE",
"71 104 CURVE SMOOTH",
"71 24 OFFCURVE",
"105 1 OFFCURVE",
"149 1 CURVE SMOOTH",
"242 1 OFFCURVE",
"355 118 OFFCURVE",
"400 205 CURVE",
"444 205 OFFCURVE",
"309 -9 OFFCURVE",
"148 -9 CURVE SMOOTH"
);
}
);
width = 448;
}
);
unicode = 0043;
},
{
glyphname = Cacute;
lastChange = "2016-10-13 21:51:02 +0200";
layers = (
{
layerId = "248CDC77-21EA-41B6-93B8-E98A9208AB16";
name = Regular;
paths = (
{
closed = 1;
nodes = (
"284 608 OFFCURVE",
"49 330 OFFCURVE",
"49 117 CURVE",
"49 52 OFFCURVE",
"70 -9 OFFCURVE",
"148 -9 CURVE SMOOTH",
"309 -9 OFFCURVE",
"444 205 OFFCURVE",
"400 205 CURVE",
"355 118 OFFCURVE",
"242 1 OFFCURVE",
"149 1 CURVE SMOOTH",
"105 1 OFFCURVE",
"71 24 OFFCURVE",
"71 104 CURVE SMOOTH",
"71 319 OFFCURVE",
"315 600 OFFCURVE",
"464 600 CURVE SMOOTH",
"614 600 OFFCURVE",
"462 224 OFFCURVE",
"182 224 CURVE SMOOTH",
"64 224 OFFCURVE",
"15 272 OFFCURVE",
"16 321 CURVE SMOOTH",
"17 369 OFFCURVE",
"64 418 OFFCURVE",
"146 418 CURVE SMOOTH",
"267 418 OFFCURVE",
"319 360 OFFCURVE",
"322 323 CURVE",
"364 323 OFFCURVE",
"311 428 OFFCURVE",
"148 428 CURVE SMOOTH",
"60 428 OFFCURVE",
"7 373 OFFCURVE",
"7 319 CURVE SMOOTH",
"7 265 OFFCURVE",
"64 215 OFFCURVE",
"179 215 CURVE SMOOTH",
"496 215 OFFCURVE",
"652 608 OFFCURVE",
"455 608 CURVE SMOOTH"
);
},
{
closed = 1;
nodes = (
"522 607 OFFCURVE",
"435 525 OFFCURVE",
"383 499 CURVE",
"399 477 OFFCURVE",
"543 577 OFFCURVE",
"557 674 CURVE SMOOTH",
"559 690 OFFCURVE",
"548 695 OFFCURVE",
"541 692 CURVE"
);
}
);
width = 448;
}
);
leftMetricsKey = C;
rightMetricsKey = C;
unicode = 0106;
},
{
glyphname = D;
lastChange = "2016-10-27 00:45:07 +0200";
layers = (
{
anchors = (
{
name = center;
position = "{293, 350}";
},
{
name = top;
position = "{293, 700}";
}
);
layerId = "248CDC77-21EA-41B6-93B8-E98A9208AB16";
name = Regular;
paths = (
{
closed = 1;
nodes = (
"-18 175 OFFCURVE",
"130 600 OFFCURVE",
"427 600 CURVE SMOOTH",
"728 600 OFFCURVE",
"562 0 OFFCURVE",
"242 0 CURVE SMOOTH",
"151 0 OFFCURVE",
"102 48 OFFCURVE",
"34 48 CURVE SMOOTH",
"10 48 OFFCURVE",
"-6 39 OFFCURVE",
"-6 30 CURVE SMOOTH",
"-6 16 OFFCURVE",
"22 6 OFFCURVE",
"54 7 CURVE SMOOTH",
"236 13 OFFCURVE",
"386 676 OFFCURVE",
"633 676 CURVE SMOOTH",
"684 676 OFFCURVE",
"699 647 OFFCURVE",
"684 647 CURVE",
"653 679 OFFCURVE",
"593 671 OFFCURVE",
"549 633 CURVE",
"370 479 OFFCURVE",
"230 2 OFFCURVE",
"54 -2 CURVE SMOOTH",
"11 -3 OFFCURVE",
"-13 11 OFFCURVE",
"-15 29 CURVE SMOOTH",
"-16 41 OFFCURVE",
"-3 57 OFFCURVE",
"35 57 CURVE SMOOTH",
"106 57 OFFCURVE",
"152 10 OFFCURVE",
"241 10 CURVE SMOOTH",
"510 10 OFFCURVE",
"706 592 OFFCURVE",
"424 592 CURVE SMOOTH",
"166 592 OFFCURVE",
"20 183 OFFCURVE",
"122 183 CURVE SMOOTH",
"214 183 OFFCURVE",
"329 449 OFFCURVE",
"312 485 CURVE",
"375 485 OFFCURVE",
"247 175 OFFCURVE",
"127 175 CURVE SMOOTH"
);
}
);
width = 567;
}
);
unicode = 0044;
},
{
glyphname = E;
lastChange = "2016-10-16 16:39:18 +0200";
layers = (
{
anchors = (
{
name = bottom;
position = "{214, 0}";
},
{
name = ogonek;
position = "{385, 10}";
},
{
name = top;
position = "{214, 700}";
}
);
layerId = "248CDC77-21EA-41B6-93B8-E98A9208AB16";
name = Regular;
paths = (
{
closed = 1;
nodes = (
"225 464 OFFCURVE",
"235 389 OFFCURVE",
"344 389 CURVE SMOOTH",
"465 389 OFFCURVE",
"521 457 OFFCURVE",
"521 514 CURVE SMOOTH",
"521 568 OFFCURVE",
"470 609 OFFCURVE",
"366 609 CURVE SMOOTH",
"217 609 OFFCURVE",
"119 517 OFFCURVE",
"119 427 CURVE SMOOTH",
"119 354 OFFCURVE",
"183 322 OFFCURVE",
"213 319 CURVE",
"93 315 OFFCURVE",
"-21 228 OFFCURVE",
"-21 122 CURVE SMOOTH",
"-21 44 OFFCURVE",
"46 -8 OFFCURVE",
"154 -8 CURVE SMOOTH",
"355 -8 OFFCURVE",
"421 130 OFFCURVE",
"421 192 CURVE SMOOTH",
"421 267 OFFCURVE",
"373 265 OFFCURVE",
"373 251 CURVE",
"382 244 OFFCURVE",
"394 226 OFFCURVE",
"394 192 CURVE SMOOTH",
"394 104 OFFCURVE",
"306 2 OFFCURVE",
"153 2 CURVE SMOOTH",
"53 2 OFFCURVE",
"7 60 OFFCURVE",
"7 121 CURVE SMOOTH",
"7 221 OFFCURVE",
"110 303 OFFCURVE",
"233 312 CURVE",
"292 295 OFFCURVE",
"398 290 OFFCURVE",
"398 329 CURVE SMOOTH",
"398 348 OFFCURVE",
"329 356 OFFCURVE",
"235 326 CURVE",
"195 332 OFFCURVE",
"147 369 OFFCURVE",
"147 431 CURVE SMOOTH",
"147 508 OFFCURVE",
"229 599 OFFCURVE",
"366 599 CURVE SMOOTH",
"469 599 OFFCURVE",
"506 557 OFFCURVE",
"506 516 CURVE SMOOTH",
"506 468 OFFCURVE",
"445 410 OFFCURVE",
"349 410 CURVE SMOOTH",
"297 410 OFFCURVE",
"260 432 OFFCURVE",
"255 467 CURVE"
);
},
{
closed = 1;
nodes = (
"389 308 OFFCURVE",
"273 314 OFFCURVE",
"250 323 CURVE",
"312 341 OFFCURVE",
"389 342 OFFCURVE",
"389 328 CURVE SMOOTH"
);
}
);
width = 464;
}
);
unicode = 0045;
},
{
glyphname = Eogonek;
lastChange = "2016-10-16 21:42:13 +0200";
layers = (
{
layerId = "248CDC77-21EA-41B6-93B8-E98A9208AB16";
name = Regular;
paths = (
{
closed = 1;
nodes = (
"250 -10 OFFCURVE",
"237 -12 OFFCURVE",
"229 -15 CURVE SMOOTH",
"148 -49 OFFCURVE",
"87 -165 OFFCURVE",
"152 -165 CURVE SMOOTH",
"196 -165 OFFCURVE",
"244 -90 OFFCURVE",
"220 -90 CURVE",
"208 -114 OFFCURVE",
"172 -157 OFFCURVE",
"148 -157 CURVE SMOOTH",
"117 -157 OFFCURVE",
"169 -58 OFFCURVE",
"251 -15 CURVE"
);
},
{
closed = 1;
nodes = (
"225 464 OFFCURVE",
"239 388 OFFCURVE",
"348 388 CURVE SMOOTH",
"469 388 OFFCURVE",
"525 457 OFFCURVE",
"525 514 CURVE SMOOTH",
"525 568 OFFCURVE",
"474 609 OFFCURVE",
"370 609 CURVE SMOOTH",
"208 609 OFFCURVE",
"117 523 OFFCURVE",
"117 433 CURVE SMOOTH",
"117 360 OFFCURVE",
"187 322 OFFCURVE",
"217 319 CURVE",
"89 315 OFFCURVE",
"-23 234 OFFCURVE",
"-23 128 CURVE SMOOTH",
"-23 50 OFFCURVE",
"41 -8 OFFCURVE",
"158 -8 CURVE SMOOTH",
"359 -8 OFFCURVE",
"425 130 OFFCURVE",
"425 192 CURVE SMOOTH",
"425 267 OFFCURVE",
"377 265 OFFCURVE",
"377 251 CURVE",
"386 244 OFFCURVE",
"398 226 OFFCURVE",
"398 192 CURVE SMOOTH",
"398 104 OFFCURVE",
"310 2 OFFCURVE",
"157 2 CURVE SMOOTH",
"57 2 OFFCURVE",
"5 62 OFFCURVE",
"5 123 CURVE SMOOTH",
"5 223 OFFCURVE",
"114 303 OFFCURVE",
"237 312 CURVE",
"296 295 OFFCURVE",
"402 290 OFFCURVE",
"402 329 CURVE SMOOTH",
"402 348 OFFCURVE",
"333 356 OFFCURVE",
"239 326 CURVE",
"199 332 OFFCURVE",
"145 371 OFFCURVE",
"145 433 CURVE SMOOTH",
"145 510 OFFCURVE",
"233 599 OFFCURVE",
"370 599 CURVE SMOOTH",
"473 599 OFFCURVE",
"507 559 OFFCURVE",
"507 518 CURVE SMOOTH",
"507 470 OFFCURVE",
"449 410 OFFCURVE",
"353 410 CURVE SMOOTH",
"301 410 OFFCURVE",
"266 435 OFFCURVE",
"259 467 CURVE"
);
},
{
closed = 1;
nodes = (
"393 308 OFFCURVE",
"277 314 OFFCURVE",
"254 323 CURVE",
"316 341 OFFCURVE",
"393 342 OFFCURVE",
"393 328 CURVE SMOOTH"
);
}
);
width = 464;
}
);
leftMetricsKey = E;
rightMetricsKey = E;
unicode = 0118;
},
{
glyphname = F;
lastChange = "2016-10-16 21:27:08 +0200";
layers = (
{
layerId = "248CDC77-21EA-41B6-93B8-E98A9208AB16";
name = Regular;
paths = (
{
closed = 1;
nodes = (
"315 333 OFFCURVE",
"416 353 OFFCURVE",
"505 353 CURVE SMOOTH",
"549 353 OFFCURVE",
"548 336 OFFCURVE",
"544 331 CURVE",
"501 336 OFFCURVE",
"371 328 OFFCURVE",
"301 315 CURVE",
"296 315 OFFCURVE",
"298 322 OFFCURVE",
"301 324 CURVE SMOOTH"
);
},
{
closed = 1;
nodes = (
"248 276 OFFCURVE",
"134 192 OFFCURVE",
"134 77 CURVE SMOOTH",
"134 45 OFFCURVE",
"147 7 OFFCURVE",
"184 7 CURVE SMOOTH",
"285 7 OFFCURVE",
"416 419 OFFCURVE",
"508 493 CURVE SMOOTH",
"516 499 OFFCURVE",
"534 503 OFFCURVE",
"533 497 CURVE",
"443 421 OFFCURVE",
"320 0 OFFCURVE",
"186 0 CURVE SMOOTH",
"140 0 OFFCURVE",
"118 43 OFFCURVE",
"118 83 CURVE SMOOTH",
"118 212 OFFCURVE",
"228 287 OFFCURVE",
"297 287 CURVE SMOOTH",
"316 287 OFFCURVE",
"315 276 OFFCURVE",
"310 276 CURVE"
);
},
{
closed = 1;
nodes = (
"104 576 OFFCURVE",
"62 524 OFFCURVE",
"62 493 CURVE SMOOTH",
"62 442 OFFCURVE",
"128 406 OFFCURVE",
"209 406 CURVE SMOOTH",
"281 406 OFFCURVE",
"369 443 OFFCURVE",
"385 475 CURVE",
"408 475 OFFCURVE",
"353 393 OFFCURVE",
"200 393 CURVE SMOOTH",
"127 393 OFFCURVE",
"54 426 OFFCURVE",
"54 493 CURVE SMOOTH",
"54 568 OFFCURVE",
"149 600 OFFCURVE",
"257 600 CURVE SMOOTH",
"398 600 OFFCURVE",
"635 506 OFFCURVE",
"698 577 CURVE",
"710 574 OFFCURVE",
"677 538 OFFCURVE",
"611 538 CURVE SMOOTH",
"438 538 OFFCURVE",
"357 576 OFFCURVE",
"250 576 CURVE SMOOTH"
);
}
);
width = 478;
}
);
unicode = 0046;
},
{
glyphname = G;
lastChange = "2016-10-16 16:39:42 +0200";
layers = (
{
layerId = "248CDC77-21EA-41B6-93B8-E98A9208AB16";
name = Regular;
paths = (
{
closed = 1;
nodes = (
"320 288 OFFCURVE",
"134 -243 OFFCURVE",
"-9 -243 CURVE SMOOTH",
"-46 -243 OFFCURVE",
"-77 -216 OFFCURVE",
"-77 -160 CURVE SMOOTH",
"-77 -73 OFFCURVE",
"9 26 OFFCURVE",
"97 26 CURVE SMOOTH",
"126 26 OFFCURVE",
"130 5 OFFCURVE",
"124 5 CURVE",
"122 10 OFFCURVE",
"115 15 OFFCURVE",
"100 15 CURVE SMOOTH",
"25 15 OFFCURVE",
"-61 -89 OFFCURVE",
"-61 -169 CURVE SMOOTH",
"-61 -217 OFFCURVE",
"-35 -236 OFFCURVE",
"-11 -236 CURVE SMOOTH",
"108 -236 OFFCURVE",
"291 295 OFFCURVE",
"373 295 CURVE SMOOTH",
"425 295 OFFCURVE",
"300 87 OFFCURVE",
"140 87 CURVE SMOOTH",
"-78 87 OFFCURVE",
"100 596 OFFCURVE",
"416 596 CURVE SMOOTH",
"468 596 OFFCURVE",
"510 571 OFFCURVE",
"510 525 CURVE SMOOTH",
"510 436 OFFCURVE",
"370 283 OFFCURVE",
"174 283 CURVE SMOOTH",
"45 283 OFFCURVE",
"-28 326 OFFCURVE",
"-28 397 CURVE SMOOTH",
"-28 468 OFFCURVE",
"64 509 OFFCURVE",
"121 509 CURVE SMOOTH",
"226 509 OFFCURVE",
"285 448 OFFCURVE",
"285 423 CURVE SMOOTH",
"285 417 OFFCURVE",
"280 413 OFFCURVE",
"273 413 CURVE",
"271 443 OFFCURVE",
"219 499 OFFCURVE",
"121 499 CURVE SMOOTH",
"68 499 OFFCURVE",
"-19 462 OFFCURVE",
"-19 398 CURVE SMOOTH",
"-19 336 OFFCURVE",
"46 293 OFFCURVE",
"172 293 CURVE SMOOTH",
"346 293 OFFCURVE",
"490 445 OFFCURVE",
"490 526 CURVE SMOOTH",
"490 575 OFFCURVE",
"460 584 OFFCURVE",
"420 584 CURVE SMOOTH",
"145 584 OFFCURVE",
"-51 98 OFFCURVE",
"146 98 CURVE SMOOTH",
"292 98 OFFCURVE",
"404 288 OFFCURVE",
"372 288 CURVE SMOOTH"
);
}
);
width = 395;
}
);
unicode = 0047;
},
{
glyphname = H;
lastChange = "2016-10-16 16:40:19 +0200";
layers = (
{
layerId = "248CDC77-21EA-41B6-93B8-E98A9208AB16";
name = Regular;
paths = (
{
closed = 1;
nodes = (
"94 620 OFFCURVE",
"-70 285 OFFCURVE",
"59 285 CURVE SMOOTH",
"151 285 OFFCURVE",
"239 461 OFFCURVE",
"193 448 CURVE",
"198 408 OFFCURVE",
"122 290 OFFCURVE",
"60 290 CURVE SMOOTH",
"-45 290 OFFCURVE",
"141 613 OFFCURVE",
"258 613 CURVE SMOOTH",
"294 613 OFFCURVE",
"209 439 OFFCURVE",
"283 439 CURVE SMOOTH",
"393 439 OFFCURVE",
"525 609 OFFCURVE",
"476 609 CURVE SMOOTH",
"368 609 OFFCURVE",
"162 -2 OFFCURVE",
"50 -2 CURVE SMOOTH",
"-43 -2 OFFCURVE",
"53 233 OFFCURVE",
"168 264 CURVE SMOOTH",
"179 267 OFFCURVE",
"192 265 OFFCURVE",
"198 259 CURVE",
"204 262 OFFCURVE",
"198 278 OFFCURVE",
"176 278 CURVE SMOOTH",
"42 278 OFFCURVE",
"-76 -9 OFFCURVE",
"50 -9 CURVE SMOOTH",
"196 -9 OFFCURVE",
"403 603 OFFCURVE",
"475 603 CURVE SMOOTH",
"509 603 OFFCURVE",
"381 447 OFFCURVE",
"285 447 CURVE SMOOTH",
"241 447 OFFCURVE",
"324 620 OFFCURVE",
"263 620 CURVE SMOOTH"
);
},
{
closed = 1;
nodes = (
"381 352 OFFCURVE",
"244 320 OFFCURVE",
"232 311 CURVE SMOOTH",
"228 308 OFFCURVE",
"226 302 OFFCURVE",
"232 302 CURVE",
"319 318 OFFCURVE",
"492 337 OFFCURVE",
"549 327 CURVE",
"553 333 OFFCURVE",
"560 352 OFFCURVE",
"510 352 CURVE SMOOTH"
);
},
{
closed = 1;
nodes = (
"568 603 OFFCURVE",
"342 125 OFFCURVE",
"342 19 CURVE SMOOTH",
"342 5 OFFCURVE",
"346 -3 OFFCURVE",
"354 1 CURVE",
"365 110 OFFCURVE",
"564 541 OFFCURVE",
"660 590 CURVE",
"662 593 OFFCURVE",
"658 603 OFFCURVE",
"647 603 CURVE SMOOTH"
);
}
);
width = 503;
}
);
unicode = 0048;
},
{
glyphname = I;
lastChange = "2016-10-16 16:40:42 +0200";
layers = (
{
layerId = "248CDC77-21EA-41B6-93B8-E98A9208AB16";
name = Regular;
paths = (
{
closed = 1;
nodes = (
"-71 0 OFFCURVE",
"42 288 OFFCURVE",
"178 288 CURVE SMOOTH",
"201 288 OFFCURVE",
"208 273 OFFCURVE",
"203 269 CURVE",
"195 274 OFFCURVE",
"186 277 OFFCURVE",
"168 272 CURVE SMOOTH",
"52 240 OFFCURVE",
"-39 7 OFFCURVE",
"53 7 CURVE SMOOTH",
"174 7 OFFCURVE",
"362 607 OFFCURVE",
"472 607 CURVE SMOOTH",
"520 607 OFFCURVE",
"395 439 OFFCURVE",
"285 439 CURVE SMOOTH",
"211 439 OFFCURVE",
"280 603 OFFCURVE",
"244 603 CURVE SMOOTH",
"138 603 OFFCURVE",
"-37 287 OFFCURVE",
"55 287 CURVE SMOOTH",
"117 287 OFFCURVE",
"201 408 OFFCURVE",
"196 448 CURVE",
"239 461 OFFCURVE",
"146 282 OFFCURVE",
"53 282 CURVE SMOOTH",
"-65 282 OFFCURVE",
"89 610 OFFCURVE",
"249 610 CURVE SMOOTH",
"309 610 OFFCURVE",
"242 447 OFFCURVE",
"288 447 CURVE SMOOTH",
"384 447 OFFCURVE",
"505 601 OFFCURVE",
"471 601 CURVE SMOOTH",
"398 601 OFFCURVE",
"206 0 OFFCURVE",
"53 0 CURVE SMOOTH"
);
}
);
width = 317;
}
);
unicode = 0049;
},
{
glyphname = J;
lastChange = "2016-10-15 01:05:59 +0200";
layers = (
{
layerId = "248CDC77-21EA-41B6-93B8-E98A9208AB16";
name = Regular;
paths = (
{
closed = 1;
nodes = (
"349 171 OFFCURVE",
"339 199 OFFCURVE",
"279 199 CURVE SMOOTH",
"3 200 OFFCURVE",
"-128 -233 OFFCURVE",
"-27 -233 CURVE SMOOTH",
"96 -233 OFFCURVE",
"409 600 OFFCURVE",
"519 600 CURVE SMOOTH",
"568 600 OFFCURVE",
"414 396 OFFCURVE",
"304 396 CURVE SMOOTH",
"229 396 OFFCURVE",
"328 603 OFFCURVE",
"292 603 CURVE SMOOTH",
"165 603 OFFCURVE",
"-44 244 OFFCURVE",
"78 244 CURVE SMOOTH",
"140 244 OFFCURVE",
"223 365 OFFCURVE",
"219 406 CURVE",
"262 418 OFFCURVE",
"168 239 OFFCURVE",
"76 239 CURVE SMOOTH",
"-72 239 OFFCURVE",
"117 610 OFFCURVE",
"297 610 CURVE SMOOTH",
"357 610 OFFCURVE",
"267 404 OFFCURVE",
"306 404 CURVE SMOOTH",
"402 404 OFFCURVE",
"552 593 OFFCURVE",
"519 593 CURVE SMOOTH",
"442 593 OFFCURVE",
"129 -240 OFFCURVE",
"-24 -240 CURVE SMOOTH",
"-153 -240 OFFCURVE",
"-10 208 OFFCURVE",
"278 208 CURVE SMOOTH",
"354 208 OFFCURVE",
"372 166 OFFCURVE",
"349 166 CURVE"
);
}
);
width = 383;
}
);
unicode = 004A;
},
{
glyphname = K;
lastChange = "2016-10-16 20:16:31 +0200";
layers = (
{
layerId = "248CDC77-21EA-41B6-93B8-E98A9208AB16";
name = Regular;
paths = (
{
closed = 1;
nodes = (
"429 611 OFFCURVE",
"392 558 OFFCURVE",
"343 467 CURVE",
"318 452 OFFCURVE",
"293 442 OFFCURVE",
"272 442 CURVE SMOOTH",
"232 442 OFFCURVE",
"298 610 OFFCURVE",
"238 610 CURVE SMOOTH",
"68 610 OFFCURVE",
"-69 279 OFFCURVE",
"42 279 CURVE SMOOTH",
"135 279 OFFCURVE",
"228 458 OFFCURVE",
"185 445 CURVE",
"190 405 OFFCURVE",
"106 284 OFFCURVE",
"44 284 CURVE SMOOTH",
"-44 284 OFFCURVE",
"117 603 OFFCURVE",
"233 603 CURVE SMOOTH",
"270 603 OFFCURVE",
"197 434 OFFCURVE",
"269 434 CURVE SMOOTH",
"290 434 OFFCURVE",
"313 441 OFFCURVE",
"335 453 CURVE",
"236 260 OFFCURVE",
"115 4 OFFCURVE",
"42 4 CURVE SMOOTH",
"-47 4 OFFCURVE",
"38 238 OFFCURVE",
"159 271 CURVE SMOOTH",
"170 274 OFFCURVE",
"186 274 OFFCURVE",
"192 265 CURVE",
"198 272 OFFCURVE",
"192 286 OFFCURVE",
"168 286 CURVE SMOOTH",
"31 286 OFFCURVE",
"-80 -3 OFFCURVE",
"42 -3 CURVE SMOOTH",
"147 -3 OFFCURVE",
"268 275 OFFCURVE",
"366 464 CURVE",
"448 524 OFFCURVE",
"502 611 OFFCURVE",
"466 611 CURVE SMOOTH"
);
},
{
closed = 1;
nodes = (
"486 605 OFFCURVE",
"441 531 OFFCURVE",
"373 479 CURVE",
"408 549 OFFCURVE",
"444 605 OFFCURVE",
"465 605 CURVE SMOOTH"
);
},
{
closed = 1;
nodes = (
"473 91 OFFCURVE",
"410 10 OFFCURVE",
"372 10 CURVE SMOOTH",
"344 10 OFFCURVE",
"344 144 OFFCURVE",
"343 215 CURVE",
"475 297 OFFCURVE",
"609 588 OFFCURVE",
"692 588 CURVE SMOOTH",
"711 588 OFFCURVE",
"723 583 OFFCURVE",
"728 560 CURVE",
"737 560 OFFCURVE",
"734 597 OFFCURVE",
"690 597 CURVE SMOOTH",
"588 597 OFFCURVE",
"458 320 OFFCURVE",
"343 230 CURVE",
"341 247 OFFCURVE",
"339 261 OFFCURVE",
"330 261 CURVE SMOOTH",
"271 261 OFFCURVE",
"242 193 OFFCURVE",
"282 193 CURVE SMOOTH",
"296 193 OFFCURVE",
"309 197 OFFCURVE",
"323 203 CURVE",
"323 135 OFFCURVE",
"320 0 OFFCURVE",
"373 0 CURVE SMOOTH",
"448 0 OFFCURVE",
"521 145 OFFCURVE",
"490 143 CURVE"
);
},
{
closed = 1;
nodes = (
"258 202 OFFCURVE",
"284 249 OFFCURVE",
"314 249 CURVE SMOOTH",
"321 249 OFFCURVE",
"322 234 OFFCURVE",
"323 217 CURVE",
"309 209 OFFCURVE",
"296 202 OFFCURVE",
"282 202 CURVE SMOOTH"
);
}
);
width = 546;
}
);
unicode = 004B;
},
{
glyphname = L;
lastChange = "2016-10-16 20:06:24 +0200";
layers = (
{
anchors = (
{
name = bottom;
position = "{272, 0}";
},
{
name = top;
position = "{272, 700}";
}
);
layerId = "248CDC77-21EA-41B6-93B8-E98A9208AB16";
name = Regular;
paths = (
{
closed = 1;
nodes = (
"361 610 OFFCURVE",
"220 9 OFFCURVE",
"15 9 CURVE SMOOTH",
"-33 9 OFFCURVE",
"-85 24 OFFCURVE",
"-85 42 CURVE SMOOTH",
"-85 51 OFFCURVE",
"-57 58 OFFCURVE",
"-19 58 CURVE SMOOTH",
"64 58 OFFCURVE",
"205 2 OFFCURVE",
"333 2 CURVE SMOOTH",
"431 2 OFFCURVE",
"467 44 OFFCURVE",
"467 77 CURVE SMOOTH",
"467 105 OFFCURVE",
"431 124 OFFCURVE",
"395 124 CURVE SMOOTH",
"311 124 OFFCURVE",
"294 91 OFFCURVE",
"310 87 CURVE",
"318 96 OFFCURVE",
"344 112 OFFCURVE",
"395 112 CURVE SMOOTH",
"431 112 OFFCURVE",
"459 95 OFFCURVE",
"459 75 CURVE SMOOTH",
"459 48 OFFCURVE",
"423 23 OFFCURVE",
"333 23 CURVE SMOOTH",
"232 23 OFFCURVE",
"70 77 OFFCURVE",
"-17 77 CURVE SMOOTH",
"-66 77 OFFCURVE",
"-97 62 OFFCURVE",
"-97 45 CURVE SMOOTH",
"-97 25 OFFCURVE",
"-49 0 OFFCURVE",
"16 0 CURVE SMOOTH",
"248 0 OFFCURVE",
"402 602 OFFCURVE",
"504 602 CURVE SMOOTH",
"529 602 OFFCURVE",
"538 581 OFFCURVE",
"538 549 CURVE SMOOTH",
"538 494 OFFCURVE",
"510 421 OFFCURVE",
"462 347 CURVE SMOOTH",
"390 236 OFFCURVE",
"235 165 OFFCURVE",
"132 165 CURVE SMOOTH",
"56 165 OFFCURVE",
"30 209 OFFCURVE",
"30 241 CURVE SMOOTH",
"30 317 OFFCURVE",
"130 409 OFFCURVE",
"221 398 CURVE",
"227 405 OFFCURVE",
"217 413 OFFCURVE",
"200 413 CURVE SMOOTH",
"102 413 OFFCURVE",
"20 325 OFFCURVE",
"19 245 CURVE SMOOTH",
"19 206 OFFCURVE",
"49 159 OFFCURVE",
"131 159 CURVE SMOOTH",
"242 159 OFFCURVE",
"391 217 OFFCURVE",
"474 339 CURVE SMOOTH",
"520 406 OFFCURVE",
"548 478 OFFCURVE",
"549 535 CURVE SMOOTH",
"549 578 OFFCURVE",
"535 610 OFFCURVE",
"503 610 CURVE SMOOTH"
);
}
);
width = 523;
}
);
unicode = 004C;
},
{
glyphname = Lslash;
lastChange = "2016-10-16 20:06:19 +0200";
layers = (
{
layerId = "248CDC77-21EA-41B6-93B8-E98A9208AB16";
name = Regular;
paths = (
{
closed = 1;
nodes = (
"387 609 OFFCURVE",
"254 9 OFFCURVE",
"49 9 CURVE SMOOTH",
"1 9 OFFCURVE",
"-51 24 OFFCURVE",
"-51 42 CURVE SMOOTH",
"-51 51 OFFCURVE",
"-23 58 OFFCURVE",
"15 58 CURVE SMOOTH",
"98 58 OFFCURVE",
"239 2 OFFCURVE",
"367 2 CURVE SMOOTH",
"465 2 OFFCURVE",
"501 44 OFFCURVE",
"501 77 CURVE SMOOTH",
"501 105 OFFCURVE",
"465 124 OFFCURVE",
"429 124 CURVE SMOOTH",
"345 124 OFFCURVE",
"328 91 OFFCURVE",
"344 87 CURVE",
"352 96 OFFCURVE",
"378 112 OFFCURVE",
"429 112 CURVE SMOOTH",
"465 112 OFFCURVE",
"493 95 OFFCURVE",
"493 75 CURVE SMOOTH",
"493 48 OFFCURVE",
"457 23 OFFCURVE",
"367 23 CURVE SMOOTH",
"266 23 OFFCURVE",
"104 77 OFFCURVE",
"17 77 CURVE SMOOTH",
"-32 77 OFFCURVE",
"-63 62 OFFCURVE",
"-63 45 CURVE SMOOTH",
"-63 25 OFFCURVE",
"-15 0 OFFCURVE",
"50 0 CURVE SMOOTH",
"282 0 OFFCURVE",
"428 601 OFFCURVE",
"530 601 CURVE SMOOTH",
"560 601 OFFCURVE",
"573 576 OFFCURVE",
"574 543 CURVE SMOOTH",
"575 471 OFFCURVE",
"510 355 OFFCURVE",
"417 362 CURVE",
"413 354 OFFCURVE",
"424 347 OFFCURVE",
"436 347 CURVE SMOOTH",
"526 350 OFFCURVE",
"589 470 OFFCURVE",
"584 547 CURVE SMOOTH",
"581 583 OFFCURVE",
"563 609 OFFCURVE",
"529 609 CURVE SMOOTH"
);
},
{
closed = 1;
nodes = (
"315 268 OFFCURVE",
"186 244 OFFCURVE",
"159 235 CURVE SMOOTH",
"154 233 OFFCURVE",
"151 224 OFFCURVE",
"158 224 CURVE",
"260 238 OFFCURVE",
"385 252 OFFCURVE",
"445 244 CURVE",
"450 251 OFFCURVE",
"454 268 OFFCURVE",
"419 268 CURVE SMOOTH"
);
}
);
width = 557;
}
);
unicode = 0141;
},
{
glyphname = M;
lastChange = "2016-10-16 20:03:48 +0200";
layers = (
{
layerId = "248CDC77-21EA-41B6-93B8-E98A9208AB16";
name = Regular;
paths = (
{
closed = 1;
nodes = (
"57 608 OFFCURVE",
"-127 260 OFFCURVE",
"2 260 CURVE SMOOTH",
"87 260 OFFCURVE",
"181 439 OFFCURVE",
"137 426 CURVE",
"142 386 OFFCURVE",
"52 265 OFFCURVE",
"4 265 CURVE SMOOTH",
"-108 265 OFFCURVE",
"111 600 OFFCURVE",
"264 600 CURVE SMOOTH",
"329 600 OFFCURVE",
"122 309 OFFCURVE",
"4 2 CURVE SMOOTH",
"32 7 LINE",
"152 308 OFFCURVE",
"375 608 OFFCURVE",
"269 608 CURVE SMOOTH"
);
},
{
closed = 1;
nodes = (
"14 25 OFFCURVE",
"-71 -4 OFFCURVE",
"-79 -14 CURVE",
"-82 -17 OFFCURVE",
"-78 -22 OFFCURVE",
"-73 -22 CURVE SMOOTH",
"5 8 OFFCURVE",
"109 6 OFFCURVE",
"120 1 CURVE SMOOTH",
"123 6 OFFCURVE",
"129 25 OFFCURVE",
"84 25 CURVE"
);
},
{
closed = 1;
nodes = (
"431 538 OFFCURVE",
"247 406 OFFCURVE",
"87 160 CURVE SMOOTH",
"59 117 OFFCURVE",
"26 63 OFFCURVE",
"54 93 CURVE",
"182 317 OFFCURVE",
"418 521 OFFCURVE",
"458 521 CURVE",
"435 467 OFFCURVE",
"242 128 OFFCURVE",
"207 8 CURVE SMOOTH",
"209 -13 OFFCURVE",
"235 7 OFFCURVE",
"238 19 CURVE",
"256 94 OFFCURVE",
"420 389 OFFCURVE",
"480 504 CURVE SMOOTH",
"487 518 OFFCURVE",
"478 538 OFFCURVE",
"470 538 CURVE SMOOTH"
);
},
{
closed = 1;
nodes = (
"584 483 OFFCURVE",
"381 310 OFFCURVE",
"282 151 CURVE",
"250 110 OFFCURVE",
"185 0 OFFCURVE",
"213 0 CURVE SMOOTH",
"286 205 OFFCURVE",
"546 442 OFFCURVE",
"612 470 CURVE",
"603 453 OFFCURVE",
"333 0 OFFCURVE",
"445 0 CURVE SMOOTH",
"524 0 OFFCURVE",
"612 142 OFFCURVE",
"574 142 CURVE",
"543 63 OFFCURVE",
"470 7 OFFCURVE",
"445 7 CURVE SMOOTH",
"388 7 OFFCURVE",
"555 318 OFFCURVE",
"630 452 CURVE",
"638 468 OFFCURVE",
"630 483 OFFCURVE",
"623 483 CURVE"
);
}
);
width = 621;
}
);
unicode = 004D;
},
{
glyphname = N;
lastChange = "2016-10-16 20:07:05 +0200";
layers = (
{
layerId = "248CDC77-21EA-41B6-93B8-E98A9208AB16";
name = Regular;
paths = (
{
closed = 1;
nodes = (
"481 535 OFFCURVE",
"250 357 OFFCURVE",
"151 198 CURVE",
"119 157 OFFCURVE",
"54 52 OFFCURVE",
"81 52 CURVE",
"166 258 OFFCURVE",
"425 483 OFFCURVE",
"505 515 CURVE",
"496 498 OFFCURVE",
"185 -12 OFFCURVE",
"301 -12 CURVE SMOOTH",
"380 -12 OFFCURVE",
"468 129 OFFCURVE",
"429 129 CURVE",
"399 51 OFFCURVE",
"326 -5 OFFCURVE",
"301 -5 CURVE SMOOTH",
"250 -5 OFFCURVE",
"435 351 OFFCURVE",
"528 499 CURVE",
"533 517 OFFCURVE",
"530 535 OFFCURVE",
"519 535 CURVE SMOOTH"
);
},
{
closed = 1;
nodes = (
"48 30 OFFCURVE",
"-37 1 OFFCURVE",
"-45 -10 CURVE SMOOTH",
"-48 -13 OFFCURVE",
"-44 -17 OFFCURVE",
"-39 -17 CURVE",
"39 12 OFFCURVE",
"143 11 OFFCURVE",
"154 6 CURVE",
"157 11 OFFCURVE",
"163 30 OFFCURVE",
"118 30 CURVE SMOOTH"
);
},
{
closed = 1;
nodes = (
"85 608 OFFCURVE",
"-100 260 OFFCURVE",
"29 260 CURVE SMOOTH",
"114 260 OFFCURVE",
"208 440 OFFCURVE",
"164 427 CURVE",
"170 386 OFFCURVE",
"79 265 OFFCURVE",
"31 265 CURVE SMOOTH",
"-81 265 OFFCURVE",
"138 600 OFFCURVE",
"291 600 CURVE SMOOTH",
"356 600 OFFCURVE",
"156 313 OFFCURVE",
"38 7 CURVE",
"66 12 LINE",
"186 312 OFFCURVE",
"402 608 OFFCURVE",
"296 608 CURVE SMOOTH"
);
}
);
width = 488;
}
);
unicode = 004E;
},
{
glyphname = Nacute;
lastChange = "2016-10-13 22:23:33 +0200";
layers = (
{
layerId = "248CDC77-21EA-41B6-93B8-E98A9208AB16";
name = Regular;
paths = (
{
closed = 1;
nodes = (
"449 550 OFFCURVE",
"396 516 OFFCURVE",
"410 516 CURVE SMOOTH",
"427 516 OFFCURVE",
"497 585 OFFCURVE",
"503 618 CURVE SMOOTH",
"505 631 OFFCURVE",
"501 636 OFFCURVE",
"491 636 CURVE"
);
},
{
closed = 1;
nodes = (
"519 535 OFFCURVE",
"288 357 OFFCURVE",
"189 198 CURVE",
"157 157 OFFCURVE",
"92 52 OFFCURVE",
"119 52 CURVE",
"204 258 OFFCURVE",
"463 483 OFFCURVE",
"543 515 CURVE",
"534 498 OFFCURVE",
"223 -12 OFFCURVE",
"339 -12 CURVE SMOOTH",
"418 -12 OFFCURVE",
"506 129 OFFCURVE",
"467 129 CURVE",
"437 51 OFFCURVE",
"364 -5 OFFCURVE",
"339 -5 CURVE SMOOTH",
"288 -5 OFFCURVE",
"473 351 OFFCURVE",
"566 499 CURVE",
"571 517 OFFCURVE",
"568 535 OFFCURVE",
"557 535 CURVE SMOOTH"
);
},
{
closed = 1;
nodes = (
"86 30 OFFCURVE",
"1 1 OFFCURVE",
"-7 -10 CURVE SMOOTH",
"-10 -13 OFFCURVE",
"-6 -17 OFFCURVE",
"-1 -17 CURVE",
"77 12 OFFCURVE",
"181 11 OFFCURVE",
"192 6 CURVE",
"195 11 OFFCURVE",
"201 30 OFFCURVE",
"156 30 CURVE SMOOTH"
);
},
{
closed = 1;
nodes = (
"123 608 OFFCURVE",
"-62 260 OFFCURVE",
"67 260 CURVE SMOOTH",
"152 260 OFFCURVE",
"246 440 OFFCURVE",
"202 427 CURVE",
"208 386 OFFCURVE",
"117 265 OFFCURVE",
"69 265 CURVE SMOOTH",
"-43 265 OFFCURVE",
"176 600 OFFCURVE",
"329 600 CURVE SMOOTH",
"394 600 OFFCURVE",
"194 313 OFFCURVE",
"76 7 CURVE",
"104 12 LINE",
"224 312 OFFCURVE",
"440 608 OFFCURVE",
"334 608 CURVE SMOOTH"
);
}
);
width = 488;
}
);
leftMetricsKey = N;
rightMetricsKey = N;
unicode = 0143;
},
{
glyphname = O;
lastChange = "2016-10-16 20:07:41 +0200";
layers = (
{
layerId = "248CDC77-21EA-41B6-93B8-E98A9208AB16";
name = Regular;
paths = (
{
closed = 1;
nodes = (
"229 606 OFFCURVE",
"37 315 OFFCURVE",
"37 138 CURVE SMOOTH",
"37 57 OFFCURVE",
"73 -8 OFFCURVE",
"169 -8 CURVE",
"359 -8 OFFCURVE",
"546 298 OFFCURVE",
"546 478 CURVE SMOOTH",
"546 552 OFFCURVE",
"514 606 OFFCURVE",
"438 606 CURVE"
);
},
{
closed = 1;
nodes = (
"498 598 OFFCURVE",
"524 553 OFFCURVE",
"524 490 CURVE SMOOTH",
"524 319 OFFCURVE",
"332 1 OFFCURVE",
"169 1 CURVE",
"91 1 OFFCURVE",
"62 59 OFFCURVE",
"62 126 CURVE SMOOTH",
"62 304 OFFCURVE",
"269 598 OFFCURVE",
"436 598 CURVE"
);
}
);
width = 480;
}
);
leftMetricsKey = o;
unicode = 004F;
},
{
glyphname = Oacute;
lastChange = "2016-10-16 20:08:04 +0200";
layers = (
{
layerId = "248CDC77-21EA-41B6-93B8-E98A9208AB16";
name = Regular;
paths = (
{
closed = 1;
nodes = (
"229 606 OFFCURVE",
"37 315 OFFCURVE",
"37 138 CURVE SMOOTH",
"37 57 OFFCURVE",
"73 -8 OFFCURVE",
"169 -8 CURVE",
"359 -8 OFFCURVE",
"552 288 OFFCURVE",
"552 468 CURVE SMOOTH",
"552 542 OFFCURVE",
"514 606 OFFCURVE",
"438 606 CURVE"
);
},
{
closed = 1;
nodes = (
"498 598 OFFCURVE",
"530 543 OFFCURVE",
"530 480 CURVE SMOOTH",
"530 309 OFFCURVE",
"332 1 OFFCURVE",
"169 1 CURVE",
"91 1 OFFCURVE",
"62 59 OFFCURVE",
"62 126 CURVE SMOOTH",
"62 304 OFFCURVE",
"269 598 OFFCURVE",
"436 598 CURVE"
);
},
{
closed = 1;
nodes = (
"500 609 OFFCURVE",
"422 521 OFFCURVE",
"376 490 CURVE",
"392 468 OFFCURVE",
"519 577 OFFCURVE",
"533 674 CURVE SMOOTH",
"535 690 OFFCURVE",
"524 695 OFFCURVE",
"517 692 CURVE"
);
}
);
width = 480;
}
);
leftMetricsKey = O;
rightMetricsKey = O;
unicode = 00D3;
},
{
glyphname = P;
lastChange = "2016-10-16 20:09:37 +0200";
layers = (
{
layerId = "248CDC77-21EA-41B6-93B8-E98A9208AB16";
name = Regular;
paths = (
{
closed = 1;
nodes = (
"525 671 OFFCURVE",
"482 649 OFFCURVE",
"447 613 CURVE SMOOTH",
"349 510 OFFCURVE",
"269 288 OFFCURVE",
"185 143 CURVE SMOOTH",
"141 67 OFFCURVE",
"98 7 OFFCURVE",
"55 7 CURVE SMOOTH",
"-34 7 OFFCURVE",
"43 215 OFFCURVE",
"159 244 CURVE SMOOTH",
"175 248 OFFCURVE",
"185 245 OFFCURVE",
"191 241 CURVE",
"197 250 OFFCURVE",
"183 257 OFFCURVE",
"168 257 CURVE SMOOTH",
"32 257 OFFCURVE",
"-62 0 OFFCURVE",
"54 0 CURVE SMOOTH",
"97 0 OFFCURVE",
"133 32 OFFCURVE",
"173 88 CURVE SMOOTH",
"280 239 OFFCURVE",
"386 535 OFFCURVE",
"462 611 CURVE SMOOTH",
"495 644 OFFCURVE",
"530 659 OFFCURVE",
"562 660 CURVE SMOOTH",
"583 661 OFFCURVE",
"605 660 OFFCURVE",
"618 643 CURVE",
"628 643 OFFCURVE",
"624 671 OFFCURVE",
"583 671 CURVE SMOOTH"
);
},
{
closed = 1;
nodes = (
"153 589 OFFCURVE",
"52 301 OFFCURVE",
"144 301 CURVE SMOOTH",
"237 301 OFFCURVE",
"318 435 OFFCURVE",
"286 435 CURVE",
"280 403 OFFCURVE",
"212 307 OFFCURVE",
"144 307 CURVE SMOOTH",
"68 307 OFFCURVE",
"166 580 OFFCURVE",
"448 577 CURVE SMOOTH",
"510 576 OFFCURVE",
"569 541 OFFCURVE",
"569 457 CURVE SMOOTH",
"569 299 OFFCURVE",
"416 204 OFFCURVE",
"334 204 CURVE SMOOTH",
"310 204 OFFCURVE",
"294 218 OFFCURVE",
"294 236 CURVE SMOOTH",
"294 295 OFFCURVE",
"402 364 OFFCURVE",
"475 345 CURVE",
"482 350 OFFCURVE",
"477 361 OFFCURVE",
"448 361 CURVE SMOOTH",
"377 361 OFFCURVE",
"287 296 OFFCURVE",
"287 236 CURVE SMOOTH",
"287 213 OFFCURVE",
"306 194 OFFCURVE",
"336 194 CURVE SMOOTH",
"438 194 OFFCURVE",
"591 300 OFFCURVE",
"591 458 CURVE SMOOTH",
"591 530 OFFCURVE",
"536 585 OFFCURVE",
"455 586 CURVE SMOOTH"
);
}
);
width = 496;
}
);
unicode = 0050;
},
{
glyphname = Q;
lastChange = "2016-11-03 02:11:38 +0100";
layers = (
{
layerId = "248CDC77-21EA-41B6-93B8-E98A9208AB16";
name = Regular;
paths = (
{
closed = 1;
nodes = (
"103 606 OFFCURVE",
"-180 -5 OFFCURVE",
"126 -9 CURVE",
"146 -32 OFFCURVE",
"164 -53 OFFCURVE",
"187 -71 CURVE",
"106 -95 OFFCURVE",
"17 -132 OFFCURVE",
"-58 -132 CURVE SMOOTH",
"-80 -132 OFFCURVE",
"-132 -125 OFFCURVE",
"-132 -104 CURVE SMOOTH",
"-132 -84 OFFCURVE",
"-72 -69 OFFCURVE",
"-30 -67 CURVE SMOOTH",
"-4 -66 OFFCURVE",
"41 -71 OFFCURVE",
"61 -84 CURVE",
"66 -62 OFFCURVE",
"23 -53 OFFCURVE",
"-30 -53 CURVE SMOOTH",
"-91 -53 OFFCURVE",
"-140 -80 OFFCURVE",
"-140 -105 CURVE SMOOTH",
"-140 -118 OFFCURVE",
"-124 -150 OFFCURVE",
"-59 -150 CURVE SMOOTH",
"37 -150 OFFCURVE",
"123 -105 OFFCURVE",
"199 -80 CURVE",
"228 -103 OFFCURVE",
"259 -118 OFFCURVE",
"295 -118 CURVE SMOOTH",
"343 -118 OFFCURVE",
"362 -102 OFFCURVE",
"362 -84 CURVE SMOOTH",
"362 -67 OFFCURVE",
"325 -52 OFFCURVE",
"288 -52 CURVE SMOOTH",
"264 -52 OFFCURVE",
"236 -57 OFFCURVE",
"207 -66 CURVE",
"187 -49 OFFCURVE",
"169 -28 OFFCURVE",
"151 -9 CURVE",
"414 21 OFFCURVE",
"656 606 OFFCURVE",
"402 606 CURVE SMOOTH"
);
},
{
closed = 1;
nodes = (
"323 -63 OFFCURVE",
"354 -71 OFFCURVE",
"354 -84 CURVE SMOOTH",
"354 -95 OFFCURVE",
"330 -104 OFFCURVE",
"295 -104 CURVE SMOOTH",
"267 -104 OFFCURVE",
"241 -93 OFFCURVE",
"218 -75 CURVE",
"242 -67 OFFCURVE",
"265 -63 OFFCURVE",
"288 -63 CURVE SMOOTH"
);
},
{
closed = 1;
nodes = (
"627 597 OFFCURVE",
"366 22 OFFCURVE",
"144 0 CURVE",
"122 25 OFFCURVE",
"100 51 OFFCURVE",
"78 66 CURVE SMOOTH",
"49 86 OFFCURVE",
"37 69 OFFCURVE",
"44 68 CURVE",
"66 58 OFFCURVE",
"91 31 OFFCURVE",
"117 0 CURVE",
"-152 15 OFFCURVE",
"170 597 OFFCURVE",
"401 597 CURVE SMOOTH"
);
}
);
width = 414;
}
);
unicode = 0051;
},
{
glyphname = R;
lastChange = "2016-10-16 21:33:53 +0200";
layers = (
{
layerId = "248CDC77-21EA-41B6-93B8-E98A9208AB16";
name = Regular;
paths = (
{
closed = 1;
nodes = (
"391 655 OFFCURVE",
"345 624 OFFCURVE",
"301 578 CURVE",
"10 555 OFFCURVE",
"-93 214.484 OFFCURVE",
"-93 112 CURVE SMOOTH",
"-93 37 OFFCURVE",
"-68 -7 OFFCURVE",
"-24 -7 CURVE SMOOTH",
"120.332 -7 OFFCURVE",
"165 392 OFFCURVE",
"318.182 570.093 CURVE",
"374 575 OFFCURVE",
"458 552 OFFCURVE",
"458 443 CURVE SMOOTH",
"458 337.178 OFFCURVE",
"353 237 OFFCURVE",
"244 205 CURVE",
"239 233 OFFCURVE",
"234.196 252 OFFCURVE",
"222 252 CURVE SMOOTH",
"184 252 OFFCURVE",
"159 222 OFFCURVE",
"159 208 CURVE SMOOTH",
"159 198 OFFCURVE",
"166 188 OFFCURVE",
"180 188 CURVE SMOOTH",
"195.13 188 OFFCURVE",
"209 189 OFFCURVE",
"224 192 CURVE",
"233 122 OFFCURVE",
"235.591 1.99989 OFFCURVE",
"285 1.99989 CURVE SMOOTH",
"348 1.99989 OFFCURVE",
"415 105 OFFCURVE",
"415 136 CURVE SMOOTH",
"415 142 OFFCURVE",
"413 145 OFFCURVE",
"408 145 CURVE",
"392 92.9999 OFFCURVE",
"322 12.9999 OFFCURVE",
"283 12.9999 CURVE SMOOTH",
"258.267 12.9999 OFFCURVE",
"257 126 OFFCURVE",
"246 196 CURVE",
"366 225 OFFCURVE",
"482 325.347 OFFCURVE",
"482 443 CURVE SMOOTH",
"482 508 OFFCURVE",
"446 584 OFFCURVE",
"326.779 579.542 CURVE",
"360 626 OFFCURVE",
"408 644 OFFCURVE",
"460 644 CURVE SMOOTH",
"473 644 OFFCURVE",
"489 641 OFFCURVE",
"495 634 CURVE",
"497 634 OFFCURVE",
"499 637 OFFCURVE",
"499 640 CURVE SMOOTH",
"499 646 OFFCURVE",
"489 655 OFFCURVE",
"466 655 CURVE SMOOTH"
);
},
{
closed = 1;
nodes = (
"-63 2.99999 OFFCURVE",
"-83 41 OFFCURVE",
"-83 110 CURVE SMOOTH",
"-83 212.391 OFFCURVE",
"22 540 OFFCURVE",
"293 568 CURVE",
"140 391 OFFCURVE",
"82.8246 3 OFFCURVE",
"-23 3 CURVE SMOOTH"
);
},
{
closed = 1;
nodes = (
"169 195 OFFCURVE",
"166 202 OFFCURVE",
"166 207 CURVE SMOOTH",
"166 219 OFFCURVE",
"190 242 OFFCURVE",
"206 242 CURVE SMOOTH",
"215.87 242 OFFCURVE",
"219 225 OFFCURVE",
"223 200 CURVE",
"207 197 OFFCURVE",
"193.423 195 OFFCURVE",
"178 195 CURVE SMOOTH"
);
}
);
width = 450;
}
);
unicode = 0052;
},
{
glyphname = S;
lastChange = "2016-10-13 21:37:55 +0200";
layers = (
{
layerId = "248CDC77-21EA-41B6-93B8-E98A9208AB16";
name = Regular;
paths = (
{
closed = 1;
nodes = (
"495 609 OFFCURVE",
"538 559 OFFCURVE",
"538 501 CURVE SMOOTH",
"538 438 OFFCURVE",
"475 377 OFFCURVE",
"396 377 CURVE SMOOTH",
"373 377 OFFCURVE",
"363 389 OFFCURVE",
"367 394 CURVE",
"460 394 OFFCURVE",
"512 447 OFFCURVE",
"512 505 CURVE SMOOTH",
"512 567 OFFCURVE",
"456 600 OFFCURVE",
"390 600 CURVE SMOOTH",
"310 600 OFFCURVE",
"221 557 OFFCURVE",
"221 478 CURVE",
"221 365 OFFCURVE",
"400 360 OFFCURVE",
"400 210 CURVE SMOOTH",
"400 104 OFFCURVE",
"306 -8 OFFCURVE",
"150 -8 CURVE SMOOTH",
"9 -8 OFFCURVE",
"-42 78 OFFCURVE",
"-42 146 CURVE SMOOTH",
"-42 247 OFFCURVE",
"49 328 OFFCURVE",
"169 328 CURVE SMOOTH",
"214 328 OFFCURVE",
"218 300 OFFCURVE",
"204 296 CURVE",
"117 326 OFFCURVE",
"-20 256 OFFCURVE",
"-20 140 CURVE SMOOTH",
"-20 60 OFFCURVE",
"55 3 OFFCURVE",
"151 3 CURVE SMOOTH",
"276 3 OFFCURVE",
"373 94 OFFCURVE",
"373 208 CURVE SMOOTH",
"373 338 OFFCURVE",
"197 350 OFFCURVE",
"197 472 CURVE SMOOTH",
"197 553 OFFCURVE",
"283 613 OFFCURVE",
"391 611 CURVE SMOOTH"
);
}
);
width = 452;
}
);
unicode = 0053;
},
{
glyphname = Sacute;
lastChange = "2016-10-13 21:38:26 +0200";
layers = (
{
layerId = "248CDC77-21EA-41B6-93B8-E98A9208AB16";
name = Regular;
paths = (
{
closed = 1;
nodes = (
"489 673 OFFCURVE",
"449 633 OFFCURVE",
"436 621 CURVE",
"452 609 OFFCURVE",
"513 670 OFFCURVE",
"521 702 CURVE SMOOTH",
"524 714 OFFCURVE",
"515 718 OFFCURVE",
"508 718 CURVE"
);
},
{
closed = 1;
nodes = (
"495 609 OFFCURVE",
"538 559 OFFCURVE",
"538 501 CURVE SMOOTH",
"538 438 OFFCURVE",
"475 377 OFFCURVE",
"396 377 CURVE SMOOTH",
"373 377 OFFCURVE",
"363 389 OFFCURVE",
"367 394 CURVE",
"460 394 OFFCURVE",
"512 447 OFFCURVE",
"512 505 CURVE SMOOTH",
"512 567 OFFCURVE",
"456 600 OFFCURVE",
"390 600 CURVE SMOOTH",
"310 600 OFFCURVE",
"221 557 OFFCURVE",
"221 478 CURVE",
"221 365 OFFCURVE",
"400 360 OFFCURVE",
"400 210 CURVE SMOOTH",
"400 104 OFFCURVE",
"306 -8 OFFCURVE",
"150 -8 CURVE SMOOTH",
"9 -8 OFFCURVE",
"-42 78 OFFCURVE",
"-42 146 CURVE SMOOTH",
"-42 247 OFFCURVE",
"49 328 OFFCURVE",
"169 328 CURVE SMOOTH",
"214 328 OFFCURVE",
"218 300 OFFCURVE",
"204 296 CURVE",
"117 326 OFFCURVE",
"-20 256 OFFCURVE",
"-20 140 CURVE SMOOTH",
"-20 60 OFFCURVE",
"55 3 OFFCURVE",
"151 3 CURVE SMOOTH",
"276 3 OFFCURVE",
"373 94 OFFCURVE",
"373 208 CURVE SMOOTH",
"373 338 OFFCURVE",
"197 350 OFFCURVE",
"197 472 CURVE SMOOTH",
"197 553 OFFCURVE",
"283 613 OFFCURVE",
"391 611 CURVE SMOOTH"
);
}
);
width = 422;
}
);
leftMetricsKey = S;
unicode = 015A;
},
{
glyphname = T;
lastChange = "2016-10-27 01:54:13 +0200";
layers = (
{
layerId = "248CDC77-21EA-41B6-93B8-E98A9208AB16";
name = Regular;
paths = (
{
closed = 1;
nodes = (
"181 276 OFFCURVE",
"60 192 OFFCURVE",
"60 77 CURVE SMOOTH",
"60 40 OFFCURVE",
"78 11 OFFCURVE",
"110 11 CURVE SMOOTH",
"233 11 OFFCURVE",
"369 454 OFFCURVE",
"462 525 CURVE SMOOTH",
"479 538 OFFCURVE",
"487 535 OFFCURVE",
"486 529 CURVE",
"396 453 OFFCURVE",
"255 0 OFFCURVE",
"112 0 CURVE SMOOTH",
"66 0 OFFCURVE",
"44 43 OFFCURVE",
"44 83 CURVE SMOOTH",
"44 212 OFFCURVE",
"161 288 OFFCURVE",
"230 288 CURVE SMOOTH",
"249 288 OFFCURVE",
"248 276 OFFCURVE",
"243 276 CURVE"
);
},
{
closed = 1;
nodes = (
"47 598 OFFCURVE",
"5 544 OFFCURVE",
"5 513 CURVE SMOOTH",
"5 462 OFFCURVE",
"73 430 OFFCURVE",
"143 429 CURVE SMOOTH",
"227 428 OFFCURVE",
"312 463 OFFCURVE",
"328 495 CURVE",
"351 495 OFFCURVE",
"296 412 OFFCURVE",
"143 412 CURVE SMOOTH",
"70 412 OFFCURVE",
"-3 446 OFFCURVE",
"-3 513 CURVE SMOOTH",
"-3 588 OFFCURVE",
"92 620 OFFCURVE",
"200 620 CURVE SMOOTH",
"341 620 OFFCURVE",
"563 563 OFFCURVE",
"641 627 CURVE",
"653 624 OFFCURVE",
"618 579 OFFCURVE",
"510 579 CURVE SMOOTH",
"350 579 OFFCURVE",
"300 598 OFFCURVE",
"193 598 CURVE SMOOTH"
);
}
);
width = 360;
}
);
unicode = 0054;
},
{
glyphname = U;
lastChange = "2016-11-03 01:32:19 +0100";
layers = (
{
layerId = "248CDC77-21EA-41B6-93B8-E98A9208AB16";
name = Regular;
paths = (
{
closed = 1;
nodes = (
"574 580 OFFCURVE",
"486 434 OFFCURVE",
"358 276 CURVE",
"262 148 OFFCURVE",
"89 5 OFFCURVE",
"46 5 CURVE SMOOTH",
"-32 5 OFFCURVE",
"438 655 OFFCURVE",
"280 655 CURVE SMOOTH",
"70 655 OFFCURVE",
"-113 304 OFFCURVE",
"14 304 CURVE SMOOTH",
"86 304 OFFCURVE",
"200 474 OFFCURVE",
"148 474 CURVE",
"148 427 OFFCURVE",
"60 314 OFFCURVE",
"10 314 CURVE SMOOTH",
"-83 314 OFFCURVE",
"109 643 OFFCURVE",
"280 643 CURVE SMOOTH",
"387 643 OFFCURVE",
"-92 -9 OFFCURVE",
"42 -9 CURVE SMOOTH",
"194 -9 OFFCURVE",
"648 591 OFFCURVE",
"550 591 CURVE SMOOTH",
"481 591 OFFCURVE",
"162 -7 OFFCURVE",
"275 -7 CURVE SMOOTH",
"353 -7 OFFCURVE",
"441 139 OFFCURVE",
"403 139 CURVE",
"372 60 OFFCURVE",
"302 3 OFFCURVE",
"276 3 CURVE SMOOTH",
"212 3 OFFCURVE",
"506 580 OFFCURVE",
"551 580 CURVE SMOOTH"
);
}
);
width = 473;
}
);
unicode = 0055;
},
{
glyphname = V;
lastChange = "2016-10-27 01:43:55 +0200";
layers = (
{
layerId = "248CDC77-21EA-41B6-93B8-E98A9208AB16";
name = Regular;
paths = (
{
closed = 1;
nodes = (
"394 615 OFFCURVE",
"122 95 OFFCURVE",
"118 8 CURVE SMOOTH",
"117 0 OFFCURVE",
"119 -2 OFFCURVE",
"123 -2 CURVE",
"164 143 OFFCURVE",
"296 375 OFFCURVE",
"451 524 CURVE SMOOTH",
"524 594 OFFCURVE",
"610 620 OFFCURVE",
"634 595 CURVE",
"642 595 OFFCURVE",
"645 615 OFFCURVE",
"612 615 CURVE SMOOTH"
);
},
{
closed = 1;
nodes = (
"14 601 OFFCURVE",
"-124 228 OFFCURVE",
"11 228 CURVE SMOOTH",
"114 228 OFFCURVE",
"205 428 OFFCURVE",
"162 416 CURVE",
"156 358 OFFCURVE",
"74 236 OFFCURVE",
"13 236 CURVE SMOOTH",
"-107 236 OFFCURVE",
"69 592 OFFCURVE",
"248 592 CURVE SMOOTH",
"353 592 OFFCURVE",
"104 118 OFFCURVE",
"104 12 CURVE",
"105 4 OFFCURVE",
"114 -14 OFFCURVE",
"123 -4 CURVE",
"120 19 LINE",
"174 216 OFFCURVE",
"386 601 OFFCURVE",
"250 601 CURVE SMOOTH"
);
}
);
width = 360;
}
);
unicode = 0056;
},
{
glyphname = W;
lastChange = "2016-10-16 21:22:07 +0200";
layers = (
{
layerId = "248CDC77-21EA-41B6-93B8-E98A9208AB16";
name = Regular;
paths = (
{
closed = 1;
nodes = (
"599 258 OFFCURVE",
"595 276 CURVE",
"579 276 OFFCURVE",
"557 296 OFFCURVE",
"553 327 CURVE",
"601 418 OFFCURVE",
"672 604 OFFCURVE",
"635 604 CURVE SMOOTH",
"597 604 OFFCURVE",
"506 463 OFFCURVE",
"530 318 CURVE",
"462 173 OFFCURVE",
"317 11 OFFCURVE",
"289 11 CURVE SMOOTH",
"234 11 OFFCURVE",
"349 329 OFFCURVE",
"402 401 CURVE",
"402 410 OFFCURVE",
"381 410 OFFCURVE",
"368 395 CURVE",
"309 332 OFFCURVE",
"123 124 OFFCURVE",
"72 25 CURVE SMOOTH",
"71 23 OFFCURVE",
"69 20 OFFCURVE",
"69 22 CURVE",
"149 205 OFFCURVE",
"303 478 OFFCURVE",
"356 540 CURVE",
"357 553 OFFCURVE",
"349 573 OFFCURVE",
"338 561 CURVE SMOOTH",
"338 561 OFFCURVE",
"181 351 OFFCURVE",
"51 20 CURVE",
"34 16 OFFCURVE",
"-11 5 OFFCURVE",
"-31 -5 CURVE SMOOTH",
"-35 -7 OFFCURVE",
"-35 -14 OFFCURVE",
"-26 -16 CURVE",
"23 1 OFFCURVE",
"126 11 OFFCURVE",
"163 4 CURVE",
"165 8 OFFCURVE",
"169 27 OFFCURVE",
"133 27 CURVE SMOOTH",
"120 27 OFFCURVE",
"96 25 OFFCURVE",
"83 23 CURVE",
"139 120 OFFCURVE",
"287 295 OFFCURVE",
"350 352 CURVE",
"303 272 OFFCURVE",
"204 0 OFFCURVE",
"287 0 CURVE",
"339 0 OFFCURVE",
"482 178 OFFCURVE",
"538 298 CURVE",
"555 247 OFFCURVE"
);
},
{
closed = 1;
nodes = (
"648 592 OFFCURVE",
"600 447 OFFCURVE",
"546 342 CURVE",
"538 487 OFFCURVE",
"616 592 OFFCURVE",
"633 592 CURVE SMOOTH"
);
}
);
width = 598;
}
);
unicode = 0057;
},
{
glyphname = X;
lastChange = "2016-10-16 21:31:42 +0200";
layers = (
{
layerId = "248CDC77-21EA-41B6-93B8-E98A9208AB16";
name = Regular;
paths = (
{
closed = 1;
nodes = (
"554 521 OFFCURVE",
"469 417 OFFCURVE",
"418 328 CURVE",
"479 445 OFFCURVE",
"494 609 OFFCURVE",
"368 609 CURVE SMOOTH",
"151 609 OFFCURVE",
"-5 261 OFFCURVE",
"185 261 CURVE SMOOTH",
"334 261 OFFCURVE",
"428 481 OFFCURVE",
"357 475 CURVE",
"380 434 OFFCURVE",
"282 270 OFFCURVE",
"183 270 CURVE SMOOTH",
"20 270 OFFCURVE",
"189 599 OFFCURVE",
"368 599 CURVE SMOOTH",
"496 599 OFFCURVE",
"443 404 OFFCURVE",
"354 255 CURVE SMOOTH",
"259 96 OFFCURVE",
"179 -1 OFFCURVE",
"112 -1 CURVE SMOOTH",
"23 -1 OFFCURVE",
"92 176 OFFCURVE",
"210 207 CURVE SMOOTH",
"225 211 OFFCURVE",
"247 209 OFFCURVE",
"252 194 CURVE",
"259 194 OFFCURVE",
"261 219 OFFCURVE",
"219 219 CURVE SMOOTH",
"82 219 OFFCURVE",
"-8 -10 OFFCURVE",
"113 -10 CURVE SMOOTH",
"186 -10 OFFCURVE",
"256 66 OFFCURVE",
"323 165 CURVE",
"285 81 OFFCURVE",
"278 -8 OFFCURVE",
"335 -8 CURVE SMOOTH",
"452 -8 OFFCURVE",
"593 218 OFFCURVE",
"547 218 CURVE",
"523 146 OFFCURVE",
"410 1 OFFCURVE",
"339 1 CURVE SMOOTH",
"286 1 OFFCURVE",
"314 110 OFFCURVE",
"357 195 CURVE SMOOTH",
"431 341 OFFCURVE",
"548 509 OFFCURVE",
"619 509 CURVE SMOOTH",
"647 509 OFFCURVE",
"646 466 OFFCURVE",
"622 428 CURVE SMOOTH",
"608 405 OFFCURVE",
"579 379 OFFCURVE",
"550 376 CURVE",
"549 373 OFFCURVE",
"553 368 OFFCURVE",
"563 368 CURVE SMOOTH",
"579 368 OFFCURVE",
"612 385 OFFCURVE",
"637 420 CURVE SMOOTH",
"670 467 OFFCURVE",
"661 521 OFFCURVE",
"620 521 CURVE SMOOTH"
);
}
);
width = 579;
}
);
unicode = 0058;
},
{
glyphname = Y;
lastChange = "2016-10-16 21:28:14 +0200";
layers = (
{
layerId = "248CDC77-21EA-41B6-93B8-E98A9208AB16";
name = Regular;
paths = (
{
closed = 1;
nodes = (
"-1 -239 OFFCURVE",
"80 24 OFFCURVE",
"238 24 CURVE SMOOTH",
"256 24 OFFCURVE",
"270 14 OFFCURVE",
"265 3 CURVE",
"264 9 OFFCURVE",
"248 16 OFFCURVE",
"229 12 CURVE SMOOTH",
"88 -18 OFFCURVE",
"35 -232 OFFCURVE",
"131 -232 CURVE SMOOTH",
"311 -232 OFFCURVE",
"540 591 OFFCURVE",
"663 591 CURVE SMOOTH",
"752 591 OFFCURVE",
"353 95 OFFCURVE",
"213 95 CURVE SMOOTH",
"102 95 OFFCURVE",
"481 595 OFFCURVE",
"389 595 CURVE SMOOTH",
"194 595 OFFCURVE",
"-68 185 OFFCURVE",
"76 185 CURVE SMOOTH",
"137 185 OFFCURVE",
"235 341 OFFCURVE",
"229 393 CURVE",
"284 409 OFFCURVE",
"182 179 OFFCURVE",
"73 179 CURVE SMOOTH",
"-84 179 OFFCURVE",
"143 604 OFFCURVE",
"392 604 CURVE SMOOTH",
"514 604 OFFCURVE",
"157 107 OFFCURVE",
"217 107 CURVE SMOOTH",
"342 107 OFFCURVE",
"720 582 OFFCURVE",
"662 582 CURVE SMOOTH",
"572 582 OFFCURVE",
"342 -239 OFFCURVE",
"134 -239 CURVE SMOOTH"
);
}
);
width = 530;
}
);
unicode = 0059;
},
{
glyphname = Z;
lastChange = "2016-10-16 21:38:22 +0200";
layers = (
{
layerId = "248CDC77-21EA-41B6-93B8-E98A9208AB16";
name = Regular;
paths = (
{
closed = 1;
nodes = (
"63 441 OFFCURVE",
"93 477 OFFCURVE",
"159 477 CURVE SMOOTH",
"331 477 OFFCURVE",
"247 217 OFFCURVE",
"158 217 CURVE SMOOTH",
"15 217 OFFCURVE",
"208 633 OFFCURVE",
"383 633 CURVE SMOOTH",
"434 633 OFFCURVE",
"364 403 OFFCURVE",
"404 403 CURVE SMOOTH",
"497 403 OFFCURVE",
"592 517 OFFCURVE",
"560 517 CURVE SMOOTH",
"497 517 OFFCURVE",
"230 -7 OFFCURVE",
"144 -7 CURVE SMOOTH",
"60 -7 OFFCURVE",
"237 222 OFFCURVE",
"373 222 CURVE SMOOTH",
"451 222 OFFCURVE",
"303 -2 OFFCURVE",
"334 -2 CURVE SMOOTH",
"364 -2 OFFCURVE",
"419 61 OFFCURVE",
"427 85 CURVE",
"456 85 OFFCURVE",
"380 -10 OFFCURVE",
"327 -10 CURVE SMOOTH",
"262 -10 OFFCURVE",
"412 212 OFFCURVE",
"367 212 CURVE SMOOTH",
"240 212 OFFCURVE",
"92 0 OFFCURVE",
"141 0 CURVE SMOOTH",
"199 0 OFFCURVE",
"479 526 OFFCURVE",
"563 526 CURVE SMOOTH",
"608 526 OFFCURVE",
"511 395 OFFCURVE",
"401 395 CURVE SMOOTH",
"327 395 OFFCURVE",
"417 623 OFFCURVE",
"381 623 CURVE SMOOTH",
"250 623 OFFCURVE",
"42 224 OFFCURVE",
"162 224 CURVE SMOOTH",
"237 224 OFFCURVE",
"318 470 OFFCURVE",
"156 470 CURVE SMOOTH",
"124 470 OFFCURVE",
"92 456 OFFCURVE",
"81 441 CURVE"
);
}
);
width = 500;
}
);
unicode = 005A;
},
{
glyphname = Zacute;
lastChange = "2016-10-16 21:40:43 +0200";
layers = (
{
layerId = "248CDC77-21EA-41B6-93B8-E98A9208AB16";
name = Regular;
paths = (
{
closed = 1;
nodes = (
"486 550 OFFCURVE",
"433 516 OFFCURVE",
"447 516 CURVE SMOOTH",
"464 516 OFFCURVE",
"534 585 OFFCURVE",
"540 618 CURVE SMOOTH",
"542 631 OFFCURVE",
"538 636 OFFCURVE",
"528 636 CURVE"
);
},
{
closed = 1;
nodes = (
"63 441 OFFCURVE",
"93 477 OFFCURVE",
"159 477 CURVE SMOOTH",
"331 477 OFFCURVE",
"247 217 OFFCURVE",
"158 217 CURVE SMOOTH",
"15 217 OFFCURVE",
"208 633 OFFCURVE",
"383 633 CURVE SMOOTH",
"434 633 OFFCURVE",
"364 403 OFFCURVE",
"404 403 CURVE SMOOTH",
"497 403 OFFCURVE",
"592 517 OFFCURVE",
"560 517 CURVE SMOOTH",
"497 517 OFFCURVE",
"230 -7 OFFCURVE",
"144 -7 CURVE SMOOTH",
"60 -7 OFFCURVE",
"237 222 OFFCURVE",
"373 222 CURVE SMOOTH",
"451 222 OFFCURVE",
"303 -2 OFFCURVE",
"334 -2 CURVE SMOOTH",
"364 -2 OFFCURVE",
"419 61 OFFCURVE",
"427 85 CURVE",
"456 85 OFFCURVE",
"380 -10 OFFCURVE",
"327 -10 CURVE SMOOTH",
"262 -10 OFFCURVE",
"412 212 OFFCURVE",
"367 212 CURVE SMOOTH",
"240 212 OFFCURVE",
"92 0 OFFCURVE",
"141 0 CURVE SMOOTH",
"199 0 OFFCURVE",
"479 526 OFFCURVE",
"563 526 CURVE SMOOTH",
"608 526 OFFCURVE",
"511 395 OFFCURVE",
"401 395 CURVE SMOOTH",
"327 395 OFFCURVE",
"417 623 OFFCURVE",
"381 623 CURVE SMOOTH",
"250 623 OFFCURVE",
"42 224 OFFCURVE",
"162 224 CURVE SMOOTH",
"237 224 OFFCURVE",
"318 470 OFFCURVE",
"156 470 CURVE SMOOTH",
"124 470 OFFCURVE",
"92 456 OFFCURVE",
"81 441 CURVE"
);
}
);
width = 500;
}
);
leftMetricsKey = Z;
rightMetricsKey = Z;
unicode = 0179;
},
{
glyphname = Zdotaccent;
lastChange = "2016-11-10 01:30:32 +0100";
layers = (
{
layerId = "248CDC77-21EA-41B6-93B8-E98A9208AB16";
name = Regular;
paths = (
{
closed = 1;
nodes = (
"59 441 OFFCURVE",
"89 477 OFFCURVE",
"155 477 CURVE SMOOTH",
"327 477 OFFCURVE",
"243 217 OFFCURVE",
"154 217 CURVE SMOOTH",
"11 217 OFFCURVE",
"204 633 OFFCURVE",
"379 633 CURVE SMOOTH",
"430 633 OFFCURVE",
"360 403 OFFCURVE",
"400 403 CURVE SMOOTH",
"493 403 OFFCURVE",
"588 517 OFFCURVE",
"556 517 CURVE SMOOTH",
"493 517 OFFCURVE",
"226 -7 OFFCURVE",
"140 -7 CURVE SMOOTH",
"56 -7 OFFCURVE",
"233 222 OFFCURVE",
"369 222 CURVE SMOOTH",
"447 222 OFFCURVE",
"299 -2 OFFCURVE",
"330 -2 CURVE SMOOTH",
"360 -2 OFFCURVE",
"415 61 OFFCURVE",
"423 85 CURVE",
"452 85 OFFCURVE",
"376 -10 OFFCURVE",
"323 -10 CURVE SMOOTH",
"258 -10 OFFCURVE",
"408 212 OFFCURVE",
"363 212 CURVE SMOOTH",
"236 212 OFFCURVE",
"88 0 OFFCURVE",
"137 0 CURVE SMOOTH",
"195 0 OFFCURVE",
"475 526 OFFCURVE",
"559 526 CURVE SMOOTH",
"604 526 OFFCURVE",
"507 395 OFFCURVE",
"397 395 CURVE SMOOTH",
"323 395 OFFCURVE",
"413 623 OFFCURVE",
"377 623 CURVE SMOOTH",
"246 623 OFFCURVE",
"38 224 OFFCURVE",
"158 224 CURVE SMOOTH",
"233 224 OFFCURVE",
"314 470 OFFCURVE",
"152 470 CURVE SMOOTH",
"120 470 OFFCURVE",
"88 456 OFFCURVE",
"77 441 CURVE"
);
},
{
closed = 1;
nodes = (
"491 559 OFFCURVE",
"506 579 OFFCURVE",
"506 594 CURVE SMOOTH",
"506 604 OFFCURVE",
"502 612 OFFCURVE",
"491 612 CURVE SMOOTH",
"474 612 OFFCURVE",
"461 594 OFFCURVE",
"461 579 CURVE SMOOTH",
"461 567 OFFCURVE",
"467 559 OFFCURVE",
"477 559 CURVE SMOOTH"
);
}
);
width = 500;
}
);
leftMetricsKey = Z;
rightMetricsKey = Z;
unicode = 017B;
},
{
glyphname = a;
lastChange = "2016-10-16 20:18:05 +0200";
layers = (
{
anchors = (
{
name = ogonek;
position = "{332, 10}";
},
{
name = top;
position = "{181, 390}";
}
);
layerId = "248CDC77-21EA-41B6-93B8-E98A9208AB16";
name = Regular;
paths = (
{
closed = 1;
nodes = (
"270 101 OFFCURVE",
"176 12 OFFCURVE",
"145 8 CURVE SMOOTH",
"130 5 OFFCURVE",
"161 81 OFFCURVE",
"201 165 CURVE",
"300 263 OFFCURVE",
"395 398 OFFCURVE",
"346 398 CURVE SMOOTH",
"321 398 OFFCURVE",
"276 341 OFFCURVE",
"232 269 CURVE",
"253 325 OFFCURVE",
"268 398 OFFCURVE",
"230 398 CURVE SMOOTH",
"182 398 OFFCURVE",
"103 321 OFFCURVE",
"44 218 CURVE SMOOTH",
"-8 126 OFFCURVE",
"-44 -5 OFFCURVE",
"4 -5 CURVE SMOOTH",
"44 -5 OFFCURVE",
"124 73 OFFCURVE",
"154 118 CURVE",
"126 52 OFFCURVE",
"113 -4 OFFCURVE",
"138 -4 CURVE SMOOTH",
"210 -4 OFFCURVE",
"346 158 OFFCURVE",
"311 158 CURVE"
);
},
{
closed = 1;
nodes = (
"367 388 OFFCURVE",
"299 284 OFFCURVE",
"215 194 CURVE",
"263 290 OFFCURVE",
"332 388 OFFCURVE",
"346 388 CURVE SMOOTH"
);
},
{
closed = 1;
nodes = (
"-13 7 OFFCURVE",
"18 122 OFFCURVE",
"65 203 CURVE SMOOTH",
"122 303 OFFCURVE",
"195 388 OFFCURVE",
"229 388 CURVE SMOOTH",
"255 388 OFFCURVE",
"228 284 OFFCURVE",
"206 230 CURVE",
"189 199 OFFCURVE",
"179 172 OFFCURVE",
"165 143 CURVE",
"96 61 OFFCURVE",
"27 7 OFFCURVE",
"8 7 CURVE SMOOTH"
);
}
);
width = 360;
}
);
leftKerningGroup = o;
rightKerningGroup = a;
unicode = 0061;
},
{
glyphname = aogonek;
lastChange = "2016-10-16 20:18:01 +0200";
layers = (
{
layerId = "248CDC77-21EA-41B6-93B8-E98A9208AB16";
name = Regular;
paths = (
{
closed = 1;
nodes = (
"270 100 OFFCURVE",
"178 8 OFFCURVE",
"147 2 CURVE SMOOTH",
"132 0 OFFCURVE",
"161 74 OFFCURVE",
"201 158 CURVE",
"300 265 OFFCURVE",
"395 392 OFFCURVE",
"346 392 CURVE SMOOTH",
"321 392 OFFCURVE",
"276 334 OFFCURVE",
"232 262 CURVE",
"253 319 OFFCURVE",
"268 392 OFFCURVE",
"230 392 CURVE SMOOTH",
"182 392 OFFCURVE",
"100 312 OFFCURVE",
"41 209 CURVE SMOOTH",
"-12 117 OFFCURVE",
"-37 0 OFFCURVE",
"0 0 CURVE SMOOTH",
"29 0 OFFCURVE",
"90 38 OFFCURVE",
"154 111 CURVE",
"126 45 OFFCURVE",
"114 -7 OFFCURVE",
"140 -7 CURVE SMOOTH",
"206 -7 OFFCURVE",
"333 151 OFFCURVE",
"311 151 CURVE"
);
},
{
closed = 1;
nodes = (
"373 385 OFFCURVE",
"299 277 OFFCURVE",
"215 187 CURVE",
"263 284 OFFCURVE",
"321 382 OFFCURVE",
"345 383 CURVE SMOOTH"
);
},
{
closed = 1;
nodes = (
"-13 10 OFFCURVE",
"18 116 OFFCURVE",
"64 196 CURVE SMOOTH",
"122 296 OFFCURVE",
"195 381 OFFCURVE",
"229 381 CURVE SMOOTH",
"258 381 OFFCURVE",
"234 281 OFFCURVE",
"212 227 CURVE",
"195 197 OFFCURVE",
"179 166 OFFCURVE",
"165 136 CURVE",
"88 55 OFFCURVE",
"26 10 OFFCURVE",
"8 10 CURVE SMOOTH"
);
},
{
closed = 1;
nodes = (
"219 1 OFFCURVE",
"205 -3 OFFCURVE",
"197 -7 CURVE SMOOTH",
"122 -42 OFFCURVE",
"67 -149 OFFCURVE",
"130 -149 CURVE SMOOTH",
"167 -149 OFFCURVE",
"213 -80 OFFCURVE",
"191 -80 CURVE",
"179 -104 OFFCURVE",
"145 -138 OFFCURVE",
"125 -138 CURVE SMOOTH",
"94 -138 OFFCURVE",
"148 -43 OFFCURVE",
"220 -4 CURVE"
);
}
);
width = 360;
}
);
leftKerningGroup = o;
rightKerningGroup = a;
unicode = 0105;
},
{
glyphname = b;
lastChange = "2016-10-12 20:26:45 +0200";
layers = (
{
layerId = "248CDC77-21EA-41B6-93B8-E98A9208AB16";
name = Regular;
paths = (
{
closed = 1;
nodes = (
"13 123 OFFCURVE",
"-27 0 OFFCURVE",
"28 0 CURVE SMOOTH",
"136 0 OFFCURVE",
"258 194 OFFCURVE",
"280 257 CURVE",
"342 252 OFFCURVE",
"383 284 OFFCURVE",
"374 296 CURVE",
"352 278 OFFCURVE",
"309 266 OFFCURVE",
"287 272 CURVE",
"311 336 OFFCURVE",
"316 406 OFFCURVE",
"292 406 CURVE SMOOTH",
"260 406 OFFCURVE",
"216 345 OFFCURVE",
"216 308 CURVE SMOOTH",
"216 287 OFFCURVE",
"234 270 OFFCURVE",
"258 260 CURVE",
"226 173 OFFCURVE",
"93 10 OFFCURVE",
"29 10 CURVE SMOOTH",
"-2 10 OFFCURVE",
"32 108 OFFCURVE",
"82 197 CURVE SMOOTH",
"107 241 OFFCURVE",
"133 286 OFFCURVE",
"158 330 CURVE",
"308 478 OFFCURVE",
"370 600 OFFCURVE",
"329 600 CURVE SMOOTH",
"295 600 OFFCURVE",
"187 444 OFFCURVE",
"76 239 CURVE SMOOTH"
);
},
{
closed = 1;
nodes = (
"345 584 OFFCURVE",
"289 484 OFFCURVE",
"179 367 CURVE",
"254 496 OFFCURVE",
"313 584 OFFCURVE",
"329 584 CURVE SMOOTH"
);
},
{
closed = 1;
nodes = (
"232 346 OFFCURVE",
"272 393 OFFCURVE",
"287 393 CURVE SMOOTH",
"298 393 OFFCURVE",
"285 320 OFFCURVE",
"265 277 CURVE",
"247 280 OFFCURVE",
"232 296 OFFCURVE",
"232 309 CURVE SMOOTH"
);
}
);
width = 321;
}
);
unicode = 0062;
},
{
glyphname = c;
lastChange = "2016-11-10 00:56:03 +0100";
layers = (
{
anchors = (
{
name = bottom;
position = "{125, 0}";
},
{
name = top;
position = "{125, 390}";
}
);
layerId = "248CDC77-21EA-41B6-93B8-E98A9208AB16";
name = Regular;
paths = (
{
closed = 1;
nodes = (
"129 257 OFFCURVE",
"137 236 OFFCURVE",
"154 236 CURVE SMOOTH",
"218 236 OFFCURVE",
"300 396 OFFCURVE",
"222 396 CURVE SMOOTH",
"155 396 OFFCURVE",
"69 293 OFFCURVE",
"21 193 CURVE SMOOTH",
"-26 95 OFFCURVE",
"-34 -9 OFFCURVE",
"22 -9 CURVE SMOOTH",
"129 -9 OFFCURVE",
"258 206 OFFCURVE",
"214 206 CURVE",
"191 158 OFFCURVE",
"97 1 OFFCURVE",
"22 1 CURVE SMOOTH",
"-18 1 OFFCURVE",
"1 99 OFFCURVE",
"49 193 CURVE SMOOTH",
"99 291 OFFCURVE",
"176 386 OFFCURVE",
"222 386 CURVE SMOOTH",
"258 386 OFFCURVE",
"214 266 OFFCURVE",
"157 246 CURVE",
"172 259 OFFCURVE",
"155 278 OFFCURVE",
"142 267 CURVE SMOOTH"
);
}
);
width = 250;
}
);
leftKerningGroup = o;
rightKerningGroup = c;
unicode = 0063;
},
{
glyphname = cacute;
lastChange = "2016-11-10 01:39:27 +0100";
layers = (
{
layerId = "248CDC77-21EA-41B6-93B8-E98A9208AB16";
name = Regular;
paths = (
{
closed = 1;
nodes = (
"273 479 OFFCURVE",
"246 447 OFFCURVE",
"228 427 CURVE",
"239 409 OFFCURVE",
"302 477 OFFCURVE",
"308 506 CURVE SMOOTH",
"311 518 OFFCURVE",
"303 527 OFFCURVE",
"297 525 CURVE"
);
},
{
closed = 1;
nodes = (
"153 396 OFFCURVE",
"298 396 OFFCURVE",
"220 396 CURVE SMOOTH"
);
},
{
closed = 1;
nodes = (
"127 257 OFFCURVE",
"135 236 OFFCURVE",
"152 236 CURVE SMOOTH",
"216 236 OFFCURVE",
"298 396 OFFCURVE",
"220 396 CURVE SMOOTH",
"153 396 OFFCURVE",
"67 293 OFFCURVE",
"19 193 CURVE SMOOTH",
"-28 95 OFFCURVE",
"-36 -9 OFFCURVE",
"20 -9 CURVE SMOOTH",
"127 -9 OFFCURVE",
"256 206 OFFCURVE",
"212 206 CURVE",
"189 158 OFFCURVE",
"95 1 OFFCURVE",
"20 1 CURVE SMOOTH",
"-20 1 OFFCURVE",
"-1 99 OFFCURVE",
"47 193 CURVE SMOOTH",
"97 291 OFFCURVE",
"174 386 OFFCURVE",
"220 386 CURVE SMOOTH",
"256 386 OFFCURVE",
"212 266 OFFCURVE",
"155 246 CURVE",
"170 259 OFFCURVE",
"153 278 OFFCURVE",
"140 267 CURVE SMOOTH"
);
}
);
width = 250;
}
);
leftKerningGroup = o;
rightKerningGroup = c;
unicode = 0107;
},
{
glyphname = d;
lastChange = "2016-11-10 01:38:26 +0100";
layers = (
{
anchors = (
{
name = center;
position = "{208, 195}";
}
);
layerId = "248CDC77-21EA-41B6-93B8-E98A9208AB16";
name = Regular;
paths = (
{
closed = 1;
nodes = (
"318 131 OFFCURVE",
"190 11 OFFCURVE",
"151 11 CURVE SMOOTH",
"133 11 OFFCURVE",
"166 104 OFFCURVE",
"217 197 CURVE SMOOTH",
"236 230 OFFCURVE",
"258 265 OFFCURVE",
"277 298 CURVE",
"414 430 OFFCURVE",
"527 601 OFFCURVE",
"476 601 CURVE SMOOTH",
"443 601 OFFCURVE",
"336 452 OFFCURVE",
"239 282 CURVE",
"259 338 OFFCURVE",
"260 391 OFFCURVE",
"223 391 CURVE SMOOTH",
"175 391 OFFCURVE",
"95 329 OFFCURVE",
"37 226 CURVE SMOOTH",
"-29 108 OFFCURVE",
"-47 -1 OFFCURVE",
"-3 -1 CURVE SMOOTH",
"34 -1 OFFCURVE",
"96 47 OFFCURVE",
"154 120 CURVE",
"122 47 OFFCURVE",
"124 0 OFFCURVE",
"146 0 CURVE SMOOTH",
"242 0 OFFCURVE",
"439 245 OFFCURVE",
"386 245 CURVE"
);
},
{
closed = 1;
nodes = (
"497 588 OFFCURVE",
"405 442 OFFCURVE",
"284 318 CURVE",
"369 460 OFFCURVE",
"459 588 OFFCURVE",
"477 588 CURVE SMOOTH"
);
},
{
closed = 1;
nodes = (
"-20 12 OFFCURVE",
"-1 109 OFFCURVE",
"58 212 CURVE SMOOTH",
"115 311 OFFCURVE",
"188 381 OFFCURVE",
"222 381 CURVE SMOOTH",
"253 381 OFFCURVE",
"235 287 OFFCURVE",
"212 235 CURVE",
"200 211 OFFCURVE",
"184 181 OFFCURVE",
"169 156 CURVE",
"109 74 OFFCURVE",
"29 12 OFFCURVE",
"1 12 CURVE SMOOTH"
);
}
);
width = 370;
}
);
leftKerningGroup = o;
rightKerningGroup = l;
unicode = 0064;
},
{
glyphname = e;
lastChange = "2016-11-10 00:55:30 +0100";
layers = (
{
anchors = (
{
name = bottom;
position = "{165, 0}";
},
{
name = ogonek;
position = "{278, 10}";
},
{
name = top;
position = "{165, 390}";
}
);
layerId = "248CDC77-21EA-41B6-93B8-E98A9208AB16";
name = Regular;
paths = (
{
closed = 1;
nodes = (
"58 186 OFFCURVE",
"59 156 OFFCURVE",
"85 156 CURVE SMOOTH",
"184 156 OFFCURVE",
"322 394 OFFCURVE",
"229 394 CURVE SMOOTH",
"163 394 OFFCURVE",
"84 306 OFFCURVE",
"34 212 CURVE SMOOTH",
"-22 108 OFFCURVE",
"-44 -8 OFFCURVE",
"22 -8 CURVE SMOOTH",
"125 -8 OFFCURVE",
"268 199 OFFCURVE",
"221 199 CURVE",
"203 164 OFFCURVE",
"96 3 OFFCURVE",
"21 3 CURVE SMOOTH",
"-70 3 OFFCURVE",
"127 384 OFFCURVE",
"229 384 CURVE SMOOTH",
"285 384 OFFCURVE",
"151 170 OFFCURVE",
"85 170 CURVE SMOOTH",
"78 170 OFFCURVE",
"69 177 OFFCURVE",
"68 191 CURVE"
);
}
);
width = 250;
}
);
leftKerningGroup = o;
rightKerningGroup = c;
unicode = 0065;
},
{
glyphname = eogonek;
lastChange = "2016-11-10 01:39:01 +0100";
layers = (
{
anchors = (
{
name = ogonek;
position = "{266, 10}";
},
{
name = top;
position = "{153, 390}";
}
);
layerId = "248CDC77-21EA-41B6-93B8-E98A9208AB16";
name = Regular;
paths = (
{
closed = 1;
nodes = (
"104 1 OFFCURVE",
"90 -3 OFFCURVE",
"82 -7 CURVE SMOOTH",
"7 -42 OFFCURVE",
"-48 -149 OFFCURVE",
"15 -149 CURVE SMOOTH",
"52 -149 OFFCURVE",
"98 -80 OFFCURVE",
"76 -80 CURVE",
"64 -104 OFFCURVE",
"30 -138 OFFCURVE",
"10 -138 CURVE SMOOTH",
"-21 -138 OFFCURVE",
"34 -43 OFFCURVE",
"105 -4 CURVE"
);
},
{
closed = 1;
nodes = (
"57 186 OFFCURVE",
"58 156 OFFCURVE",
"84 156 CURVE SMOOTH",
"183 156 OFFCURVE",
"321 394 OFFCURVE",
"228 394 CURVE SMOOTH",
"162 394 OFFCURVE",
"83 306 OFFCURVE",
"33 212 CURVE SMOOTH",
"-23 108 OFFCURVE",
"-45 -8 OFFCURVE",
"21 -8 CURVE SMOOTH",
"124 -8 OFFCURVE",
"267 199 OFFCURVE",
"220 199 CURVE",
"202 164 OFFCURVE",
"95 3 OFFCURVE",
"20 3 CURVE SMOOTH",
"-71 3 OFFCURVE",
"126 384 OFFCURVE",
"228 384 CURVE SMOOTH",
"284 384 OFFCURVE",
"150 170 OFFCURVE",
"84 170 CURVE SMOOTH",
"77 170 OFFCURVE",
"68 177 OFFCURVE",
"67 191 CURVE"
);
}
);
width = 250;
}
);
leftKerningGroup = o;
rightKerningGroup = c;
unicode = 0119;
},
{
glyphname = f;
lastChange = "2016-09-22 09:21:31 +0200";
layers = (
{
layerId = "248CDC77-21EA-41B6-93B8-E98A9208AB16";
name = Regular;
paths = (
{
closed = 1;
nodes = (
"241 331 OFFCURVE",
"185 311 OFFCURVE",
"159 296 CURVE SMOOTH",
"151 292 OFFCURVE",
"151 287 OFFCURVE",
"155 287 CURVE",
"162 290 OFFCURVE",
"169 292 OFFCURVE",
"175 295 CURVE",
"163 127 OFFCURVE",
"-25 -181 OFFCURVE",
"-62 -181 CURVE SMOOTH",
"-92 -181 OFFCURVE",
"49 146 OFFCURVE",
"152 319 CURVE",
"248 386 OFFCURVE",
"391 600 OFFCURVE",
"331 600 CURVE SMOOTH",
"247 600 OFFCURVE",
"-165 -191 OFFCURVE",
"-61 -191 CURVE SMOOTH",
"-4 -191 OFFCURVE",
"193 140 OFFCURVE",
"184 297 CURVE",
"236 314 OFFCURVE",
"284 320 OFFCURVE",
"307 314 CURVE",
"310 317 OFFCURVE",
"315 331 OFFCURVE",
"278 331 CURVE SMOOTH"
);
},
{
closed = 1;
nodes = (
"350 592 OFFCURVE",
"303 470 OFFCURVE",
"159 332 CURVE",
"197 410 OFFCURVE",
"313 592 OFFCURVE",
"329 592 CURVE SMOOTH"
);
}
);
width = 253;
}
);
unicode = 0066;
},
{
glyphname = g;
lastChange = "2016-11-10 00:52:19 +0100";
layers = (
{
layerId = "248CDC77-21EA-41B6-93B8-E98A9208AB16";
name = Regular;
paths = (
{
closed = 1;
nodes = (
"308 382 OFFCURVE",
"282 328 OFFCURVE",
"247 258 CURVE",
"265 313 OFFCURVE",
"278 392 OFFCURVE",
"238 392 CURVE SMOOTH",
"190 392 OFFCURVE",
"108 313 OFFCURVE",
"50 210 CURVE",
"-3 118 OFFCURVE",
"-28 1 OFFCURVE",
"9 1 CURVE SMOOTH",
"50 1 OFFCURVE",
"154 88 OFFCURVE",
"189 146 CURVE",
"166 100 OFFCURVE",
"142 55 OFFCURVE",
"121 19 CURVE",
"-35 -53 OFFCURVE",
"-134 -238 OFFCURVE",
"-56 -238 CURVE SMOOTH",
"30 -238 OFFCURVE",
"271 248 OFFCURVE",
"323 360 CURVE SMOOTH",
"327 370 OFFCURVE",
"320 392 OFFCURVE",
"311 388 CURVE"
);
},
{
closed = 1;
nodes = (
"-100 -230 OFFCURVE",
"-28 -76 OFFCURVE",
"115 5 CURVE",
"113 1 OFFCURVE",
"-15 -230 OFFCURVE",
"-57 -230 CURVE SMOOTH"
);
},
{
closed = 1;
nodes = (
"-5 11 OFFCURVE",
"27 116 OFFCURVE",
"72 196 CURVE SMOOTH",
"130 297 OFFCURVE",
"204 382 OFFCURVE",
"237 382 CURVE SMOOTH",
"274 382 OFFCURVE",
"239 235 OFFCURVE",
"220 206 CURVE",
"220 206 OFFCURVE",
"221 206 OFFCURVE",
"221 206 CURVE",
"214 193 OFFCURVE",
"207 179 OFFCURVE",
"200 166 CURVE",
"139 90 OFFCURVE",
"35 11 OFFCURVE",
"16 11 CURVE SMOOTH"
);
}
);
width = 280;
}
);
unicode = 0067;
},
{
glyphname = h;
lastChange = "2016-11-10 01:44:09 +0100";
layers = (
{
anchors = (
{
name = center;
position = "{180, 195}";
},
{
name = top;
position = "{180, 390}";
}
);
layerId = "248CDC77-21EA-41B6-93B8-E98A9208AB16";
name = Regular;
paths = (
{
closed = 1;
nodes = (
"277 401 OFFCURVE",
"167 335 OFFCURVE",
"73 220 CURVE",
"96 262 OFFCURVE",
"121 299 OFFCURVE",
"144 338 CURVE",
"285 473 OFFCURVE",
"372 602 OFFCURVE",
"323 602 CURVE SMOOTH",
"255 602 OFFCURVE",
"25 201 OFFCURVE",
"-44 26 CURVE",
"-82 18 OFFCURVE",
"-114 6 OFFCURVE",
"-119 0 CURVE SMOOTH",
"-121 -2 OFFCURVE",
"-118 -6 OFFCURVE",
"-113 -6 CURVE",
"-52 17 OFFCURVE",
"31 16 OFFCURVE",
"40 12 CURVE",
"42 16 OFFCURVE",
"47 32 OFFCURVE",
"11 32 CURVE SMOOTH",
"1 32 OFFCURVE",
"-12 30 OFFCURVE",
"-22 29 CURVE",
"0 84 OFFCURVE",
"22 123 OFFCURVE",
"44 165 CURVE SMOOTH",
"140 290 OFFCURVE",
"271 384 OFFCURVE",
"296 384 CURVE SMOOTH",
"300 384 OFFCURVE",
"275 340 OFFCURVE",
"243 279 CURVE SMOOTH",
"183 165 OFFCURVE",
"87 0 OFFCURVE",
"144 0 CURVE SMOOTH",
"214 0 OFFCURVE",
"300 119 OFFCURVE",
"266 119 CURVE",
"221 47 OFFCURVE",
"167 11 OFFCURVE",
"146 11 CURVE SMOOTH",
"105 11 OFFCURVE",
"319 343 OFFCURVE",
"319 385 CURVE SMOOTH",
"319 393 OFFCURVE",
"313 401 OFFCURVE",
"301 401 CURVE SMOOTH"
);
},
{
closed = 1;
nodes = (
"342 592 OFFCURVE",
"269 477 OFFCURVE",
"153 364 CURVE",
"227 485 OFFCURVE",
"304 592 OFFCURVE",
"323 592 CURVE SMOOTH"
);
}
);
width = 330;
}
);
unicode = 0068;
},
{
glyphname = i;
lastChange = "2016-11-10 01:36:51 +0100";
layers = (
{
layerId = "248CDC77-21EA-41B6-93B8-E98A9208AB16";
name = Regular;
paths = (
{
closed = 1;
nodes = (
"150 371 OFFCURVE",
"81 270 OFFCURVE",
"43 197 CURVE SMOOTH",
"-10 97 OFFCURVE",
"-55 0 OFFCURVE",
"-14 0 CURVE SMOOTH",
"54 0 OFFCURVE",
"188 155 OFFCURVE",
"146 158 CURVE",
"111 94 OFFCURVE",
"12 10 OFFCURVE",
"-12 10 CURVE SMOOTH",
"-29 10 OFFCURVE",
"5 82 OFFCURVE",
"53 169 CURVE SMOOTH",
"91 238 OFFCURVE",
"163 352 OFFCURVE",
"168 362 CURVE SMOOTH",
"174 371 OFFCURVE",
"166 393 OFFCURVE",
"157 389 CURVE"
);
},
{
closed = 1;
nodes = (
"243 466 OFFCURVE",
"243 481 CURVE SMOOTH",
"243 491 OFFCURVE",
"239 499 OFFCURVE",
"228 499 CURVE SMOOTH",
"211 499 OFFCURVE",
"198 481 OFFCURVE",
"198 466 CURVE SMOOTH",
"198 454 OFFCURVE",
"204 446 OFFCURVE",
"214 446 CURVE SMOOTH",
"228 446 OFFCURVE"
);
}
);
width = 190;
}
);
unicode = 0069;
},
{
glyphname = j;
lastChange = "2016-11-10 01:37:13 +0100";
layers = (
{
layerId = "248CDC77-21EA-41B6-93B8-E98A9208AB16";
name = Regular;
paths = (
{
closed = 1;
nodes = (
"139 362 OFFCURVE",
"96 273 OFFCURVE",
"67 216 CURVE SMOOTH",
"-68 -50 OFFCURVE",
"-181 -232 OFFCURVE",
"-264 -232 CURVE SMOOTH",
"-338 -232 OFFCURVE",
"-261 -89 OFFCURVE",
"-196 -72 CURVE",
"-211 -83 OFFCURVE",
"-203 -99 OFFCURVE",
"-192 -99 CURVE SMOOTH",
"-172 -99 OFFCURVE",
"-163 -64 OFFCURVE",
"-187 -64 CURVE SMOOTH",
"-287 -64 OFFCURVE",
"-361 -241 OFFCURVE",
"-261 -241 CURVE SMOOTH",
"-148 -241 OFFCURVE",
"-6 25 OFFCURVE",
"88 208 CURVE SMOOTH",
"126 282 OFFCURVE",
"153 340 OFFCURVE",
"165 365 CURVE",
"168 381 OFFCURVE",
"157 397 OFFCURVE",
"151 390 CURVE"
);
},
{
closed = 1;
nodes = (
"221 466 OFFCURVE",
"221 481 CURVE SMOOTH",
"221 491 OFFCURVE",
"217 499 OFFCURVE",
"206 499 CURVE SMOOTH",
"189 499 OFFCURVE",
"176 481 OFFCURVE",
"176 466 CURVE SMOOTH",
"176 454 OFFCURVE",
"182 446 OFFCURVE",
"192 446 CURVE SMOOTH",
"206 446 OFFCURVE"
);
}
);
width = 120;
}
);
unicode = 006A;
},
{
glyphname = k;
lastChange = "2016-11-10 01:06:29 +0100";
layers = (
{
anchors = (
{
name = bottom;
position = "{177, 0}";
}
);
layerId = "248CDC77-21EA-41B6-93B8-E98A9208AB16";
name = Regular;
paths = (
{
closed = 1;
nodes = (
"276 398 OFFCURVE",
"137 281 OFFCURVE",
"46 161 CURVE",
"44 160 OFFCURVE",
"46 165 OFFCURVE",
"48 168 CURVE SMOOTH",
"144 344 OFFCURVE",
"258 520 OFFCURVE",
"305 576 CURVE",
"304 587 OFFCURVE",
"300 605 OFFCURVE",
"291 599 CURVE",
"266 575 OFFCURVE",
"77 299 OFFCURVE",
"-50 2 CURVE",
"-52 -4 OFFCURVE",
"-34 -5 OFFCURVE",
"-29 7 CURVE SMOOTH",
"-11 45 OFFCURVE",
"11 91 OFFCURVE",
"33 131 CURVE",
"73 177 OFFCURVE",
"177 249 OFFCURVE",
"191 249 CURVE SMOOTH",
"210 249 OFFCURVE",
"58 1 OFFCURVE",
"123 1 CURVE SMOOTH",
"182 1 OFFCURVE",
"327 170 OFFCURVE",
"280 170 CURVE",
"250 109 OFFCURVE",
"154 12 OFFCURVE",
"124 12 CURVE SMOOTH",
"97 12 OFFCURVE",
"247 264 OFFCURVE",
"199 264 CURVE SMOOTH",
"180 264 OFFCURVE",
"127 231 OFFCURVE",
"88 195 CURVE",
"164 285 OFFCURVE",
"274 370 OFFCURVE",
"324 381 CURVE",
"322 377 OFFCURVE",
"322 364 OFFCURVE",
"333 364 CURVE SMOOTH",
"353 364 OFFCURVE",
"364 398 OFFCURVE",
"342 398 CURVE SMOOTH"
);
}
);
width = 320;
}
);
unicode = 006B;
},
{
glyphname = l;
lastChange = "2016-11-10 01:20:37 +0100";
layers = (
{
anchors = (
{
name = bottom;
position = "{130, 0}";
},
{
name = top;
position = "{130, 390}";
},
{
name = topright;
position = "{240, 390}";
}
);
guideLines = (
{
angle = 60.9284;
position = "{120, 277}";
}
);
layerId = "248CDC77-21EA-41B6-93B8-E98A9208AB16";
name = Regular;
paths = (
{
closed = 1;
nodes = (
"152 137 OFFCURVE",
"24 9 OFFCURVE",
"-20 9 CURVE SMOOTH",
"-54 9 OFFCURVE",
"73 232 OFFCURVE",
"113 292 CURVE",
"250 423 OFFCURVE",
"366 600 OFFCURVE",
"315 600 CURVE SMOOTH",
"275 600 OFFCURVE",
"139 402 OFFCURVE",
"33 200 CURVE SMOOTH",
"-23 94 OFFCURVE",
"-63 -1 OFFCURVE",
"-22 -1 CURVE SMOOTH",
"71 -1 OFFCURVE",
"271 245 OFFCURVE",
"223 245 CURVE"
);
},
{
closed = 1;
nodes = (
"335 590 OFFCURVE",
"250 445 OFFCURVE",
"126 321 CURVE",
"211 463 OFFCURVE",
"297 590 OFFCURVE",
"315 590 CURVE SMOOTH"
);
}
);
width = 220;
}
);
leftKerningGroup = l;
rightKerningGroup = l;
unicode = 006C;
},
{
glyphname = lslash;
lastChange = "2016-11-10 01:13:11 +0100";
layers = (
{
layerId = "248CDC77-21EA-41B6-93B8-E98A9208AB16";
name = Regular;
paths = (
{
closed = 1;
nodes = (
"439 534 OFFCURVE",
"437 514 OFFCURVE",
"370 514 CURVE SMOOTH",
"314 514 OFFCURVE",
"271 519 OFFCURVE",
"217 519 CURVE SMOOTH",
"164 519 OFFCURVE",
"148 494 OFFCURVE",
"155 489 CURVE",
"165 500 OFFCURVE",
"191 505 OFFCURVE",
"218 505 CURVE SMOOTH",
"261 505 OFFCURVE",
"292 497 OFFCURVE",
"367 497 CURVE SMOOTH",
"429 497 OFFCURVE",
"444 522 OFFCURVE",
"444 531 CURVE SMOOTH",
"444 534 OFFCURVE",
"441 536 OFFCURVE",
"439 534 CURVE"
);
},
{
closed = 1;
nodes = (
"168 137 OFFCURVE",
"40 9 OFFCURVE",
"-4 9 CURVE SMOOTH",
"-38 9 OFFCURVE",
"68 203 OFFCURVE",
"108 263 CURVE",
"245 394 OFFCURVE",
"358 555 OFFCURVE",
"307 555 CURVE SMOOTH",
"268 555 OFFCURVE",
"149 399 OFFCURVE",
"43 197 CURVE SMOOTH",
"-13 91 OFFCURVE",
"-47 -1 OFFCURVE",
"-6 -1 CURVE SMOOTH",
"87 -1 OFFCURVE",
"287 245 OFFCURVE",
"239 245 CURVE"
);
},
{
closed = 1;
nodes = (
"327 545 OFFCURVE",
"240 409 OFFCURVE",
"116 285 CURVE",
"203 427 OFFCURVE",
"289 545 OFFCURVE",
"307 545 CURVE SMOOTH"
);
}
);
width = 240;
}
);
leftKerningGroup = l;
rightKerningGroup = l;
unicode = 0142;
},
{
glyphname = m;
lastChange = "2016-10-12 19:11:28 +0200";
layers = (
{
layerId = "248CDC77-21EA-41B6-93B8-E98A9208AB16";
name = Regular;
paths = (
{
closed = 1;
nodes = (
"389 47 OFFCURVE",
"333 11 OFFCURVE",
"312 11 CURVE SMOOTH",
"283 11 OFFCURVE",
"379 191 OFFCURVE",
"435 292 CURVE SMOOTH",
"455 328 OFFCURVE",
"481 371 OFFCURVE",
"447 371 CURVE SMOOTH",
"425 371 OFFCURVE",
"339 310 OFFCURVE",
"250 209 CURVE",
"294 292 OFFCURVE",
"337 373 OFFCURVE",
"337 392 CURVE SMOOTH",
"337 401 OFFCURVE",
"332 407 OFFCURVE",
"320 407 CURVE SMOOTH",
"293 407 OFFCURVE",
"182 316 OFFCURVE",
"77 178 CURVE",
"125 268 OFFCURVE",
"179 360 OFFCURVE",
"212 406 CURVE",
"212 406 OFFCURVE",
"210 438 OFFCURVE",
"195 427 CURVE",
"192 423 OFFCURVE",
"67 235 OFFCURVE",
"-17 25 CURVE",
"-42 20 OFFCURVE",
"-77 7 OFFCURVE",
"-81 1 CURVE SMOOTH",
"-83 -1 OFFCURVE",
"-80 -5 OFFCURVE",
"-76 -5 CURVE",
"-14 18 OFFCURVE",
"68 17 OFFCURVE",
"77 13 CURVE",
"79 17 OFFCURVE",
"84 33 OFFCURVE",
"54 33 CURVE SMOOTH",
"28 33 OFFCURVE",
"12 29 OFFCURVE",
"4 28 CURVE",
"13 51 OFFCURVE",
"27 80 OFFCURVE",
"40 107 CURVE",
"141 263 OFFCURVE",
"292 391 OFFCURVE",
"315 391 CURVE SMOOTH",
"322 391 OFFCURVE",
"277 311 OFFCURVE",
"210 166 CURVE",
"132 67 OFFCURVE",
"124 -4 OFFCURVE",
"156 13 CURVE",
"159 24 OFFCURVE",
"191 100 OFFCURVE",
"223 156 CURVE",
"306 268 OFFCURVE",
"417 348 OFFCURVE",
"439 349 CURVE",
"433 337 OFFCURVE",
"234 0 OFFCURVE",
"310 0 CURVE SMOOTH",
"385 0 OFFCURVE",
"467 118 OFFCURVE",
"433 118 CURVE"
);
}
);
width = 479;
}
);
unicode = 006D;
},
{
glyphname = n;
lastChange = "2016-10-12 19:11:37 +0200";
layers = (
{
anchors = (
{
name = bottom;
position = "{207, 0}";
},
{
name = top;
position = "{207, 390}";
}
);
layerId = "248CDC77-21EA-41B6-93B8-E98A9208AB16";
name = Regular;
paths = (
{
closed = 1;
nodes = (
"242 38 OFFCURVE",
"185 1 OFFCURVE",
"164 1 CURVE SMOOTH",
"123 1 OFFCURVE",
"331 341 OFFCURVE",
"331 382 CURVE SMOOTH",
"331 391 OFFCURVE",
"325 398 OFFCURVE",
"313 398 CURVE SMOOTH",
"286 398 OFFCURVE",
"175 307 OFFCURVE",
"70 169 CURVE",
"118 259 OFFCURVE",
"172 351 OFFCURVE",
"205 396 CURVE",
"205 396 OFFCURVE",
"203 429 OFFCURVE",
"188 417 CURVE",
"185 414 OFFCURVE",
"61 228 OFFCURVE",
"-23 17 CURVE",
"-50 12 OFFCURVE",
"-79 1 OFFCURVE",
"-85 -5 CURVE SMOOTH",
"-87 -7 OFFCURVE",
"-84 -11 OFFCURVE",
"-80 -11 CURVE",
"-18 12 OFFCURVE",
"64 8 OFFCURVE",
"73 4 CURVE",
"76 8 OFFCURVE",
"78 25 OFFCURVE",
"51 25 CURVE SMOOTH",
"26 25 OFFCURVE",
"8 22 OFFCURVE",
"-3 21 CURVE",
"8 46 OFFCURVE",
"22 75 OFFCURVE",
"38 106 CURVE",
"137 254 OFFCURVE",
"285 381 OFFCURVE",
"308 381 CURVE SMOOTH",
"311 381 OFFCURVE",
"294 346 OFFCURVE",
"263 285 CURVE SMOOTH",
"205 170 OFFCURVE",
"111 -9 OFFCURVE",
"162 -9 CURVE SMOOTH",
"237 -9 OFFCURVE",
"319 109 OFFCURVE",
"284 109 CURVE"
);
}
);
width = 344;
}
);
unicode = 006E;
},
{
glyphname = nacute;
lastChange = "2016-10-27 00:57:59 +0200";
layers = (
{
layerId = "248CDC77-21EA-41B6-93B8-E98A9208AB16";
name = Regular;
paths = (
{
closed = 1;
nodes = (
"301 402 OFFCURVE",
"175 297 OFFCURVE",
"64 143 CURVE SMOOTH",
"40 112 OFFCURVE",
"18 65 OFFCURVE",
"39 88 CURVE",
"139 245 OFFCURVE",
"300 385 OFFCURVE",
"324 385 CURVE SMOOTH",
"327 385 OFFCURVE",
"310 351 OFFCURVE",
"279 289 CURVE SMOOTH",
"219 175 OFFCURVE",
"127 -5 OFFCURVE",
"178 -5 CURVE SMOOTH",
"258 -5 OFFCURVE",
"335 113 OFFCURVE",
"300 113 CURVE",
"254 41 OFFCURVE",
"201 5 OFFCURVE",
"180 5 CURVE SMOOTH",
"139 5 OFFCURVE",
"347 345 OFFCURVE",
"347 387 CURVE SMOOTH",
"347 395 OFFCURVE",
"341 402 OFFCURVE",
"329 402 CURVE SMOOTH"
);
},
{
closed = 1;
nodes = (
"-8 27 OFFCURVE",
"-76 4 OFFCURVE",
"-82 -4 CURVE SMOOTH",
"-84 -7 OFFCURVE",
"-81 -10 OFFCURVE",
"-77 -10 CURVE",
"-15 13 OFFCURVE",
"67 12 OFFCURVE",
"76 8 CURVE",
"79 12 OFFCURVE",
"83 27 OFFCURVE",
"48 27 CURVE SMOOTH"
);
},
{
closed = 1;
nodes = (
"201 418 OFFCURVE",
"74 228 OFFCURVE",
"-10 14 CURVE",
"10 18 LINE",
"58 130 OFFCURVE",
"168 326 OFFCURVE",
"221 400 CURVE",
"221 400 OFFCURVE",
"219 432 OFFCURVE",
"205 421 CURVE"
);
},
{
closed = 1;
nodes = (
"312 479 OFFCURVE",
"285 447 OFFCURVE",
"267 427 CURVE",
"278 409 OFFCURVE",
"341 477 OFFCURVE",
"347 506 CURVE SMOOTH",
"350 518 OFFCURVE",
"342 527 OFFCURVE",
"336 525 CURVE"
);
}
);
width = 360;
}
);
leftMetricsKey = n;
rightMetricsKey = n;
unicode = 0144;
},
{
glyphname = o;
lastChange = "2016-10-12 20:24:13 +0200";
layers = (
{
anchors = (
{
name = top;
position = "{137, 390}";
}
);
layerId = "248CDC77-21EA-41B6-93B8-E98A9208AB16";
name = Regular;
paths = (
{
closed = 1;
nodes = (
"95 397 OFFCURVE",
"-94 -1 OFFCURVE",
"30 -1 CURVE SMOOTH",
"171 -1 OFFCURVE",
"367 397 OFFCURVE",
"239 397 CURVE SMOOTH"
);
},
{
closed = 1;
nodes = (
"-61 10 OFFCURVE",
"137 386 OFFCURVE",
"241 386 CURVE SMOOTH",
"335 386 OFFCURVE",
"132 10 OFFCURVE",
"32 10 CURVE SMOOTH"
);
}
);
width = 260;
}
);
leftKerningGroup = o;
rightKerningGroup = o;
unicode = 006F;
},
{
glyphname = oacute;
lastChange = "2016-10-27 00:58:27 +0200";
layers = (
{
layerId = "248CDC77-21EA-41B6-93B8-E98A9208AB16";
name = Regular;
paths = (
{
closed = 1;
nodes = (
"88 395 OFFCURVE",
"-94 -1 OFFCURVE",
"29 -1 CURVE SMOOTH",
"170 -1 OFFCURVE",
"352 395 OFFCURVE",
"232 395 CURVE SMOOTH"
);
},
{
closed = 1;
nodes = (
"-59 9 OFFCURVE",
"133 385 OFFCURVE",
"232 385 CURVE SMOOTH",
"320 385 OFFCURVE",
"130 9 OFFCURVE",
"29 9 CURVE SMOOTH"
);
},
{
closed = 1;
nodes = (
"282 479 OFFCURVE",
"255 447 OFFCURVE",
"237 427 CURVE",
"248 409 OFFCURVE",
"311 477 OFFCURVE",
"317 506 CURVE SMOOTH",
"320 518 OFFCURVE",
"312 527 OFFCURVE",
"306 525 CURVE"
);
}
);
width = 250;
}
);
unicode = 00F3;
},
{
glyphname = p;
lastChange = "2016-11-10 01:06:57 +0100";
layers = (
{
layerId = "248CDC77-21EA-41B6-93B8-E98A9208AB16";
name = Regular;
paths = (
{
closed = 1;
nodes = (
"232 391 OFFCURVE",
"171 339 OFFCURVE",
"122 280 CURVE",
"148 325 OFFCURVE",
"169 359 OFFCURVE",
"184 376 CURVE",
"189 391 OFFCURVE",
"160 388 OFFCURVE",
"147 370 CURVE SMOOTH",
"141 360 OFFCURVE",
"-47 49 OFFCURVE",
"-156 -240 CURVE",
"-160 -247 OFFCURVE",
"-144 -247 OFFCURVE",
"-138 -236 CURVE",
"-98 -137 OFFCURVE",
"5 67 OFFCURVE",
"87 217 CURVE",
"130 284 OFFCURVE",
"221 380 OFFCURVE",
"261 380 CURVE SMOOTH",
"290 380 OFFCURVE",
"271 272 OFFCURVE",
"213 173 CURVE SMOOTH",
"159 80 OFFCURVE",
"85 12 OFFCURVE",
"57 12 CURVE SMOOTH",
"27 12 OFFCURVE",
"111 174 OFFCURVE",
"209 210 CURVE",
"208 214 OFFCURVE",
"201 215 OFFCURVE",
"185 209 CURVE SMOOTH",
"91 167 OFFCURVE",
"-1 0 OFFCURVE",
"62 0 CURVE SMOOTH",
"100 0 OFFCURVE",
"185 75 OFFCURVE",
"231 152 CURVE SMOOTH",
"301 267 OFFCURVE",
"313 391 OFFCURVE",
"263 391 CURVE SMOOTH"
);
}
);
width = 280;
}
);
unicode = 0070;
},
{
glyphname = q;
lastChange = "2016-10-12 20:09:26 +0200";
layers = (
{
layerId = "248CDC77-21EA-41B6-93B8-E98A9208AB16";
name = Regular;
paths = (
{
closed = 1;
nodes = (
"316 368 OFFCURVE",
"293 329 OFFCURVE",
"259 268 CURVE",
"275 322 OFFCURVE",
"285 392 OFFCURVE",
"247 392 CURVE SMOOTH",
"199 392 OFFCURVE",
"117 312 OFFCURVE",
"58 209 CURVE SMOOTH",
"6 117 OFFCURVE",
"-20 0 OFFCURVE",
"18 0 CURVE SMOOTH",
"53 0 OFFCURVE",
"134 64 OFFCURVE",
"179 119 CURVE",
"124 11 OFFCURVE",
"62 -114 OFFCURVE",
"15 -239 CURVE",
"11 -246 OFFCURVE",
"27 -246 OFFCURVE",
"33 -234 CURVE",
"93 -87 OFFCURVE",
"295 305 OFFCURVE",
"355 378 CURVE",
"361 392 OFFCURVE",
"331 390 OFFCURVE",
"319 371 CURVE SMOOTH"
);
},
{
closed = 1;
nodes = (
"4 10 OFFCURVE",
"35 116 OFFCURVE",
"82 196 CURVE SMOOTH",
"139 296 OFFCURVE",
"212 381 OFFCURVE",
"246 381 CURVE SMOOTH",
"275 381 OFFCURVE",
"259 290 OFFCURVE",
"242 237 CURVE",
"227 210 OFFCURVE",
"212 181 OFFCURVE",
"195 148 CURVE",
"133 78 OFFCURVE",
"42 10 OFFCURVE",
"25 10 CURVE SMOOTH"
);
}
);
width = 284;
}
);
leftKerningGroup = o;
unicode = 0071;
},
{
glyphname = r;
lastChange = "2016-11-10 01:19:35 +0100";
layers = (
{
anchors = (
{
name = bottom;
position = "{135, 0}";
}
);
layerId = "248CDC77-21EA-41B6-93B8-E98A9208AB16";
name = Regular;
paths = (
{
closed = 1;
nodes = (
"240 238 OFFCURVE",
"209 191 OFFCURVE",
"192 191 CURVE",
"177 191 OFFCURVE",
"185 263 OFFCURVE",
"198 293 CURVE",
"297 384 OFFCURVE",
"341 463 OFFCURVE",
"303 463 CURVE SMOOTH",
"266 463 OFFCURVE",
"206 389 OFFCURVE",
"178 298 CURVE",
"145 265 OFFCURVE",
"86 211 OFFCURVE",
"44 144 CURVE",
"86 234 OFFCURVE",
"137 325 OFFCURVE",
"179 378 CURVE",
"186 389 OFFCURVE",
"162 394 OFFCURVE",
"147 376 CURVE",
"138 361 OFFCURVE",
"29 195 OFFCURVE",
"-25 24 CURVE SMOOTH",
"-57 17 OFFCURVE",
"-82 10 OFFCURVE",
"-85 5 CURVE SMOOTH",
"-87 3 OFFCURVE",
"-84 -1 OFFCURVE",
"-80 -1 CURVE",
"-24 15 OFFCURVE",
"55 20 OFFCURVE",
"73 13 CURVE",
"75 17 OFFCURVE",
"80 33 OFFCURVE",
"44 33 CURVE SMOOTH",
"27 33 OFFCURVE",
"9 31 OFFCURVE",
"-7 28 CURVE",
"3 54 OFFCURVE",
"11 70 OFFCURVE",
"23 95 CURVE",
"71 171 OFFCURVE",
"121 230 OFFCURVE",
"172 275 CURVE",
"165 254 OFFCURVE",
"160 181 OFFCURVE",
"191 181 CURVE SMOOTH",
"222 181 OFFCURVE",
"279 259 OFFCURVE",
"254 262 CURVE"
);
},
{
closed = 1;
nodes = (
"321 453 OFFCURVE",
"273 381 OFFCURVE",
"202 313 CURVE",
"238 402 OFFCURVE",
"288 453 OFFCURVE",
"303 453 CURVE SMOOTH"
);
}
);
width = 260;
}
);
unicode = 0072;
},
{
glyphname = s;
lastChange = "2016-11-10 01:42:22 +0100";
layers = (
{
layerId = "248CDC77-21EA-41B6-93B8-E98A9208AB16";
name = Regular;
paths = (
{
closed = 1;
nodes = (
"134 400 OFFCURVE",
"96 340 OFFCURVE",
"104 267 CURVE SMOOTH",
"108 228 OFFCURVE",
"122 177 OFFCURVE",
"124 141 CURVE SMOOTH",
"128 69 OFFCURVE",
"97 3 OFFCURVE",
"36 3 CURVE SMOOTH",
"10 3 OFFCURVE",
"-18 22 OFFCURVE",
"-18 67 CURVE",
"-18 135 OFFCURVE",
"45 185 OFFCURVE",
"88 185 CURVE",
"88 186 OFFCURVE",
"89 186 OFFCURVE",
"89 187 CURVE SMOOTH",
"89 191 OFFCURVE",
"80 195 OFFCURVE",
"70 195 CURVE SMOOTH",
"26 195 OFFCURVE",
"-38 141 OFFCURVE",
"-38 70 CURVE SMOOTH",
"-38 20 OFFCURVE",
"-1 -9 OFFCURVE",
"37 -9 CURVE SMOOTH",
"112 -9 OFFCURVE",
"150 63 OFFCURVE",
"147 139 CURVE SMOOTH",
"146 175 OFFCURVE",
"129 234 OFFCURVE",
"125 272 CURVE SMOOTH",
"116 348 OFFCURVE",
"157 389 OFFCURVE",
"204 389 CURVE SMOOTH",
"237 389 OFFCURVE",
"252 364 OFFCURVE",
"252 337 CURVE SMOOTH",
"252 305 OFFCURVE",
"228 263 OFFCURVE",
"195 257 CURVE",
"206 266 OFFCURVE",
"200 283 OFFCURVE",
"188 283 CURVE SMOOTH",
"176 283 OFFCURVE",
"169 274 OFFCURVE",
"169 264 CURVE SMOOTH",
"169 256 OFFCURVE",
"177 247 OFFCURVE",
"189 247 CURVE SMOOTH",
"231 247 OFFCURVE",
"272 294 OFFCURVE",
"272 336 CURVE SMOOTH",
"272 368 OFFCURVE",
"252 400 OFFCURVE",
"208 400 CURVE SMOOTH"
);
}
);
width = 240;
}
);
leftKerningGroup = s;
rightKerningGroup = s;
unicode = 0073;
},
{
glyphname = sacute;
lastChange = "2016-10-27 02:41:15 +0200";
layers = (
{
layerId = "248CDC77-21EA-41B6-93B8-E98A9208AB16";
name = Regular;
paths = (
{
closed = 1;
nodes = (
"183 397 OFFCURVE",
"134 353 OFFCURVE",
"137 269 CURVE SMOOTH",
"138 230 OFFCURVE",
"153 182 OFFCURVE",
"153 146 CURVE SMOOTH",
"155 74 OFFCURVE",
"122 1 OFFCURVE",
"50 1 CURVE SMOOTH",
"27 1 OFFCURVE",
"-7 22 OFFCURVE",
"-7 73 CURVE SMOOTH",
"-7 125 OFFCURVE",
"40 194 OFFCURVE",
"106 194 CURVE",
"106 195 OFFCURVE",
"107 195 OFFCURVE",
"107 196 CURVE SMOOTH",
"107 200 OFFCURVE",
"97 205 OFFCURVE",
"87 205 CURVE SMOOTH",
"26 205 OFFCURVE",
"-28 140 OFFCURVE",
"-28 79 CURVE SMOOTH",
"-28 17 OFFCURVE",
"13 -9 OFFCURVE",
"51 -9 CURVE SMOOTH",
"137 -9 OFFCURVE",
"178 67 OFFCURVE",
"177 145 CURVE",
"177 181 OFFCURVE",
"161 234 OFFCURVE",
"160 272 CURVE SMOOTH",
"157 348 OFFCURVE",
"201 387 OFFCURVE",
"244 387 CURVE SMOOTH",
"277 387 OFFCURVE",
"294 365 OFFCURVE",
"294 338 CURVE SMOOTH",
"294 306 OFFCURVE",
"271 265 OFFCURVE",
"233 254 CURVE",
"238 258 OFFCURVE",
"240 266 OFFCURVE",
"240 270 CURVE SMOOTH",
"240 277 OFFCURVE",
"234 282 OFFCURVE",
"228 282 CURVE SMOOTH",
"216 282 OFFCURVE",
"209 272 OFFCURVE",
"209 262 CURVE SMOOTH",
"209 254 OFFCURVE",
"215 244 OFFCURVE",
"227 244 CURVE SMOOTH",
"271 244 OFFCURVE",
"313 293 OFFCURVE",
"313 335 CURVE SMOOTH",
"313 368 OFFCURVE",
"288 397 OFFCURVE",
"244 397 CURVE SMOOTH"
);
},
{
closed = 1;
nodes = (
"305 479 OFFCURVE",
"278 447 OFFCURVE",
"260 427 CURVE",
"271 409 OFFCURVE",
"334 477 OFFCURVE",
"340 506 CURVE SMOOTH",
"343 518 OFFCURVE",
"335 527 OFFCURVE",
"329 525 CURVE"
);
}
);
width = 270;
}
);
leftMetricsKey = s;
unicode = 015B;
},
{
glyphname = t;
lastChange = "2016-10-27 01:54:52 +0200";
layers = (
{
anchors = (
{
name = bottom;
position = "{131, 0}";
},
{
name = center;
position = "{131, 195}";
}
);
layerId = "248CDC77-21EA-41B6-93B8-E98A9208AB16";
name = Regular;
paths = (
{
closed = 1;
nodes = (
"195 153 OFFCURVE",
"47 10 OFFCURVE",
"7 10 CURVE SMOOTH",
"-12 10 OFFCURVE",
"38 131 OFFCURVE",
"91 227 CURVE SMOOTH",
"98 238 OFFCURVE",
"104 249 OFFCURVE",
"110 260 CURVE",
"181 330 OFFCURVE",
"215 369 OFFCURVE",
"258 428 CURVE",
"278 429 OFFCURVE",
"314 431 OFFCURVE",
"357 432 CURVE",
"360 433 OFFCURVE",
"368 448 OFFCURVE",
"343 448 CURVE",
"329 448 OFFCURVE",
"288 446 OFFCURVE",
"266 445 CURVE",
"294 488 OFFCURVE",
"303 518 OFFCURVE",
"281 518 CURVE SMOOTH",
"264 518 OFFCURVE",
"231 489 OFFCURVE",
"194 440 CURVE",
"152 437 OFFCURVE",
"117 436 OFFCURVE",
"100 433 CURVE",
"94 432 OFFCURVE",
"86 421 OFFCURVE",
"95 421 CURVE",
"116 423 OFFCURVE",
"167 424 OFFCURVE",
"183 425 CURVE",
"146 374 OFFCURVE",
"127 344 OFFCURVE",
"86 267 CURVE SMOOTH",
"5 113 OFFCURVE",
"-34 0 OFFCURVE",
"1 0 CURVE SMOOTH",
"98 0 OFFCURVE",
"283 235 OFFCURVE",
"235 235 CURVE"
);
},
{
closed = 1;
nodes = (
"291 509 OFFCURVE",
"280 482 OFFCURVE",
"255 444 CURVE",
"243 443 OFFCURVE",
"233 443 OFFCURVE",
"221 442 CURVE",
"250 483 OFFCURVE",
"274 509 OFFCURVE",
"283 509 CURVE SMOOTH"
);
},
{
closed = 1;
nodes = (
"220 427 OFFCURVE",
"242 428 OFFCURVE",
"246 428 CURVE",
"210 378 OFFCURVE",
"176 342 OFFCURVE",
"114 277 CURVE",
"157 352 OFFCURVE",
"181 383 OFFCURVE",
"211 426 CURVE"
);
}
);
width = 261;
}
);
unicode = 0074;
},
{
glyphname = u;
lastChange = "2016-11-10 00:51:53 +0100";
layers = (
{
layerId = "248CDC77-21EA-41B6-93B8-E98A9208AB16";
name = Regular;
paths = (
{
closed = 1;
nodes = (
"235 96 OFFCURVE",
"161 2 OFFCURVE",
"128 2 CURVE SMOOTH",
"111 2 OFFCURVE",
"165 125 OFFCURVE",
"214 221 CURVE",
"243 270 OFFCURVE",
"288 335 OFFCURVE",
"292 367 CURVE SMOOTH",
"294 380 OFFCURVE",
"289 394 OFFCURVE",
"280 394 CURVE SMOOTH",
"271 394 OFFCURVE",
"227 292 OFFCURVE",
"184 206 CURVE",
"148 159 OFFCURVE",
"19 1 OFFCURVE",
"-23 1 CURVE SMOOTH",
"-61 1 OFFCURVE",
"212 409 OFFCURVE",
"129 394 CURVE",
"120 316 OFFCURVE",
"-97 -10 OFFCURVE",
"-27 -10 CURVE SMOOTH",
"27 -10 OFFCURVE",
"112 94 OFFCURVE",
"158 154 CURVE",
"132 100 OFFCURVE",
"89 -9 OFFCURVE",
"123 -9 CURVE SMOOTH",
"189 -9 OFFCURVE",
"278 116 OFFCURVE",
"244 116 CURVE"
);
}
);
width = 300;
}
);
unicode = 0075;
},
{
glyphname = v;
lastChange = "2016-10-15 01:41:16 +0200";
layers = (
{
layerId = "248CDC77-21EA-41B6-93B8-E98A9208AB16";
name = Regular;
paths = (
{
closed = 1;
nodes = (
"287 339 OFFCURVE",
"129 177 OFFCURVE",
"44 24 CURVE",
"69 125 OFFCURVE",
"116 258 OFFCURVE",
"179 381 CURVE",
"180 396 OFFCURVE",
"155 388 OFFCURVE",
"147 377 CURVE SMOOTH",
"147 377 OFFCURVE",
"60 219 OFFCURVE",
"22 20 CURVE",
"25 -2 OFFCURVE",
"39 -7 OFFCURVE",
"44 -1 CURVE",
"139 160 OFFCURVE",
"305 341 OFFCURVE",
"362 386 CURVE",
"362 386 OFFCURVE",
"356 398 OFFCURVE",
"343 387 CURVE SMOOTH"
);
}
);
width = 280;
}
);
unicode = 0076;
},
{
glyphname = w;
lastChange = "2016-10-12 21:58:19 +0200";
layers = (
{
anchors = (
{
name = top;
position = "{187, 390}";
}
);
layerId = "248CDC77-21EA-41B6-93B8-E98A9208AB16";
name = Regular;
paths = (
{
closed = 1;
nodes = (
"350 197 OFFCURVE",
"386 208 OFFCURVE",
"382 216 CURVE",
"366 216 OFFCURVE",
"347 240 OFFCURVE",
"343 271 CURVE",
"382 365 OFFCURVE",
"404 467 OFFCURVE",
"373 467 CURVE SMOOTH",
"335 467 OFFCURVE",
"305 344 OFFCURVE",
"325 268 CURVE",
"257 123 OFFCURVE",
"151 2 OFFCURVE",
"123 2 CURVE SMOOTH",
"76 2 OFFCURVE",
"175 251 OFFCURVE",
"213 292 CURVE",
"213 301 OFFCURVE",
"195 301 OFFCURVE",
"182 286 CURVE",
"123 219 OFFCURVE",
"23 117 OFFCURVE",
"-28 18 CURVE SMOOTH",
"-29 16 OFFCURVE",
"-31 13 OFFCURVE",
"-31 15 CURVE",
"29 153 OFFCURVE",
"123 315 OFFCURVE",
"170 373 CURVE",
"171 386 OFFCURVE",
"164 405 OFFCURVE",
"153 393 CURVE SMOOTH",
"153 393 OFFCURVE",
"23 208 OFFCURVE",
"-46 13 CURVE",
"-63 9 OFFCURVE",
"-91 1 OFFCURVE",
"-95 -4 CURVE SMOOTH",
"-98 -6 OFFCURVE",
"-94 -11 OFFCURVE",
"-90 -11 CURVE",
"-41 6 OFFCURVE",
"44 9 OFFCURVE",
"55 2 CURVE",
"57 6 OFFCURVE",
"61 22 OFFCURVE",
"25 22 CURVE SMOOTH",
"12 22 OFFCURVE",
"-3 20 OFFCURVE",
"-16 18 CURVE",
"33 103 OFFCURVE",
"93 166 OFFCURVE",
"159 240 CURVE",
"118 151 OFFCURVE",
"64 -9 OFFCURVE",
"121 -9 CURVE SMOOTH",
"173 -9 OFFCURVE",
"277 128 OFFCURVE",
"333 248 CURVE"
);
},
{
closed = 1;
nodes = (
"386 457 OFFCURVE",
"372 380 OFFCURVE",
"338 292 CURVE",
"328 358 OFFCURVE",
"354 457 OFFCURVE",
"371 457 CURVE SMOOTH"
);
}
);
width = 374;
}
);
unicode = 0077;
},
{
glyphname = x;
lastChange = "2016-10-27 02:01:30 +0200";
layers = (
{
layerId = "248CDC77-21EA-41B6-93B8-E98A9208AB16";
name = Regular;
paths = (
{
closed = 1;
nodes = (
"307 391 OFFCURVE",
"303 405 OFFCURVE",
"286 395 CURVE",
"273 385 OFFCURVE",
"201 313 OFFCURVE",
"134 236 CURVE",
"136 309 OFFCURVE",
"138 374 OFFCURVE",
"138 385 CURVE SMOOTH",
"139 410 OFFCURVE",
"106 385 OFFCURVE",
"106 385 CURVE",
"108 206 LINE",
"40 127 OFFCURVE",
"-27 39 OFFCURVE",
"-42 0 CURVE",
"-45 -8 OFFCURVE",
"-36 -14 OFFCURVE",
"-33 -9 CURVE",
"-18 23 OFFCURVE",
"43 106 OFFCURVE",
"109 182 CURVE",
"110 3 LINE",
"110 3 OFFCURVE",
"130 -14 OFFCURVE",
"130 4 CURVE",
"130 18 OFFCURVE",
"133 117 OFFCURVE",
"135 210 CURVE",
"201 286 OFFCURVE",
"275 364 OFFCURVE",
"307 391 CURVE"
);
}
);
width = 226;
}
);
unicode = 0078;
},
{
glyphname = y;
lastChange = "2016-10-12 20:14:29 +0200";
layers = (
{
layerId = "248CDC77-21EA-41B6-93B8-E98A9208AB16";
name = Regular;
paths = (
{
closed = 1;
nodes = (
"295 392 OFFCURVE",
"256 293 OFFCURVE",
"213 207 CURVE",
"178 162 OFFCURVE",
"34 10 OFFCURVE",
"-2 10 CURVE SMOOTH",
"-40 10 OFFCURVE",
"231 407 OFFCURVE",
"148 391 CURVE",
"139 313 OFFCURVE",
"-77 0 OFFCURVE",
"-7 0 CURVE SMOOTH",
"56 0 OFFCURVE",
"172 139 OFFCURVE",
"199 176 CURVE",
"193 160 OFFCURVE",
"119 26 OFFCURVE",
"68 -54 CURVE SMOOTH",
"-8 -169 OFFCURVE",
"-77 -236 OFFCURVE",
"-125 -236 CURVE SMOOTH",
"-207 -236 OFFCURVE",
"-152 -77 OFFCURVE",
"-52 -40 CURVE",
"-62 -48 OFFCURVE",
"-63 -67 OFFCURVE",
"-49 -67 CURVE SMOOTH",
"-27 -67 OFFCURVE",
"-15 -32 OFFCURVE",
"-40 -32 CURVE SMOOTH",
"-152 -32 OFFCURVE",
"-243 -244 OFFCURVE",
"-123 -244 CURVE SMOOTH",
"-55 -244 OFFCURVE",
"5 -173 OFFCURVE",
"83 -64 CURVE SMOOTH",
"155 40 OFFCURVE",
"304 331 OFFCURVE",
"317 370 CURVE",
"316 384 OFFCURVE",
"310 392 OFFCURVE",
"304 392 CURVE SMOOTH"
);
}
);
width = 275;
}
);
unicode = 0079;
},
{
glyphname = z;
lastChange = "2016-11-10 01:38:34 +0100";
layers = (
{
layerId = "248CDC77-21EA-41B6-93B8-E98A9208AB16";
name = Regular;
paths = (
{
closed = 1;
nodes = (
"276 390 OFFCURVE",
"253 359 OFFCURVE",
"224 320 CURVE",
"202 305 OFFCURVE",
"181 295 OFFCURVE",
"171 295 CURVE SMOOTH",
"150 295 OFFCURVE",
"224 416 OFFCURVE",
"170 416 CURVE SMOOTH",
"92 416 OFFCURVE",
"16 242 OFFCURVE",
"44 242 CURVE",
"51 270 OFFCURVE",
"126 406 OFFCURVE",
"170 406 CURVE SMOOTH",
"187 406 OFFCURVE",
"120 284 OFFCURVE",
"167 284 CURVE SMOOTH",
"179 284 OFFCURVE",
"194 291 OFFCURVE",
"208 297 CURVE",
"183 262 OFFCURVE",
"150 218 OFFCURVE",
"120 177 CURVE",
"9 138 OFFCURVE",
"-81 -11 OFFCURVE",
"-26 -11 CURVE SMOOTH",
"2 -11 OFFCURVE",
"57 79 OFFCURVE",
"127 169 CURVE",
"138 174 OFFCURVE",
"149 176 OFFCURVE",
"158 176 CURVE SMOOTH",
"182 176 OFFCURVE",
"67 -8 OFFCURVE",
"135 -8 CURVE SMOOTH",
"182 -8 OFFCURVE",
"257 106 OFFCURVE",
"227 106 CURVE",
"216 82 OFFCURVE",
"159 0 OFFCURVE",
"135 0 CURVE SMOOTH",
"100 0 OFFCURVE",
"225 188 OFFCURVE",
"160 188 CURVE SMOOTH",
"153 188 OFFCURVE",
"144 185 OFFCURVE",
"137 183 CURVE",
"165 218 OFFCURVE",
"204 271 OFFCURVE",
"228 305 CURVE SMOOTH",
"277 335 OFFCURVE",
"315 390 OFFCURVE",
"290 390 CURVE SMOOTH"
);
},
{
closed = 1;
nodes = (
"-48 -2 OFFCURVE",
"35 122 OFFCURVE",
"110 163 CURVE",
"51 86 OFFCURVE",
"-9 -2 OFFCURVE",
"-26 -2 CURVE SMOOTH"
);
}
);
width = 290;
}
);
unicode = 007A;
},
{
glyphname = zacute;
lastChange = "2016-10-27 02:08:36 +0200";
layers = (
{
layerId = "248CDC77-21EA-41B6-93B8-E98A9208AB16";
name = Regular;
paths = (
{
closed = 1;
nodes = (
"280 479 OFFCURVE",
"253 447 OFFCURVE",
"235 427 CURVE",
"246 409 OFFCURVE",
"309 477 OFFCURVE",
"315 506 CURVE SMOOTH",
"318 518 OFFCURVE",
"310 527 OFFCURVE",
"304 525 CURVE"
);
},
{
closed = 1;
nodes = (
"276 390 OFFCURVE",
"253 359 OFFCURVE",
"224 320 CURVE",
"202 305 OFFCURVE",
"181 295 OFFCURVE",
"171 295 CURVE SMOOTH",
"150 295 OFFCURVE",
"224 416 OFFCURVE",
"170 416 CURVE SMOOTH",
"92 416 OFFCURVE",
"5 242 OFFCURVE",
"44 242 CURVE",
"51 270 OFFCURVE",
"126 406 OFFCURVE",
"170 406 CURVE SMOOTH",
"187 406 OFFCURVE",
"120 284 OFFCURVE",
"167 284 CURVE SMOOTH",
"179 284 OFFCURVE",
"194 291 OFFCURVE",
"208 297 CURVE",
"183 262 OFFCURVE",
"150 218 OFFCURVE",
"120 177 CURVE",
"9 138 OFFCURVE",
"-81 -11 OFFCURVE",
"-26 -11 CURVE SMOOTH",
"2 -11 OFFCURVE",
"57 79 OFFCURVE",
"127 169 CURVE",
"138 174 OFFCURVE",
"149 176 OFFCURVE",
"158 176 CURVE SMOOTH",
"182 176 OFFCURVE",
"67 -8 OFFCURVE",
"135 -8 CURVE SMOOTH",
"186 -8 OFFCURVE",
"263 106 OFFCURVE",
"227 106 CURVE",
"216 82 OFFCURVE",
"159 0 OFFCURVE",
"135 0 CURVE SMOOTH",
"100 0 OFFCURVE",
"225 188 OFFCURVE",
"160 188 CURVE SMOOTH",
"153 188 OFFCURVE",
"144 185 OFFCURVE",
"137 183 CURVE",
"165 218 OFFCURVE",
"204 271 OFFCURVE",
"228 305 CURVE SMOOTH",
"277 335 OFFCURVE",
"315 390 OFFCURVE",
"290 390 CURVE SMOOTH"
);
},
{
closed = 1;
nodes = (
"-48 -2 OFFCURVE",
"35 122 OFFCURVE",
"110 163 CURVE",
"51 86 OFFCURVE",
"-9 -2 OFFCURVE",
"-26 -2 CURVE SMOOTH"
);
}
);
width = 300;
}
);
leftMetricsKey = z;
rightMetricsKey = z;
unicode = 017A;
},
{
glyphname = zdotaccent;
lastChange = "2016-10-27 02:08:24 +0200";
layers = (
{
layerId = "248CDC77-21EA-41B6-93B8-E98A9208AB16";
name = Regular;
paths = (
{
closed = 1;
nodes = (
"271 443 OFFCURVE",
"286 463 OFFCURVE",
"286 478 CURVE SMOOTH",
"286 488 OFFCURVE",
"282 496 OFFCURVE",
"271 496 CURVE SMOOTH",
"254 496 OFFCURVE",
"241 478 OFFCURVE",
"241 463 CURVE SMOOTH",
"241 451 OFFCURVE",
"247 443 OFFCURVE",
"257 443 CURVE SMOOTH"
);
},
{
closed = 1;
nodes = (
"276 390 OFFCURVE",
"253 359 OFFCURVE",
"224 320 CURVE",
"202 305 OFFCURVE",
"181 295 OFFCURVE",
"171 295 CURVE SMOOTH",
"150 295 OFFCURVE",
"224 416 OFFCURVE",
"170 416 CURVE SMOOTH",
"92 416 OFFCURVE",
"5 242 OFFCURVE",
"44 242 CURVE",
"51 270 OFFCURVE",
"126 406 OFFCURVE",
"170 406 CURVE SMOOTH",
"187 406 OFFCURVE",
"120 284 OFFCURVE",
"167 284 CURVE SMOOTH",
"179 284 OFFCURVE",
"194 291 OFFCURVE",
"208 297 CURVE",
"183 262 OFFCURVE",
"150 218 OFFCURVE",
"120 177 CURVE",
"9 138 OFFCURVE",
"-81 -11 OFFCURVE",
"-26 -11 CURVE SMOOTH",
"2 -11 OFFCURVE",
"57 79 OFFCURVE",
"127 169 CURVE",
"138 174 OFFCURVE",
"149 176 OFFCURVE",
"158 176 CURVE SMOOTH",
"182 176 OFFCURVE",
"67 -8 OFFCURVE",
"135 -8 CURVE SMOOTH",
"186 -8 OFFCURVE",
"263 106 OFFCURVE",
"227 106 CURVE",
"216 82 OFFCURVE",
"159 0 OFFCURVE",
"135 0 CURVE SMOOTH",
"100 0 OFFCURVE",
"225 188 OFFCURVE",
"160 188 CURVE SMOOTH",
"153 188 OFFCURVE",
"144 185 OFFCURVE",
"137 183 CURVE",
"165 218 OFFCURVE",
"204 271 OFFCURVE",
"228 305 CURVE SMOOTH",
"277 335 OFFCURVE",
"315 390 OFFCURVE",
"290 390 CURVE SMOOTH"
);
},
{
closed = 1;
nodes = (
"-48 -2 OFFCURVE",
"35 122 OFFCURVE",
"110 163 CURVE",
"51 86 OFFCURVE",
"-9 -2 OFFCURVE",
"-26 -2 CURVE SMOOTH"
);
}
);
width = 300;
}
);
leftMetricsKey = z;
rightMetricsKey = z;
unicode = 017C;
},
{
glyphname = zero;
lastChange = "2016-10-08 02:32:38 +0200";
layers = (
{
layerId = "248CDC77-21EA-41B6-93B8-E98A9208AB16";
name = Regular;
paths = (
{
closed = 1;
nodes = (
"199 502 OFFCURVE",
"41 271 OFFCURVE",
"41 120 CURVE SMOOTH",
"41 48 OFFCURVE",
"75 -8 OFFCURVE",
"151 -8 CURVE SMOOTH",
"316 -8 OFFCURVE",
"477 224 OFFCURVE",
"477 375 CURVE SMOOTH",
"477 446 OFFCURVE",
"442 502 OFFCURVE",
"366 502 CURVE SMOOTH"
);
},
{
closed = 1;
nodes = (
"90 5 OFFCURVE",
"64 58 OFFCURVE",
"64 117 CURVE SMOOTH",
"64 259 OFFCURVE",
"226 487 OFFCURVE",
"370 487 CURVE SMOOTH",
"429 487 OFFCURVE",
"456 442 OFFCURVE",
"456 384 CURVE SMOOTH",
"456 242 OFFCURVE",
"296 5 OFFCURVE",
"153 5 CURVE SMOOTH"
);
}
);
width = 444;
}
);
unicode = 0030;
},
{
glyphname = one;
lastChange = "2016-10-08 03:44:48 +0200";
layers = (
{
layerId = "248CDC77-21EA-41B6-93B8-E98A9208AB16";
name = Regular;
paths = (
{
closed = 1;
nodes = (
"440 502 OFFCURVE",
"412 479 OFFCURVE",
"412 479 CURVE SMOOTH",
"412 479 OFFCURVE",
"390 454 OFFCURVE",
"335 367 CURVE",
"257 295 OFFCURVE",
"127 198 OFFCURVE",
"33 181 CURVE",
"23 176 OFFCURVE",
"40 164 OFFCURVE",
"52 164 CURVE SMOOTH",
"109 164 OFFCURVE",
"231 250 OFFCURVE",
"307 318 CURVE",
"263 246 OFFCURVE",
"190 145 OFFCURVE",
"160 44 CURVE SMOOTH",
"157 33 OFFCURVE",
"159 10 OFFCURVE",
"170 18 CURVE",
"210 147 OFFCURVE",
"315 286 OFFCURVE",
"365 371 CURVE",
"426 439 OFFCURVE",
"477 502 OFFCURVE",
"457 502 CURVE SMOOTH"
);
},
{
closed = 1;
nodes = (
"153 27 OFFCURVE",
"72 -2 OFFCURVE",
"59 -12 CURVE SMOOTH",
"52 -17 OFFCURVE",
"51 -24 OFFCURVE",
"57 -24 CURVE",
"177 17 OFFCURVE",
"276 6 OFFCURVE",
"289 0 CURVE",
"294 6 OFFCURVE",
"296 27 OFFCURVE",
"240 27 CURVE SMOOTH"
);
}
);
width = 381;
}
);
unicode = 0031;
},
{
glyphname = two;
lastChange = "2016-10-08 02:41:44 +0200";
layers = (
{
layerId = "248CDC77-21EA-41B6-93B8-E98A9208AB16";
name = Regular;
paths = (
{
closed = 1;
nodes = (
"213 496 OFFCURVE",
"97 388 OFFCURVE",
"97 292 CURVE SMOOTH",
"97 273 OFFCURVE",
"103 225 OFFCURVE",
"160 225 CURVE SMOOTH",
"247 225 OFFCURVE",
"319 299 OFFCURVE",
"319 341 CURVE SMOOTH",
"319 348 OFFCURVE",
"318 352 OFFCURVE",
"315 356 CURVE SMOOTH",
"312 359 OFFCURVE",
"308 360 OFFCURVE",
"303 361 CURVE",
"297 304 OFFCURVE",
"221 240 OFFCURVE",
"161 240 CURVE SMOOTH",
"145 240 OFFCURVE",
"133 244 OFFCURVE",
"125 252 CURVE SMOOTH",
"118 259 OFFCURVE",
"114 270 OFFCURVE",
"114 283 CURVE SMOOTH",
"114 372 OFFCURVE",
"234 483 OFFCURVE",
"367 483 CURVE SMOOTH",
"435 483 OFFCURVE",
"478 452 OFFCURVE",
"478 391 CURVE SMOOTH",
"478 240 OFFCURVE",
"72 102 OFFCURVE",
"31 6 CURVE",
"47 11 LINE",
"133 112 OFFCURVE",
"498 214 OFFCURVE",
"498 391 CURVE SMOOTH",
"498 453 OFFCURVE",
"450 496 OFFCURVE",
"365 496 CURVE SMOOTH"
);
},
{
closed = 1;
nodes = (
"163 38 OFFCURVE",
"45 16 OFFCURVE",
"18 1 CURVE SMOOTH",
"7 -5 OFFCURVE",
"12 -10 OFFCURVE",
"14 -10 CURVE",
"173 29 OFFCURVE",
"303 18 OFFCURVE",
"317 9 CURVE",
"321 15 OFFCURVE",
"317 38 OFFCURVE",
"249 38 CURVE SMOOTH"
);
}
);
width = 453;
}
);
unicode = 0032;
},
{
glyphname = three;
lastChange = "2016-10-08 00:16:13 +0200";
layers = (
{
layerId = "248CDC77-21EA-41B6-93B8-E98A9208AB16";
name = Regular;
paths = (
{
closed = 1;
nodes = (
"428 476 LINE",
"236 342 LINE",
"167 313 OFFCURVE",
"145 292 OFFCURVE",
"145 292 CURVE SMOOTH",
"145 292 OFFCURVE",
"138 276 OFFCURVE",
"163 276 CURVE SMOOTH",
"172 276 OFFCURVE",
"207 300 OFFCURVE",
"248 331 CURVE",
"332 364 OFFCURVE",
"380 315 OFFCURVE",
"380 259 CURVE SMOOTH",
"380 156 OFFCURVE",
"277 1 OFFCURVE",
"143 1 CURVE SMOOTH",
"21 1 OFFCURVE",
"28 160 OFFCURVE",
"96 183 CURVE",
"89 207 OFFCURVE",
"22 177 OFFCURVE",
"22 93 CURVE SMOOTH",
"22 38 OFFCURVE",
"68 -10 OFFCURVE",
"137 -10 CURVE SMOOTH",
"304 -10 OFFCURVE",
"404 151 OFFCURVE",
"404 260 CURVE SMOOTH",
"403 314 OFFCURVE",
"360 372 OFFCURVE",
"269 351 CURVE",
"353 401 OFFCURVE",
"456 479 OFFCURVE",
"456 479 CURVE"
);
},
{
closed = 1;
nodes = (
"354 463 OFFCURVE",
"189 492 OFFCURVE",
"176 499 CURVE",
"171 493 OFFCURVE",
"165 474 OFFCURVE",
"225 467 CURVE SMOOTH",
"410 446 OFFCURVE",
"482 484 OFFCURVE",
"497 491 CURVE SMOOTH",
"509 497 OFFCURVE",
"514 505 OFFCURVE",
"508 505 CURVE"
);
}
);
width = 407;
}
);
unicode = 0033;
},
{
glyphname = four;
lastChange = "2016-10-08 03:44:21 +0200";
layers = (
{
layerId = "248CDC77-21EA-41B6-93B8-E98A9208AB16";
name = Regular;
paths = (
{
closed = 1;
nodes = (
"236 461 OFFCURVE",
"172 301 OFFCURVE",
"15 134 CURVE SMOOTH",
"15 134 OFFCURVE",
"5 129 OFFCURVE",
"2 126 CURVE",
"-4 121 OFFCURVE",
"-1 113 OFFCURVE",
"3 115 CURVE SMOOTH",
"91 151 OFFCURVE",
"208 154 OFFCURVE",
"219 154 CURVE",
"209 137 OFFCURVE",
"161 9 OFFCURVE",
"176 11 CURVE SMOOTH",
"185 12 LINE",
"194 53 OFFCURVE",
"220 121 OFFCURVE",
"241 155 CURVE",
"253 156 OFFCURVE",
"299 156 OFFCURVE",
"313 153 CURVE",
"322 161 OFFCURVE",
"319 180 OFFCURVE",
"251 175 CURVE",
"275 231 OFFCURVE",
"343 334 OFFCURVE",
"373 364 CURVE",
"376 377 OFFCURVE",
"349 370 OFFCURVE",
"342 361 CURVE SMOOTH",
"293 304 OFFCURVE",
"241 201 OFFCURVE",
"228 173 CURVE",
"228 173 OFFCURVE",
"128 173 OFFCURVE",
"42 141 CURVE",
"172 265 OFFCURVE",
"251 435 OFFCURVE",
"260 467 CURVE SMOOTH",
"270 502 OFFCURVE",
"255 518 OFFCURVE",
"252 508 CURVE SMOOTH"
);
},
{
closed = 1;
nodes = (
"137 26 OFFCURVE",
"63 12 OFFCURVE",
"21 0 CURVE",
"6 -8 OFFCURVE",
"9 -14 OFFCURVE",
"13 -13 CURVE SMOOTH",
"139 13 OFFCURVE",
"265 7 OFFCURVE",
"278 -2 CURVE SMOOTH",
"283 4 OFFCURVE",
"283 26 OFFCURVE",
"223 26 CURVE"
);
}
);
width = 400;
}
);
unicode = 0034;
},
{
glyphname = five;
lastChange = "2016-10-08 03:39:02 +0200";
layers = (
{
layerId = "248CDC77-21EA-41B6-93B8-E98A9208AB16";
name = Regular;
paths = (
{
closed = 1;
nodes = (
"256 377 OFFCURVE",
"204 360 OFFCURVE",
"165 326 CURVE",
"203 379 OFFCURVE",
"244 458 OFFCURVE",
"246 468 CURVE",
"243 468 OFFCURVE",
"234 467 OFFCURVE",
"226 459 CURVE",
"218 441 OFFCURVE",
"173 366 OFFCURVE",
"140 319 CURVE",
"130 309 OFFCURVE",
"112 288 OFFCURVE",
"110 287 CURVE SMOOTH",
"106 283 OFFCURVE",
"102 257 OFFCURVE",
"116 257 CURVE SMOOTH",
"120 257 OFFCURVE",
"125 263 OFFCURVE",
"148 294 CURVE",
"172 317 OFFCURVE",
"231 363 OFFCURVE",
"285 363 CURVE SMOOTH",
"342 363 OFFCURVE",
"367 327 OFFCURVE",
"367 268 CURVE SMOOTH",
"367 160 OFFCURVE",
"267 4 OFFCURVE",
"127 4 CURVE SMOOTH",
"79 4 OFFCURVE",
"48 33 OFFCURVE",
"48 72 CURVE SMOOTH",
"48 122 OFFCURVE",
"96 182 OFFCURVE",
"169 182 CURVE",
"175 197 OFFCURVE",
"160 200 OFFCURVE",
"149 200 CURVE SMOOTH",
"93 200 OFFCURVE",
"33 147 OFFCURVE",
"33 78 CURVE SMOOTH",
"33 38 OFFCURVE",
"61 -8 OFFCURVE",
"129 -8 CURVE SMOOTH",
"285 -8 OFFCURVE",
"391 150 OFFCURVE",
"391 266 CURVE SMOOTH",
"391 325 OFFCURVE",
"371 377 OFFCURVE",
"288 377 CURVE SMOOTH"
);
},
{
closed = 1;
nodes = (
"174 480 OFFCURVE",
"174 478 OFFCURVE",
"174 476 CURVE SMOOTH",
"174 469 OFFCURVE",
"180 461 OFFCURVE",
"194 457 CURVE",
"211 455 OFFCURVE",
"242 451 OFFCURVE",
"267 451 CURVE SMOOTH",
"392 451 OFFCURVE",
"502 470 OFFCURVE",
"502 487 CURVE SMOOTH",
"502 488 OFFCURVE",
"502 489 OFFCURVE",
"501 490 CURVE",
"460 482 OFFCURVE",
"386 472 OFFCURVE",
"320 472 CURVE SMOOTH",
"248 472 OFFCURVE",
"206 476 OFFCURVE",
"176 481 CURVE"
);
}
);
width = 418;
}
);
unicode = 0035;
},
{
glyphname = six;
lastChange = "2016-10-08 03:45:08 +0200";
layers = (
{
layerId = "248CDC77-21EA-41B6-93B8-E98A9208AB16";
name = Regular;
paths = (
{
closed = 1;
nodes = (
"496 400 OFFCURVE",
"496 418 CURVE SMOOTH",
"496 450 OFFCURVE",
"478 499 OFFCURVE",
"395 499 CURVE SMOOTH",
"231 499 OFFCURVE",
"73 316 OFFCURVE",
"73 127 CURVE SMOOTH",
"73 53 OFFCURVE",
"109 -9 OFFCURVE",
"187 -9 CURVE SMOOTH",
"325 -9 OFFCURVE",
"415 134 OFFCURVE",
"415 240 CURVE SMOOTH",
"415 271 OFFCURVE",
"405 355 OFFCURVE",
"310 355 CURVE SMOOTH",
"208 355 OFFCURVE",
"146 254 OFFCURVE",
"146 221 CURVE SMOOTH",
"146 210 OFFCURVE",
"153 207 OFFCURVE",
"159 208 CURVE",
"169 262 OFFCURVE",
"240 342 OFFCURVE",
"315 342 CURVE SMOOTH",
"369 342 OFFCURVE",
"391 296 OFFCURVE",
"391 242 CURVE SMOOTH",
"391 138 OFFCURVE",
"300 2 OFFCURVE",
"187 2 CURVE SMOOTH",
"134 2 OFFCURVE",
"96 50 OFFCURVE",
"96 125 CURVE SMOOTH",
"96 323 OFFCURVE",
"273 486 OFFCURVE",
"400 486 CURVE SMOOTH",
"472 486 OFFCURVE",
"489 427 OFFCURVE",
"476 396 CURVE",
"486 388 OFFCURVE"
);
}
);
width = 453;
}
);
unicode = 0036;
},
{
glyphname = seven;
lastChange = "2016-10-12 20:48:45 +0200";
layers = (
{
layerId = "248CDC77-21EA-41B6-93B8-E98A9208AB16";
name = Regular;
paths = (
{
closed = 1;
nodes = (
"502 473 OFFCURVE",
"504 477 OFFCURVE",
"504 481 CURVE SMOOTH",
"504 491 OFFCURVE",
"496 494 OFFCURVE",
"496 494 CURVE SMOOTH",
"496 494 OFFCURVE",
"221 349 OFFCURVE",
"58 27 CURVE",
"51 13 OFFCURVE",
"54 -3 OFFCURVE",
"63 2 CURVE",
"216 308 OFFCURVE",
"480 451 OFFCURVE",
"497 468 CURVE SMOOTH"
);
},
{
closed = 1;
nodes = (
"214 279 OFFCURVE",
"136 284 CURVE",
"118 284 OFFCURVE",
"107 265 OFFCURVE",
"120 265 CURVE",
"178 263 OFFCURVE",
"290 262 OFFCURVE",
"344 270 CURVE",
"356 272 OFFCURVE",
"361 278 OFFCURVE",
"361 281 CURVE SMOOTH",
"361 283 OFFCURVE",
"360 284 OFFCURVE",
"360 284 CURVE",
"309 280 OFFCURVE"
);
},
{
closed = 1;
nodes = (
"441 478 OFFCURVE",
"343 465 OFFCURVE",
"294 465 CURVE SMOOTH",
"203 465 OFFCURVE",
"165 480 OFFCURVE",
"157 485 CURVE",
"155 483 OFFCURVE",
"153 479 OFFCURVE",
"153 474 CURVE SMOOTH",
"153 452 OFFCURVE",
"219 444 OFFCURVE",
"273 444 CURVE SMOOTH",
"383 444 OFFCURVE",
"469 476 OFFCURVE",
"490 483 CURVE SMOOTH",
"493 484 OFFCURVE",
"497 488 OFFCURVE",
"497 491 CURVE",
"497 491 OFFCURVE",
"496 494 OFFCURVE",
"496 494 CURVE SMOOTH"
);
}
);
width = 400;
}
);
unicode = 0037;
},
{
glyphname = eight;
lastChange = "2016-10-08 02:42:47 +0200";
layers = (
{
layerId = "248CDC77-21EA-41B6-93B8-E98A9208AB16";
name = Regular;
paths = (
{
closed = 1;
nodes = (
"246 504 OFFCURVE",
"177 446 OFFCURVE",
"177 386 CURVE SMOOTH",
"177 347 OFFCURVE",
"208 307 OFFCURVE",
"256 293 CURVE",
"105 274 OFFCURVE",
"28 179 OFFCURVE",
"28 102 CURVE SMOOTH",
"28 45 OFFCURVE",
"70 -11 OFFCURVE",
"183 -11 CURVE SMOOTH",
"325 -11 OFFCURVE",
"403 77 OFFCURVE",
"403 161 CURVE SMOOTH",
"403 200 OFFCURVE",
"373 260 OFFCURVE",
"299 291 CURVE",
"420 316 OFFCURVE",
"466 379 OFFCURVE",
"466 422 CURVE SMOOTH",
"466 467 OFFCURVE",
"427 504 OFFCURVE",
"350 504 CURVE SMOOTH"
);
},
{
closed = 1;
nodes = (
"92 2 OFFCURVE",
"50 52 OFFCURVE",
"50 105 CURVE SMOOTH",
"50 178 OFFCURVE",
"124 260 OFFCURVE",
"271 282 CURVE",
"343 253 OFFCURVE",
"378 201 OFFCURVE",
"378 158 CURVE SMOOTH",
"378 73 OFFCURVE",
"288 2 OFFCURVE",
"182 2 CURVE SMOOTH"
);
},
{
closed = 1;
nodes = (
"216 329 OFFCURVE",
"201 362 OFFCURVE",
"201 393 CURVE SMOOTH",
"201 449 OFFCURVE",
"279 493 OFFCURVE",
"347 493 CURVE SMOOTH",
"404 493 OFFCURVE",
"448 469 OFFCURVE",
"448 424 CURVE SMOOTH",
"448 378 OFFCURVE",
"397 326 OFFCURVE",
"282 301 CURVE"
);
}
);
width = 447;
}
);
unicode = 0038;
},
{
glyphname = nine;
lastChange = "2016-10-08 02:31:46 +0200";
layers = (
{
layerId = "248CDC77-21EA-41B6-93B8-E98A9208AB16";
name = Regular;
paths = (
{
closed = 1;
nodes = (
"199 501 OFFCURVE",
"105 351 OFFCURVE",
"105 244 CURVE SMOOTH",
"105 187 OFFCURVE",
"135 130 OFFCURVE",
"209 130 CURVE SMOOTH",
"292 130 OFFCURVE",
"365 202 OFFCURVE",
"402 256 CURVE",
"376 153 OFFCURVE",
"260 2 OFFCURVE",
"153 2 CURVE SMOOTH",
"99 2 OFFCURVE",
"76 50 OFFCURVE",
"76 86 CURVE SMOOTH",
"76 99 OFFCURVE",
"78 111 OFFCURVE",
"83 119 CURVE",
"80 120 OFFCURVE",
"77 121 OFFCURVE",
"75 121 CURVE SMOOTH",
"62 121 OFFCURVE",
"54 105 OFFCURVE",
"54 84 CURVE SMOOTH",
"54 47 OFFCURVE",
"82 -9 OFFCURVE",
"156 -9 CURVE SMOOTH",
"320 -9 OFFCURVE",
"453 229 OFFCURVE",
"453 388 CURVE SMOOTH",
"453 456 OFFCURVE",
"409 501 OFFCURVE",
"347 501 CURVE SMOOTH"
);
},
{
closed = 1;
nodes = (
"378 234 OFFCURVE",
"296 143 OFFCURVE",
"209 143 CURVE",
"155 143 OFFCURVE",
"128 188 OFFCURVE",
"128 243 CURVE SMOOTH",
"128 342 OFFCURVE",
"231 488 OFFCURVE",
"343 488 CURVE SMOOTH",
"397 488 OFFCURVE",
"430 451 OFFCURVE",
"430 389 CURVE SMOOTH",
"430 350 OFFCURVE",
"423 313 OFFCURVE",
"415 293 CURVE"
);
}
);
width = 432;
}
);
unicode = 0039;
},
{
glyphname = asterisk;
lastChange = "2016-10-08 04:42:23 +0200";
layers = (
{
layerId = "248CDC77-21EA-41B6-93B8-E98A9208AB16";
name = Regular;
paths = (
{
closed = 1;
nodes = (
"361 529 OFFCURVE",
"335 530 OFFCURVE",
"292 520 CURVE",
"307 547 OFFCURVE",
"323 570 OFFCURVE",
"337 585 CURVE",
"342 594 OFFCURVE",
"323 592 OFFCURVE",
"323 592 CURVE SMOOTH",
"323 592 OFFCURVE",
"303 567 OFFCURVE",
"279 522 CURVE",
"265 548 OFFCURVE",
"256 566 OFFCURVE",
"249 584 CURVE",
"244 592 OFFCURVE",
"236 575 OFFCURVE",
"236 575 CURVE SMOOTH",
"236 575 OFFCURVE",
"244 555 OFFCURVE",
"268 516 CURVE",
"247 511 OFFCURVE",
"234 508 OFFCURVE",
"209 500 CURVE SMOOTH",
"203 498 OFFCURVE",
"209 493 OFFCURVE",
"213 491 CURVE",
"236 498 OFFCURVE",
"248 501 OFFCURVE",
"270 506 CURVE",
"260 484 OFFCURVE",
"253 468 OFFCURVE",
"243 440 CURVE SMOOTH",
"241 435 OFFCURVE",
"246 436 OFFCURVE",
"251 439 CURVE",
"261 463 OFFCURVE",
"269 478 OFFCURVE",
"280 499 CURVE",
"292 481 OFFCURVE",
"305 464 OFFCURVE",
"323 443 CURVE SMOOTH",
"327 439 OFFCURVE",
"329 443 OFFCURVE",
"329 449 CURVE",
"311 472 OFFCURVE",
"299 487 OFFCURVE",
"288 508 CURVE",
"326 514 OFFCURVE",
"347 517 OFFCURVE",
"371 515 CURVE",
"376 519 OFFCURVE",
"367 529 OFFCURVE",
"364 529 CURVE SMOOTH"
);
}
);
width = 200;
}
);
unicode = 002A;
},
{
glyphname = backslash;
lastChange = "2016-10-08 04:43:08 +0200";
layers = (
{
layerId = "248CDC77-21EA-41B6-93B8-E98A9208AB16";
name = Regular;
paths = (
{
closed = 1;
nodes = (
"106 473 OFFCURVE",
"143 261 OFFCURVE",
"131 -22 CURVE",
"131 -34 OFFCURVE",
"124 -45 OFFCURVE",
"121 -38 CURVE",
"114 23 OFFCURVE",
"126 292 OFFCURVE",
"71 485 CURVE",
"71 493 OFFCURVE",
"83 496 OFFCURVE",
"98 481 CURVE SMOOTH"
);
}
);
width = 260;
}
);
unicode = 005C;
},
{
glyphname = colon;
lastChange = "2016-10-08 05:06:06 +0200";
layers = (
{
layerId = "248CDC77-21EA-41B6-93B8-E98A9208AB16";
name = Regular;
paths = (
{
closed = 1;
nodes = (
"0 80 OFFCURVE",
"-7 77 OFFCURVE",
"-13 67 CURVE SMOOTH",
"-22 50 OFFCURVE",
"-26 37 OFFCURVE",
"-17 37 CURVE SMOOTH",
"0 37 OFFCURVE",
"27 80 OFFCURVE",
"6 80 CURVE SMOOTH"
);
},
{
closed = 1;
nodes = (
"149 341 OFFCURVE",
"142 338 OFFCURVE",
"137 328 CURVE SMOOTH",
"128 311 OFFCURVE",
"123 298 OFFCURVE",
"132 298 CURVE SMOOTH",
"149 298 OFFCURVE",
"176 341 OFFCURVE",
"155 341 CURVE SMOOTH"
);
}
);
width = 150;
}
);
unicode = 003A;
},
{
glyphname = comma;
lastChange = "2016-11-10 01:29:39 +0100";
layers = (
{
layerId = "248CDC77-21EA-41B6-93B8-E98A9208AB16";
name = Regular;
paths = (
{
closed = 1;
nodes = (
"6 85 OFFCURVE",
"12 80 OFFCURVE",
"11 67 CURVE SMOOTH",
"7 10 OFFCURVE",
"-88 -81 OFFCURVE",
"-101 -61 CURVE",
"-58 -28 OFFCURVE",
"-17 29 OFFCURVE",
"-3 85 CURVE"
);
}
);
width = 120;
}
);
unicode = 002C;
},
{
glyphname = exclam;
lastChange = "2016-10-27 01:27:13 +0200";
layers = (
{
layerId = "248CDC77-21EA-41B6-93B8-E98A9208AB16";
name = Regular;
paths = (
{
closed = 1;
nodes = (
"296 562 OFFCURVE",
"157 338 OFFCURVE",
"53 140 CURVE",
"46 125 OFFCURVE",
"53 114 OFFCURVE",
"60 123 CURVE",
"135 247 OFFCURVE",
"225 403 OFFCURVE",
"318 548 CURVE SMOOTH",
"326 562 OFFCURVE",
"310 585 OFFCURVE",
"302 571 CURVE"
);
},
{
closed = 1;
nodes = (
"16 10 OFFCURVE",
"16 22 CURVE SMOOTH",
"16 30 OFFCURVE",
"12 36 OFFCURVE",
"4 36 CURVE SMOOTH",
"-10 36 OFFCURVE",
"-20 22 OFFCURVE",
"-20 10 CURVE SMOOTH",
"-20 0 OFFCURVE",
"-16 -6 OFFCURVE",
"-8 -6 CURVE SMOOTH",
"4 -6 OFFCURVE"
);
}
);
width = 180;
}
);
unicode = 0021;
},
{
glyphname = numbersign;
lastChange = "2016-10-08 05:05:12 +0200";
layers = (
{
layerId = "248CDC77-21EA-41B6-93B8-E98A9208AB16";
name = Regular;
paths = (
{
closed = 1;
nodes = (
"167 326 OFFCURVE",
"149 327 OFFCURVE",
"138 317 CURVE SMOOTH",
"133 311 OFFCURVE",
"62 202 OFFCURVE",
"15 92 CURVE SMOOTH",
"14 89 OFFCURVE",
"18 79 OFFCURVE",
"22 85 CURVE",
"70 170 OFFCURVE",
"125 259 OFFCURVE",
"161 317 CURVE"
);
},
{
closed = 1;
nodes = (
"0 162 OFFCURVE",
"-12 146 OFFCURVE",
"-1 146 CURVE",
"75 155 OFFCURVE",
"115 158 OFFCURVE",
"213 154 CURVE",
"221 155 OFFCURVE",
"224 162 OFFCURVE",
"220 163 CURVE SMOOTH",
"95 176 OFFCURVE",
"18 164 OFFCURVE",
"11 163 CURVE SMOOTH"
);
},
{
closed = 1;
nodes = (
"243 314 OFFCURVE",
"226 316 OFFCURVE",
"215 305 CURVE SMOOTH",
"210 300 OFFCURVE",
"149 220 OFFCURVE",
"97 89 CURVE SMOOTH",
"96 86 OFFCURVE",
"100 76 OFFCURVE",
"105 82 CURVE",
"152 170 OFFCURVE",
"190 233 OFFCURVE",
"238 306 CURVE"
);
},
{
closed = 1;
nodes = (
"11 236 OFFCURVE",
"5 225 OFFCURVE",
"16 226 CURVE",
"116 235 OFFCURVE",
"160 236 OFFCURVE",
"258 232 CURVE",
"266 233 OFFCURVE",
"269 240 OFFCURVE",
"265 241 CURVE SMOOTH",
"131 255 OFFCURVE",
"39 242 OFFCURVE",
"24 241 CURVE"
);
}
);
width = 240;
}
);
unicode = 0023;
},
{
glyphname = period;
lastChange = "2016-11-10 01:28:10 +0100";
layers = (
{
layerId = "248CDC77-21EA-41B6-93B8-E98A9208AB16";
name = Regular;
paths = (
{
closed = 1;
nodes = (
"-19 43 OFFCURVE",
"-26 40 OFFCURVE",
"-32 30 CURVE SMOOTH",
"-41 13 OFFCURVE",
"-45 0 OFFCURVE",
"-36 0 CURVE SMOOTH",
"-19 0 OFFCURVE",
"8 43 OFFCURVE",
"-13 43 CURVE SMOOTH"
);
}
);
width = 120;
}
);
unicode = 002E;
},
{
glyphname = question;
lastChange = "2016-10-27 01:26:16 +0200";
layers = (
{
layerId = "248CDC77-21EA-41B6-93B8-E98A9208AB16";
name = Regular;
paths = (
{
closed = 1;
nodes = (
"61 318 OFFCURVE",
"161 575 OFFCURVE",
"351 575 CURVE SMOOTH",
"426 575 OFFCURVE",
"463 531 OFFCURVE",
"463 474 CURVE SMOOTH",
"463 328 OFFCURVE",
"198 212 OFFCURVE",
"150 115 CURVE",
"146 114 OFFCURVE",
"143 117 OFFCURVE",
"143 121 CURVE SMOOTH",
"143 198 OFFCURVE",
"434 339 OFFCURVE",
"438 476 CURVE SMOOTH",
"440 539 OFFCURVE",
"396 564 OFFCURVE",
"349 564 CURVE SMOOTH",
"197 564 OFFCURVE",
"97 328 OFFCURVE",
"198 328 CURVE SMOOTH",
"264 328 OFFCURVE",
"317 421 OFFCURVE",
"314 457 CURVE",
"358 457 OFFCURVE",
"303 318 OFFCURVE",
"201 318 CURVE SMOOTH"
);
},
{
closed = 1;
nodes = (
"135 10 OFFCURVE",
"135 22 CURVE SMOOTH",
"135 30 OFFCURVE",
"131 36 OFFCURVE",
"123 36 CURVE SMOOTH",
"109 36 OFFCURVE",
"99 22 OFFCURVE",
"99 10 CURVE SMOOTH",
"99 0 OFFCURVE",
"103 -6 OFFCURVE",
"111 -6 CURVE SMOOTH",
"123 -6 OFFCURVE"
);
}
);
width = 330;
}
);
unicode = 003F;
},
{
glyphname = quotesingle;
lastChange = "2016-10-16 15:16:47 +0200";
layers = (
{
layerId = "248CDC77-21EA-41B6-93B8-E98A9208AB16";
name = Regular;
paths = (
{
closed = 1;
nodes = (
"248 582 OFFCURVE",
"257 578 OFFCURVE",
"255 565 CURVE",
"250 531 OFFCURVE",
"167 431 OFFCURVE",
"151 431 CURVE SMOOTH",
"148 431 OFFCURVE",
"146 433 OFFCURVE",
"146 434 CURVE",
"180 469 OFFCURVE",
"228 538 OFFCURVE",
"244 580 CURVE"
);
}
);
width = 80;
}
);
unicode = 0027;
},
{
glyphname = semicolon;
lastChange = "2016-10-08 05:05:50 +0200";
layers = (
{
layerId = "248CDC77-21EA-41B6-93B8-E98A9208AB16";
name = Regular;
paths = (
{
closed = 1;
nodes = (
"147 338 OFFCURVE",
"140 335 OFFCURVE",
"135 325 CURVE SMOOTH",
"126 308 OFFCURVE",
"121 295 OFFCURVE",
"130 295 CURVE SMOOTH",
"147 295 OFFCURVE",
"174 338 OFFCURVE",
"153 338 CURVE SMOOTH"
);
},
{
closed = 1;
nodes = (
"-11 46 OFFCURVE",
"-3 41 OFFCURVE",
"-6 28 CURVE SMOOTH",
"-12 -5 OFFCURVE",
"-77 -89 OFFCURVE",
"-90 -78 CURVE",
"-62 -42 OFFCURVE",
"-36 -4 OFFCURVE",
"-20 46 CURVE"
);
}
);
width = 150;
}
);
unicode = 003B;
},
{
glyphname = slash;
lastChange = "2016-10-08 05:09:27 +0200";
layers = (
{
layerId = "248CDC77-21EA-41B6-93B8-E98A9208AB16";
name = Regular;
paths = (
{
closed = 1;
nodes = (
"302 473 OFFCURVE",
"104 262 OFFCURVE",
"-48 -21 CURVE SMOOTH",
"-52 -27 OFFCURVE",
"-47 -41 OFFCURVE",
"-42 -34 CURVE",
"39 117 OFFCURVE",
"238 381 OFFCURVE",
"343 487 CURVE SMOOTH",
"355 499 OFFCURVE",
"324 499 OFFCURVE",
"309 481 CURVE SMOOTH"
);
}
);
width = 200;
}
);
unicode = 002F;
},
{
glyphname = underscore;
lastChange = "2016-10-08 05:11:17 +0200";
layers = (
{
layerId = "248CDC77-21EA-41B6-93B8-E98A9208AB16";
name = Regular;
paths = (
{
closed = 1;
nodes = (
"-62 0 OFFCURVE",
"1 22 OFFCURVE",
"126 22 CURVE SMOOTH",
"166 22 OFFCURVE",
"164 4 OFFCURVE",
"161 0 CURVE",
"105 9 OFFCURVE",
"-31 -4 OFFCURVE",
"-70 -11 CURVE",
"-76 -10 OFFCURVE",
"-72 -3 OFFCURVE",
"-67 -1 CURVE"
);
}
);
width = 300;
}
);
unicode = 005F;
},
{
glyphname = parenleft;
lastChange = "2016-10-08 05:19:57 +0200";
layers = (
{
layerId = "248CDC77-21EA-41B6-93B8-E98A9208AB16";
name = Regular;
paths = (
{
closed = 1;
nodes = (
"267 671 OFFCURVE",
"-12 369 OFFCURVE",
"-12 64 CURVE SMOOTH",
"-12 -35 OFFCURVE",
"38 -92 OFFCURVE",
"72 -98 CURVE",
"75 -101 OFFCURVE",
"72 -105 OFFCURVE",
"65 -105 CURVE SMOOTH",
"28 -105 OFFCURVE",
"-29 -45 OFFCURVE",
"-29 70 CURVE SMOOTH",
"-29 368 OFFCURVE",
"244 682 OFFCURVE",
"435 682 CURVE SMOOTH",
"449 682 OFFCURVE",
"449 672 OFFCURVE",
"444 671 CURVE"
);
}
);
width = 150;
}
);
unicode = 0028;
},
{
glyphname = parenright;
lastChange = "2016-10-27 01:37:57 +0200";
layers = (
{
layerId = "248CDC77-21EA-41B6-93B8-E98A9208AB16";
name = Regular;
paths = (
{
closed = 1;
nodes = (
"-26 -97 OFFCURVE",
"235 253 OFFCURVE",
"235 523 CURVE SMOOTH",
"235 612 OFFCURVE",
"214 659 OFFCURVE",
"185 672 CURVE",
"180 674 OFFCURVE",
"178 681 OFFCURVE",
"186 681 CURVE SMOOTH",
"225 681 OFFCURVE",
"256 612 OFFCURVE",
"256 513 CURVE SMOOTH",
"256 257 OFFCURVE",
"-6 -119 OFFCURVE",
"-179 -119 CURVE SMOOTH",
"-192 -119 OFFCURVE",
"-192 -112 OFFCURVE",
"-187 -111 CURVE"
);
}
);
width = 180;
}
);
unicode = 0029;
},
{
glyphname = emdash;
lastChange = "2016-10-15 16:01:53 +0200";
layers = (
{
layerId = "248CDC77-21EA-41B6-93B8-E98A9208AB16";
name = Regular;
paths = (
{
closed = 1;
nodes = (
"39 236 OFFCURVE",
"156 250 OFFCURVE",
"281 250 CURVE SMOOTH",
"311 250 OFFCURVE",
"317 231 OFFCURVE",
"308 227 CURVE",
"243 231 OFFCURVE",
"80 225 OFFCURVE",
"40 222 CURVE",
"29 223 OFFCURVE",
"24 232 OFFCURVE",
"31 234 CURVE"
);
}
);
width = 300;
}
);
unicode = 2014;
},
{
glyphname = endash;
lastChange = "2016-10-15 16:04:48 +0200";
layers = (
{
layerId = "248CDC77-21EA-41B6-93B8-E98A9208AB16";
name = Regular;
paths = (
{
closed = 1;
nodes = (
"60 240 OFFCURVE",
"128 249 OFFCURVE",
"190 249 CURVE",
"229 249 OFFCURVE",
"224 232 OFFCURVE",
"221 228 CURVE",
"156 232 OFFCURVE",
"97 228 OFFCURVE",
"56 226 CURVE",
"49 227 OFFCURVE",
"43 233 OFFCURVE",
"47 236 CURVE"
);
}
);
width = 230;
}
);
unicode = 2013;
},
{
glyphname = hyphen;
lastChange = "2016-10-15 16:03:03 +0200";
layers = (
{
layerId = "248CDC77-21EA-41B6-93B8-E98A9208AB16";
name = Regular;
paths = (
{
closed = 1;
nodes = (
"48 242 OFFCURVE",
"94 247 OFFCURVE",
"129 247 CURVE SMOOTH",
"168 247 OFFCURVE",
"163 232 OFFCURVE",
"160 228 CURVE",
"95 228 OFFCURVE",
"85 229 OFFCURVE",
"44 227 CURVE",
"37 228 OFFCURVE",
"31 235 OFFCURVE",
"35 238 CURVE"
);
}
);
width = 151;
}
);
unicode = 002D;
},
{
glyphname = guillemotleft;
lastChange = "2016-10-16 13:58:01 +0200";
layers = (
{
layerId = "248CDC77-21EA-41B6-93B8-E98A9208AB16";
name = Regular;
paths = (
{
closed = 1;
nodes = (
"213 312 OFFCURVE",
"144 281 OFFCURVE",
"100 243 CURVE",
"96 239 OFFCURVE",
"94 228 OFFCURVE",
"100 226 CURVE SMOOTH",
"148 206 OFFCURVE",
"192 186 OFFCURVE",
"235 160 CURVE",
"242 160 OFFCURVE",
"241 168 OFFCURVE",
"235 172 CURVE SMOOTH",
"209 193 OFFCURVE",
"149 224 OFFCURVE",
"117 237 CURVE SMOOTH",
"157 266 OFFCURVE",
"209 285 OFFCURVE",
"237 297 CURVE",
"243 302 OFFCURVE",
"235 312 OFFCURVE",
"222 312 CURVE SMOOTH"
);
},
{
closed = 1;
nodes = (
"117 311 OFFCURVE",
"58 275 OFFCURVE",
"14 237 CURVE",
"10 233 OFFCURVE",
"6 220 OFFCURVE",
"13 219 CURVE SMOOTH",
"63 204 OFFCURVE",
"108 184 OFFCURVE",
"153 158 CURVE",
"161 158 OFFCURVE",
"160 166 OFFCURVE",
"155 171 CURVE",
"134 184 OFFCURVE",
"62 222 OFFCURVE",
"31 230 CURVE",
"71 259 OFFCURVE",
"114 284 OFFCURVE",
"141 296 CURVE",
"148 300 OFFCURVE",
"139 311 OFFCURVE",
"126 311 CURVE SMOOTH"
);
}
);
width = 250;
}
);
unicode = 00AB;
},
{
glyphname = guillemotright;
lastChange = "2016-10-16 13:58:07 +0200";
layers = (
{
layerId = "248CDC77-21EA-41B6-93B8-E98A9208AB16";
name = Regular;
paths = (
{
closed = 1;
nodes = (
"77 328 OFFCURVE",
"154 297 OFFCURVE",
"199 259 CURVE",
"202 255 OFFCURVE",
"205 244 OFFCURVE",
"199 242 CURVE SMOOTH",
"150 221 OFFCURVE",
"110 203 OFFCURVE",
"67 178 CURVE",
"60 177 OFFCURVE",
"54 181 OFFCURVE",
"60 186 CURVE SMOOTH",
"86 206 OFFCURVE",
"149 240 OFFCURVE",
"182 252 CURVE",
"141 281 OFFCURVE",
"99 295 OFFCURVE",
"71 307 CURVE",
"65 312 OFFCURVE",
"55 328 OFFCURVE",
"68 328 CURVE SMOOTH"
);
},
{
closed = 1;
nodes = (
"173 327 OFFCURVE",
"240 290 OFFCURVE",
"284 253 CURVE",
"288 249 OFFCURVE",
"292 236 OFFCURVE",
"286 234 CURVE",
"235 220 OFFCURVE",
"194 201 OFFCURVE",
"149 176 CURVE",
"141 176 OFFCURVE",
"134 179 OFFCURVE",
"140 184 CURVE",
"160 197 OFFCURVE",
"236 238 OFFCURVE",
"268 246 CURVE",
"227 275 OFFCURVE",
"195 294 OFFCURVE",
"167 306 CURVE",
"161 310 OFFCURVE",
"151 326 OFFCURVE",
"164 327 CURVE SMOOTH"
);
}
);
width = 250;
}
);
unicode = 00BB;
},
{
glyphname = guilsinglleft;
lastChange = "2016-10-15 16:42:26 +0200";
layers = (
{
layerId = "248CDC77-21EA-41B6-93B8-E98A9208AB16";
name = Regular;
paths = (
{
closed = 1;
nodes = (
"227 314 OFFCURVE",
"68 254 OFFCURVE",
"19 209 CURVE",
"14 205 OFFCURVE",
"12 192 OFFCURVE",
"19 190 CURVE SMOOTH",
"64 178 OFFCURVE",
"135 150 OFFCURVE",
"176 128 CURVE",
"185 127 OFFCURVE",
"181 140 OFFCURVE",
"175 144 CURVE SMOOTH",
"146 164 OFFCURVE",
"72 193 OFFCURVE",
"38 202 CURVE",
"83 235 OFFCURVE",
"203 279 OFFCURVE",
"234 288 CURVE",
"240 293 OFFCURVE",
"250 314 OFFCURVE",
"235 314 CURVE SMOOTH"
);
}
);
width = 245;
}
);
unicode = 2039;
},
{
glyphname = guilsinglright;
lastChange = "2016-10-08 05:28:34 +0200";
layers = (
{
layerId = "248CDC77-21EA-41B6-93B8-E98A9208AB16";
name = Regular;
paths = (
{
closed = 1;
nodes = (
"90 347 OFFCURVE",
"173 305 OFFCURVE",
"217 267 CURVE",
"221 263 OFFCURVE",
"223 251 OFFCURVE",
"217 250 CURVE SMOOTH",
"171 239 OFFCURVE",
"81 211 OFFCURVE",
"28 185 CURVE",
"22 184 OFFCURVE",
"24 193 OFFCURVE",
"30 197 CURVE SMOOTH",
"56 218 OFFCURVE",
"168 252 OFFCURVE",
"200 260 CURVE",
"159 290 OFFCURVE",
"112 314 OFFCURVE",
"85 326 CURVE",
"78 331 OFFCURVE",
"69 347 OFFCURVE",
"82 347 CURVE SMOOTH"
);
}
);
width = 200;
}
);
unicode = 203A;
},
{
glyphname = quotedblleft;
lastChange = "2016-10-16 15:26:38 +0200";
layers = (
{
layerId = "248CDC77-21EA-41B6-93B8-E98A9208AB16";
name = Regular;
paths = (
{
closed = 1;
nodes = (
"263 585 OFFCURVE",
"244 588 OFFCURVE",
"234 573 CURVE",
"199 521 OFFCURVE",
"160 444 OFFCURVE",
"160 436 CURVE SMOOTH",
"160 431 OFFCURVE",
"163 428 OFFCURVE",
"166 431 CURVE",
"192 474 OFFCURVE",
"233 543 OFFCURVE",
"258 578 CURVE"
);
},
{
closed = 1;
nodes = (
"318 585 OFFCURVE",
"299 588 OFFCURVE",
"289 573 CURVE",
"254 521 OFFCURVE",
"215 444 OFFCURVE",
"215 436 CURVE SMOOTH",
"215 431 OFFCURVE",
"218 428 OFFCURVE",
"221 431 CURVE",
"247 474 OFFCURVE",
"288 543 OFFCURVE",
"313 578 CURVE"
);
}
);
width = 100;
}
);
leftMetricsKey = quoteleft;
rightMetricsKey = quoteleft;
unicode = 201C;
},
{
glyphname = quotedblright;
lastChange = "2016-10-16 15:15:45 +0200";
layers = (
{
layerId = "248CDC77-21EA-41B6-93B8-E98A9208AB16";
name = Regular;
paths = (
{
closed = 1;
nodes = (
"308 582 OFFCURVE",
"317 578 OFFCURVE",
"315 565 CURVE",
"315 555 OFFCURVE",
"227 431 OFFCURVE",
"211 431 CURVE SMOOTH",
"208 431 OFFCURVE",
"206 433 OFFCURVE",
"206 434 CURVE",
"233 472 OFFCURVE",
"281 541 OFFCURVE",
"304 580 CURVE"
);
},
{
closed = 1;
nodes = (
"248 582 OFFCURVE",
"257 578 OFFCURVE",
"255 565 CURVE",
"255 555 OFFCURVE",
"167 431 OFFCURVE",
"151 431 CURVE SMOOTH",
"148 431 OFFCURVE",
"146 433 OFFCURVE",
"146 434 CURVE",
"173 472 OFFCURVE",
"221 541 OFFCURVE",
"244 580 CURVE"
);
}
);
width = 100;
}
);
leftMetricsKey = quoteright;
rightMetricsKey = quoteright;
unicode = 201D;
},
{
glyphname = quoteleft;
lastChange = "2016-10-16 15:24:32 +0200";
layers = (
{
layerId = "248CDC77-21EA-41B6-93B8-E98A9208AB16";
name = Regular;
paths = (
{
closed = 1;
nodes = (
"263 585 OFFCURVE",
"244 588 OFFCURVE",
"234 573 CURVE",
"199 521 OFFCURVE",
"160 444 OFFCURVE",
"160 436 CURVE SMOOTH",
"160 431 OFFCURVE",
"163 428 OFFCURVE",
"166 431 CURVE",
"192 474 OFFCURVE",
"233 543 OFFCURVE",
"258 578 CURVE"
);
}
);
width = 50;
}
);
unicode = 2018;
},
{
glyphname = quoteright;
lastChange = "2016-10-16 15:24:36 +0200";
layers = (
{
layerId = "248CDC77-21EA-41B6-93B8-E98A9208AB16";
name = Regular;
paths = (
{
closed = 1;
nodes = (
"247 582 OFFCURVE",
"256 578 OFFCURVE",
"254 565 CURVE",
"254 555 OFFCURVE",
"166 431 OFFCURVE",
"150 431 CURVE SMOOTH",
"147 431 OFFCURVE",
"145 433 OFFCURVE",
"145 434 CURVE",
"172 472 OFFCURVE",
"220 541 OFFCURVE",
"243 580 CURVE"
);
}
);
width = 50;
}
);
unicode = 2019;
},
{
glyphname = cent;
lastChange = "2016-10-08 03:01:56 +0200";
layers = (
{
layerId = "248CDC77-21EA-41B6-93B8-E98A9208AB16";
name = Regular;
paths = (
{
closed = 1;
nodes = (
"151 375 OFFCURVE",
"59 252 OFFCURVE",
"59 168 CURVE SMOOTH",
"59 127 OFFCURVE",
"82 100 OFFCURVE",
"117 100 CURVE SMOOTH",
"188 100 OFFCURVE",
"236 162 OFFCURVE",
"236 186 CURVE SMOOTH",
"236 192 OFFCURVE",
"233 196 OFFCURVE",
"227 196 CURVE",
"219 168 OFFCURVE",
"171 107 OFFCURVE",
"117 107 CURVE",
"90 107 OFFCURVE",
"77 134 OFFCURVE",
"77 158 CURVE SMOOTH",
"77 244 OFFCURVE",
"169 368 OFFCURVE",
"251 368 CURVE SMOOTH",
"275 368 OFFCURVE",
"284 352 OFFCURVE",
"284 333 CURVE SMOOTH",
"284 311 OFFCURVE",
"273 287 OFFCURVE",
"259 276 CURVE",
"259 276 OFFCURVE",
"258 275 OFFCURVE",
"258 275 CURVE SMOOTH",
"258 273 OFFCURVE",
"262 271 OFFCURVE",
"266 271 CURVE SMOOTH",
"268 271 OFFCURVE",
"271 272 OFFCURVE",
"273 273 CURVE SMOOTH",
"289 281 OFFCURVE",
"300 304 OFFCURVE",
"300 327 CURVE SMOOTH",
"300 352 OFFCURVE",
"286 375 OFFCURVE",
"251 375 CURVE SMOOTH"
);
},
{
closed = 1;
nodes = (
"299 443 OFFCURVE",
"299 445 OFFCURVE",
"299 445 CURVE SMOOTH",
"299 447 OFFCURVE",
"298 448 OFFCURVE",
"296 448 CURVE SMOOTH",
"291 448 OFFCURVE",
"283 444 OFFCURVE",
"280 438 CURVE SMOOTH",
"274 429 OFFCURVE",
"69 48 OFFCURVE",
"62 36 CURVE SMOOTH",
"61 34 OFFCURVE",
"60 33 OFFCURVE",
"60 32 CURVE SMOOTH",
"60 31 OFFCURVE",
"61 30 OFFCURVE",
"63 30 CURVE SMOOTH",
"65 30 OFFCURVE",
"68 32 OFFCURVE",
"71 36 CURVE SMOOTH",
"76 44 OFFCURVE",
"293 432 OFFCURVE",
"298 442 CURVE SMOOTH"
);
}
);
width = 300;
}
);
unicode = 00A2;
},
{
glyphname = dollar;
lastChange = "2016-10-08 03:07:19 +0200";
layers = (
{
layerId = "248CDC77-21EA-41B6-93B8-E98A9208AB16";
name = Regular;
paths = (
{
closed = 1;
nodes = (
"378 271 OFFCURVE",
"418 312 OFFCURVE",
"418 354 CURVE SMOOTH",
"418 399 OFFCURVE",
"381 432 OFFCURVE",
"306 432 CURVE SMOOTH",
"216 432 OFFCURVE",
"168 371 OFFCURVE",
"168 326 CURVE SMOOTH",
"168 232 OFFCURVE",
"296 216 OFFCURVE",
"296 132 CURVE SMOOTH",
"296 71 OFFCURVE",
"233 26 OFFCURVE",
"157 26 CURVE SMOOTH",
"97 26 OFFCURVE",
"59 60 OFFCURVE",
"59 104 CURVE SMOOTH",
"59 151 OFFCURVE",
"115 194 OFFCURVE",
"172 194 CURVE",
"175 201 OFFCURVE",
"169 207 OFFCURVE",
"154 207 CURVE SMOOTH",
"95 207 OFFCURVE",
"41 158 OFFCURVE",
"41 104 CURVE SMOOTH",
"41 58 OFFCURVE",
"81 14 OFFCURVE",
"160 14 CURVE SMOOTH",
"252 14 OFFCURVE",
"318 68 OFFCURVE",
"318 135 CURVE SMOOTH",
"318 220 OFFCURVE",
"190 254 OFFCURVE",
"190 325 CURVE SMOOTH",
"190 367 OFFCURVE",
"232 422 OFFCURVE",
"305 422 CURVE SMOOTH",
"362 422 OFFCURVE",
"402 399 OFFCURVE",
"402 357 CURVE SMOOTH",
"402 320 OFFCURVE",
"370 285 OFFCURVE",
"313 285 CURVE",
"309 283 OFFCURVE",
"313 271 OFFCURVE",
"331 271 CURVE SMOOTH"
);
},
{
closed = 1;
nodes = (
"376 484 OFFCURVE",
"358 480 OFFCURVE",
"352 470 CURVE SMOOTH",
"346 461 OFFCURVE",
"103 -12 OFFCURVE",
"96 -24 CURVE SMOOTH",
"91 -33 OFFCURVE",
"102 -32 OFFCURVE",
"107 -24 CURVE SMOOTH",
"112 -16 OFFCURVE",
"365 464 OFFCURVE",
"371 474 CURVE SMOOTH"
);
}
);
width = 428;
}
);
unicode = 0024;
},
{
glyphname = euro;
lastChange = "2016-10-16 16:07:09 +0200";
layers = (
{
layerId = "248CDC77-21EA-41B6-93B8-E98A9208AB16";
name = Regular;
paths = (
{
closed = 1;
nodes = (
"302 417 OFFCURVE",
"124 275 OFFCURVE",
"124 111 CURVE SMOOTH",
"124 55 OFFCURVE",
"164 0 OFFCURVE",
"239 0 CURVE SMOOTH",
"399 0 OFFCURVE",
"486 136 OFFCURVE",
"461 133 CURVE",
"399 58 OFFCURVE",
"314 12 OFFCURVE",
"241 12 CURVE SMOOTH",
"182 12 OFFCURVE",
"149 53 OFFCURVE",
"149 111 CURVE SMOOTH",
"149 238 OFFCURVE",
"308 405 OFFCURVE",
"449 405 CURVE SMOOTH",
"554 405 OFFCURVE",
"533 292 OFFCURVE",
"508 270 CURVE",
"559 258 OFFCURVE",
"594 417 OFFCURVE",
"440 417 CURVE SMOOTH"
);
},
{
closed = 1;
nodes = (
"358 188 OFFCURVE",
"87 186 OFFCURVE",
"87 186 CURVE",
"75 186 OFFCURVE",
"89 173 OFFCURVE",
"102 173 CURVE SMOOTH",
"119 173 OFFCURVE",
"340 170 OFFCURVE",
"350 170 CURVE SMOOTH",
"363 170 OFFCURVE",
"378 188 OFFCURVE",
"366 188 CURVE SMOOTH"
);
},
{
closed = 1;
nodes = (
"66 249 OFFCURVE",
"77 236 OFFCURVE",
"90 236 CURVE SMOOTH",
"108 236 OFFCURVE",
"378 231 OFFCURVE",
"389 231 CURVE SMOOTH",
"402 231 OFFCURVE",
"418 249 OFFCURVE",
"406 249 CURVE SMOOTH",
"397 249 OFFCURVE",
"77 249 OFFCURVE",
"77 249 CURVE"
);
}
);
width = 575;
}
);
unicode = 20AC;
},
{
glyphname = franc;
lastChange = "2016-10-16 16:06:55 +0200";
layers = (
{
layerId = "248CDC77-21EA-41B6-93B8-E98A9208AB16";
name = Regular;
paths = (
{
closed = 1;
nodes = (
"194 441 OFFCURVE",
"187 456 OFFCURVE",
"176 445 CURVE SMOOTH",
"164 433 OFFCURVE",
"50 217 OFFCURVE",
"-54 19 CURVE",
"-60 4 OFFCURVE",
"-52 -6 OFFCURVE",
"-46 4 CURVE SMOOTH",
"27 129 OFFCURVE",
"116 298 OFFCURVE",
"196 427 CURVE"
);
},
{
closed = 1;
nodes = (
"66 116 OFFCURVE",
"-34 111 OFFCURVE",
"-47 107 CURVE",
"-52 105 OFFCURVE",
"-48 98 OFFCURVE",
"-41 97 CURVE",
"3 97 OFFCURVE",
"33 98 OFFCURVE",
"98 98 CURVE",
"106 102 OFFCURVE",
"97 116 OFFCURVE",
"81 116 CURVE SMOOTH"
);
},
{
closed = 1;
nodes = (
"220 249 OFFCURVE",
"108 238 OFFCURVE",
"77 235 CURVE",
"62 235 OFFCURVE",
"54 218 OFFCURVE",
"72 219 CURVE",
"99 222 OFFCURVE",
"236 229 OFFCURVE",
"251 227 CURVE",
"262 233 OFFCURVE",
"251 249 OFFCURVE",
"232 249 CURVE SMOOTH"
);
},
{
closed = 1;
nodes = (
"278 402 OFFCURVE",
"138 389 OFFCURVE",
"117 387 CURVE",
"109 387 OFFCURVE",
"114 373 OFFCURVE",
"126 373 CURVE",
"150 375 OFFCURVE",
"306 381 OFFCURVE",
"344 379 CURVE",
"351 381 OFFCURVE",
"351 402 OFFCURVE",
"320 402 CURVE SMOOTH"
);
}
);
width = 250;
}
);
unicode = 20A3;
},
{
glyphname = asciitilde;
lastChange = "2016-10-15 15:52:26 +0200";
layers = (
{
layerId = "248CDC77-21EA-41B6-93B8-E98A9208AB16";
name = Regular;
paths = (
{
closed = 1;
nodes = (
"68 263 OFFCURVE",
"67 274 OFFCURVE",
"82 287 CURVE",
"98 298 OFFCURVE",
"124 308 OFFCURVE",
"160 308 CURVE SMOOTH",
"209 308 OFFCURVE",
"240 288 OFFCURVE",
"278 288 CURVE SMOOTH",
"314 288 OFFCURVE",
"333 298 OFFCURVE",
"343 305 CURVE",
"349 307 OFFCURVE",
"354 296 OFFCURVE",
"336 283 CURVE",
"322 275 OFFCURVE",
"309 268 OFFCURVE",
"275 268 CURVE SMOOTH",
"235 268 OFFCURVE",
"209 288 OFFCURVE",
"162 288 CURVE SMOOTH",
"102 288 OFFCURVE",
"76 263 OFFCURVE",
"76 263 CURVE SMOOTH"
);
}
);
width = 320;
}
);
unicode = 007E;
},
{
glyphname = divide;
lastChange = "2016-10-15 16:13:47 +0200";
layers = (
{
layerId = "248CDC77-21EA-41B6-93B8-E98A9208AB16";
name = Regular;
paths = (
{
closed = 1;
nodes = (
"117 189 OFFCURVE",
"110 158 OFFCURVE",
"125 158 CURVE SMOOTH",
"144 158 OFFCURVE",
"154 189 OFFCURVE",
"137 189 CURVE SMOOTH"
);
},
{
closed = 1;
nodes = (
"163 316 OFFCURVE",
"157 287 OFFCURVE",
"173 287 CURVE SMOOTH",
"192 287 OFFCURVE",
"201 316 OFFCURVE",
"184 316 CURVE SMOOTH"
);
},
{
closed = 1;
nodes = (
"48 239 OFFCURVE",
"54 229 OFFCURVE",
"61 229 CURVE",
"124 229 OFFCURVE",
"191 228 OFFCURVE",
"265 228 CURVE",
"272 234 OFFCURVE",
"265 249 OFFCURVE",
"246 249 CURVE SMOOTH",
"206 249 OFFCURVE",
"101 248 OFFCURVE",
"55 242 CURVE"
);
}
);
width = 270;
}
);
unicode = 00F7;
},
{
glyphname = equal;
lastChange = "2016-10-15 16:11:32 +0200";
layers = (
{
layerId = "248CDC77-21EA-41B6-93B8-E98A9208AB16";
name = Regular;
paths = (
{
closed = 1;
nodes = (
"92 267 OFFCURVE",
"158 277 OFFCURVE",
"229 277 CURVE SMOOTH",
"269 277 OFFCURVE",
"267 260 OFFCURVE",
"264 255 CURVE",
"199 260 OFFCURVE",
"129 256 OFFCURVE",
"88 254 CURVE",
"82 254 OFFCURVE",
"76 260 OFFCURVE",
"80 263 CURVE"
);
},
{
closed = 1;
nodes = (
"56 181 OFFCURVE",
"151 191 OFFCURVE",
"193 191 CURVE SMOOTH",
"232 191 OFFCURVE",
"227 174 OFFCURVE",
"224 170 CURVE",
"159 170 OFFCURVE",
"96 168 OFFCURVE",
"51 168 CURVE",
"44 169 OFFCURVE",
"39 174 OFFCURVE",
"43 177 CURVE"
);
}
);
width = 300;
}
);
unicode = 003D;
},
{
glyphname = greater;
lastChange = "2016-10-16 13:49:24 +0200";
layers = (
{
layerId = "248CDC77-21EA-41B6-93B8-E98A9208AB16";
name = Regular;
paths = (
{
closed = 1;
nodes = (
"111 320 OFFCURVE",
"206 272 OFFCURVE",
"262 223 CURVE",
"269 216 OFFCURVE",
"254 199 OFFCURVE",
"247 198 CURVE SMOOTH",
"183 191 OFFCURVE",
"72 152 OFFCURVE",
"27 127 CURVE",
"20 124 OFFCURVE",
"21 134 OFFCURVE",
"26 138 CURVE",
"50 156 OFFCURVE",
"159 206 OFFCURVE",
"237 215 CURVE",
"193 247 OFFCURVE",
"127 284 OFFCURVE",
"75 301 CURVE",
"69 305 OFFCURVE",
"75 320 OFFCURVE",
"93 320 CURVE SMOOTH"
);
}
);
width = 260;
}
);
unicode = 003E;
},
{
glyphname = less;
lastChange = "2016-10-08 04:27:43 +0200";
layers = (
{
layerId = "248CDC77-21EA-41B6-93B8-E98A9208AB16";
name = Regular;
paths = (
{
closed = 1;
nodes = (
"234 327 OFFCURVE",
"92 266 OFFCURVE",
"36 217 CURVE",
"29 210 OFFCURVE",
"27 193 OFFCURVE",
"33 192 CURVE SMOOTH",
"106 177 OFFCURVE",
"165 155 OFFCURVE",
"210 129 CURVE",
"217 127 OFFCURVE",
"216 136 OFFCURVE",
"210 141 CURVE",
"190 154 OFFCURVE",
"128 189 OFFCURVE",
"51 204 CURVE",
"94 236 OFFCURVE",
"214 293 OFFCURVE",
"248 304 CURVE",
"255 308 OFFCURVE",
"266 327 OFFCURVE",
"253 327 CURVE SMOOTH"
);
}
);
width = 260;
}
);
unicode = 003C;
},
{
glyphname = micro;
lastChange = "2016-10-08 04:30:23 +0200";
layers = (
{
layerId = "248CDC77-21EA-41B6-93B8-E98A9208AB16";
name = Regular;
paths = (
{
closed = 1;
nodes = (
"-74 -52 OFFCURVE",
"-84 -57 OFFCURVE",
"-84 -49 CURVE SMOOTH",
"-84 -44 OFFCURVE",
"29 160 OFFCURVE",
"102 289 CURVE",
"136 358 OFFCURVE",
"160 394 OFFCURVE",
"161 395 CURVE SMOOTH",
"169 400 OFFCURVE",
"182 385 OFFCURVE",
"177 368 CURVE",
"167 347 OFFCURVE",
"125 289 OFFCURVE",
"118 279 CURVE SMOOTH",
"112 268 OFFCURVE",
"70 158 OFFCURVE",
"88 158 CURVE SMOOTH",
"120 158 OFFCURVE",
"215 287 OFFCURVE",
"215 287 CURVE SMOOTH",
"215 287 OFFCURVE",
"270 390 OFFCURVE",
"279 390 CURVE SMOOTH",
"288 390 OFFCURVE",
"296 377 OFFCURVE",
"289 362 CURVE SMOOTH",
"287 356 OFFCURVE",
"267 324 OFFCURVE",
"237 284 CURVE",
"201 212 OFFCURVE",
"178 155 OFFCURVE",
"188 155 CURVE SMOOTH",
"211 155 OFFCURVE",
"277 234 OFFCURVE",
"292 253 CURVE",
"313 253 OFFCURVE",
"227 147 OFFCURVE",
"187 147 CURVE SMOOTH",
"152 147 OFFCURVE",
"197 238 OFFCURVE",
"197 238 CURVE SMOOTH",
"197 238 OFFCURVE",
"127 150 OFFCURVE",
"88 150 CURVE SMOOTH",
"56 150 OFFCURVE",
"80 221 OFFCURVE",
"80 221 CURVE SMOOTH",
"80 221 OFFCURVE",
"-67 -39 OFFCURVE",
"-71 -45 CURVE SMOOTH"
);
}
);
width = 300;
}
);
unicode = 00B5;
},
{
glyphname = minus;
lastChange = "2016-10-15 16:05:40 +0200";
layers = (
{
layerId = "248CDC77-21EA-41B6-93B8-E98A9208AB16";
name = Regular;
paths = (
{
closed = 1;
nodes = (
"79 241 OFFCURVE",
"168 250 OFFCURVE",
"243 250 CURVE SMOOTH",
"282 250 OFFCURVE",
"277 233 OFFCURVE",
"274 229 CURVE",
"209 233 OFFCURVE",
"116 229 OFFCURVE",
"75 227 CURVE",
"68 228 OFFCURVE",
"62 234 OFFCURVE",
"66 237 CURVE"
);
}
);
width = 300;
}
);
unicode = 2212;
},
{
glyphname = multiply;
lastChange = "2016-10-15 16:08:51 +0200";
layers = (
{
layerId = "248CDC77-21EA-41B6-93B8-E98A9208AB16";
name = Regular;
paths = (
{
closed = 1;
nodes = (
"196 284 OFFCURVE",
"115 212 OFFCURVE",
"67 163 CURVE",
"64 154 OFFCURVE",
"69 150 OFFCURVE",
"72 153 CURVE",
"136 206 OFFCURVE",
"224 278 OFFCURVE",
"259 305 CURVE",
"265 309 OFFCURVE",
"254 321 OFFCURVE",
"236 313 CURVE"
);
},
{
closed = 1;
nodes = (
"108 321 OFFCURVE",
"99 304 OFFCURVE",
"102 295 CURVE",
"108 282 OFFCURVE",
"159 204 OFFCURVE",
"210 151 CURVE SMOOTH",
"216 144 OFFCURVE",
"225 149 OFFCURVE",
"222 153 CURVE",
"168 233 OFFCURVE",
"135 277 OFFCURVE",
"116 313 CURVE"
);
}
);
width = 300;
}
);
unicode = 00D7;
},
{
glyphname = percent;
lastChange = "2016-10-15 15:57:54 +0200";
layers = (
{
layerId = "248CDC77-21EA-41B6-93B8-E98A9208AB16";
name = Regular;
paths = (
{
closed = 1;
nodes = (
"280 225 OFFCURVE",
"249 190 OFFCURVE",
"249 153 CURVE SMOOTH",
"249 129 OFFCURVE",
"265 110 OFFCURVE",
"292 110 CURVE SMOOTH",
"320 110 OFFCURVE",
"361 141 OFFCURVE",
"361 186 CURVE SMOOTH",
"361 209 OFFCURVE",
"347 225 OFFCURVE",
"320 225 CURVE SMOOTH"
);
},
{
closed = 1;
nodes = (
"276 121 OFFCURVE",
"264 130 OFFCURVE",
"264 150 CURVE SMOOTH",
"264 186 OFFCURVE",
"296 215 OFFCURVE",
"318 215 CURVE SMOOTH",
"339 215 OFFCURVE",
"345 199 OFFCURVE",
"345 185 CURVE SMOOTH",
"345 156 OFFCURVE",
"319 121 OFFCURVE",
"292 121 CURVE SMOOTH"
);
},
{
closed = 1;
nodes = (
"130 388 OFFCURVE",
"99 353 OFFCURVE",
"99 316 CURVE SMOOTH",
"99 292 OFFCURVE",
"114 273 OFFCURVE",
"142 273 CURVE SMOOTH",
"169 273 OFFCURVE",
"210 304 OFFCURVE",
"210 349 CURVE SMOOTH",
"210 372 OFFCURVE",
"196 388 OFFCURVE",
"169 388 CURVE SMOOTH"
);
},
{
closed = 1;
nodes = (
"125 284 OFFCURVE",
"114 293 OFFCURVE",
"114 313 CURVE SMOOTH",
"114 347 OFFCURVE",
"143 378 OFFCURVE",
"167 378 CURVE SMOOTH",
"188 378 OFFCURVE",
"194 362 OFFCURVE",
"194 348 CURVE SMOOTH",
"194 319 OFFCURVE",
"168 284 OFFCURVE",
"141 284 CURVE SMOOTH"
);
},
{
closed = 1;
nodes = (
"349 370 OFFCURVE",
"213 261 OFFCURVE",
"48 92 CURVE SMOOTH",
"39 82 OFFCURVE",
"53 82 OFFCURVE",
"60 87 CURVE",
"191 214 OFFCURVE",
"296 304 OFFCURVE",
"392 383 CURVE",
"399 390 OFFCURVE",
"390 399 OFFCURVE",
"371 389 CURVE"
);
}
);
width = 400;
}
);
unicode = 0025;
},
{
glyphname = plus;
lastChange = "2016-10-15 16:10:57 +0200";
layers = (
{
layerId = "248CDC77-21EA-41B6-93B8-E98A9208AB16";
name = Regular;
paths = (
{
closed = 1;
nodes = (
"226 329 OFFCURVE",
"210 333 OFFCURVE",
"195 312 CURVE",
"175 274 OFFCURVE",
"141 198 OFFCURVE",
"126 152 CURVE",
"123 141 OFFCURVE",
"129 136 OFFCURVE",
"134 139 CURVE",
"168 213 OFFCURVE",
"199 275 OFFCURVE",
"224 320 CURVE"
);
},
{
closed = 1;
nodes = (
"62 239 OFFCURVE",
"68 229 OFFCURVE",
"75 229 CURVE",
"138 229 OFFCURVE",
"215 228 OFFCURVE",
"289 228 CURVE",
"296 234 OFFCURVE",
"289 249 OFFCURVE",
"270 249 CURVE SMOOTH",
"230 249 OFFCURVE",
"115 248 OFFCURVE",
"69 242 CURVE"
);
}
);
width = 300;
}
);
unicode = 002B;
},
{
glyphname = ampersand;
lastChange = "2016-10-15 16:26:26 +0200";
layers = (
{
layerId = "248CDC77-21EA-41B6-93B8-E98A9208AB16";
name = Regular;
paths = (
{
closed = 1;
nodes = (
"361 282 OFFCURVE",
"391 278 OFFCURVE",
"391 230 CURVE SMOOTH",
"391 157 OFFCURVE",
"275 -6 OFFCURVE",
"124 -6 CURVE SMOOTH",
"66 -6 OFFCURVE",
"32 32 OFFCURVE",
"32 79 CURVE SMOOTH",
"32 238 OFFCURVE",
"456 412 OFFCURVE",
"456 509 CURVE SMOOTH",
"456 542 OFFCURVE",
"426 563 OFFCURVE",
"381 563 CURVE SMOOTH",
"325 563 OFFCURVE",
"227 503 OFFCURVE",
"227 403 CURVE SMOOTH",
"227 231 OFFCURVE",
"350 41 OFFCURVE",
"409 4 CURVE",
"411 -2 OFFCURVE",
"403 -4 OFFCURVE",
"399 -2 CURVE SMOOTH",
"347 27 OFFCURVE",
"208 183 OFFCURVE",
"208 392 CURVE SMOOTH",
"208 504 OFFCURVE",
"315 573 OFFCURVE",
"386 573 CURVE SMOOTH",
"443 573 OFFCURVE",
"474 539 OFFCURVE",
"474 504 CURVE SMOOTH",
"474 392 OFFCURVE",
"53 214 OFFCURVE",
"53 74 CURVE SMOOTH",
"53 33 OFFCURVE",
"81 6 OFFCURVE",
"130 6 CURVE SMOOTH",
"235 6 OFFCURVE",
"370 150 OFFCURVE",
"370 233 CURVE SMOOTH",
"370 261 OFFCURVE",
"363 265 OFFCURVE",
"359 272 CURVE"
);
}
);
width = 500;
}
);
unicode = 0026;
},
{
glyphname = at;
lastChange = "2016-10-08 04:21:46 +0200";
layers = (
{
layerId = "248CDC77-21EA-41B6-93B8-E98A9208AB16";
name = Regular;
paths = (
{
closed = 1;
nodes = (
"115 -44 OFFCURVE",
"65 -4 OFFCURVE",
"65 90 CURVE SMOOTH",
"65 223 OFFCURVE",
"194 398 OFFCURVE",
"347 398 CURVE SMOOTH",
"414 398 OFFCURVE",
"444 354 OFFCURVE",
"444 298 CURVE SMOOTH",
"444 180 OFFCURVE",
"326 60 OFFCURVE",
"266 60 CURVE SMOOTH",
"253 60 OFFCURVE",
"252 70 OFFCURVE",
"252 81 CURVE SMOOTH",
"252 111 OFFCURVE",
"290 177 OFFCURVE",
"365 285 CURVE",
"365 285 OFFCURVE",
"363 302 OFFCURVE",
"355 302 CURVE SMOOTH",
"347 302 OFFCURVE",
"315 248 OFFCURVE",
"296 210 CURVE",
"311 253 OFFCURVE",
"320 302 OFFCURVE",
"294 302 CURVE SMOOTH",
"259 302 OFFCURVE",
"205 243 OFFCURVE",
"176 182 CURVE SMOOTH",
"144 119 OFFCURVE",
"136 54 OFFCURVE",
"161 54 CURVE SMOOTH",
"180 54 OFFCURVE",
"229 92 OFFCURVE",
"254 130 CURVE",
"242 101 OFFCURVE",
"232 53 OFFCURVE",
"266 53 CURVE SMOOTH",
"345 53 OFFCURVE",
"460 176 OFFCURVE",
"460 294 CURVE SMOOTH",
"460 358 OFFCURVE",
"431 407 OFFCURVE",
"341 407 CURVE SMOOTH",
"162 407 OFFCURVE",
"45 218 OFFCURVE",
"45 94 CURVE SMOOTH",
"45 6 OFFCURVE",
"96 -52 OFFCURVE",
"182 -52 CURVE SMOOTH",
"291 -52 OFFCURVE",
"365 20 OFFCURVE",
"371 34 CURVE SMOOTH",
"375 43 OFFCURVE",
"375 51 OFFCURVE",
"369 50 CURVE",
"353 25 OFFCURVE",
"272 -44 OFFCURVE",
"179 -44 CURVE SMOOTH"
);
},
{
closed = 1;
nodes = (
"155 62 OFFCURVE",
"162 119 OFFCURVE",
"193 177 CURVE SMOOTH",
"223 235 OFFCURVE",
"274 294 OFFCURVE",
"294 294 CURVE SMOOTH",
"317 294 OFFCURVE",
"291 204 OFFCURVE",
"269 166 CURVE",
"229 101 OFFCURVE",
"178 62 OFFCURVE",
"165 62 CURVE SMOOTH"
);
}
);
width = 500;
}
);
unicode = 0040;
},
{
glyphname = bar;
lastChange = "2016-10-08 13:04:09 +0200";
layers = (
{
layerId = "248CDC77-21EA-41B6-93B8-E98A9208AB16";
name = Regular;
paths = (
{
closed = 1;
nodes = (
"-129 -115 LINE",
"-112 -125 LINE",
"283 559 LINE",
"266 569 LINE"
);
}
);
width = 123;
}
);
unicode = 007C;
},
{
glyphname = copyright;
lastChange = "2016-10-16 14:16:04 +0200";
layers = (
{
layerId = "248CDC77-21EA-41B6-93B8-E98A9208AB16";
name = Regular;
paths = (
{
closed = 1;
nodes = (
"196 472 OFFCURVE",
"176 437 OFFCURVE",
"176 413 CURVE SMOOTH",
"177 400 OFFCURVE",
"183 390 OFFCURVE",
"196 390 CURVE SMOOTH",
"220 390 OFFCURVE",
"234 414 OFFCURVE",
"226 414 CURVE",
"221 409 OFFCURVE",
"209 398 OFFCURVE",
"197 398 CURVE SMOOTH",
"190 398 OFFCURVE",
"187 404 OFFCURVE",
"187 412 CURVE SMOOTH",
"187 432 OFFCURVE",
"205 463 OFFCURVE",
"228 463 CURVE SMOOTH",
"240 463 OFFCURVE",
"240 452 OFFCURVE",
"238 446 CURVE",
"241 443 OFFCURVE",
"247 447 OFFCURVE",
"247 457 CURVE SMOOTH",
"247 463 OFFCURVE",
"242 472 OFFCURVE",
"228 472 CURVE SMOOTH"
);
},
{
closed = 1;
nodes = (
"175 506 OFFCURVE",
"127 457 OFFCURVE",
"127 405 CURVE SMOOTH",
"127 372 OFFCURVE",
"154 349 OFFCURVE",
"188 349 CURVE SMOOTH",
"231 349 OFFCURVE",
"294 388 OFFCURVE",
"294 451 CURVE SMOOTH",
"294 484 OFFCURVE",
"266 506 OFFCURVE",
"237 506 CURVE SMOOTH"
);
},
{
closed = 1;
nodes = (
"161 356 OFFCURVE",
"136 371 OFFCURVE",
"136 404 CURVE SMOOTH",
"136 462 OFFCURVE",
"196 499 OFFCURVE",
"234 499 CURVE SMOOTH",
"267 499 OFFCURVE",
"285 477 OFFCURVE",
"285 453 CURVE SMOOTH",
"285 403 OFFCURVE",
"235 356 OFFCURVE",
"185 356 CURVE SMOOTH"
);
}
);
width = 160;
}
);
unicode = 00A9;
},
{
glyphname = dagger;
lastChange = "2016-10-16 14:57:20 +0200";
layers = (
{
layerId = "248CDC77-21EA-41B6-93B8-E98A9208AB16";
name = Regular;
paths = (
{
closed = 1;
nodes = (
"289 451 OFFCURVE",
"267 455 OFFCURVE",
"253 436 CURVE",
"215 364 OFFCURVE",
"127 200 OFFCURVE",
"50 51 CURVE",
"43 33 OFFCURVE",
"54 26 OFFCURVE",
"58 34 CURVE",
"140 182 OFFCURVE",
"208 310 OFFCURVE",
"281 438 CURVE"
);
},
{
closed = 1;
nodes = (
"128 341 OFFCURVE",
"125 330 OFFCURVE",
"130 330 CURVE",
"139 329 OFFCURVE",
"183 333 OFFCURVE",
"294 334 CURVE",
"305 335 OFFCURVE",
"319 353 OFFCURVE",
"304 353 CURVE",
"247 353 OFFCURVE",
"167 345 OFFCURVE",
"138 343 CURVE"
);
}
);
width = 280;
}
);
unicode = 2020;
},
{
glyphname = degree;
lastChange = "2016-10-16 14:53:15 +0200";
layers = (
{
layerId = "248CDC77-21EA-41B6-93B8-E98A9208AB16";
name = Regular;
paths = (
{
closed = 1;
nodes = (
"190 520 OFFCURVE",
"159 489 OFFCURVE",
"159 454 CURVE SMOOTH",
"159 432 OFFCURVE",
"177 417 OFFCURVE",
"200 417 CURVE SMOOTH",
"229 417 OFFCURVE",
"269 443 OFFCURVE",
"269 485 CURVE SMOOTH",
"269 507 OFFCURVE",
"251 520 OFFCURVE",
"233 520 CURVE SMOOTH"
);
},
{
closed = 1;
nodes = (
"183 424 OFFCURVE",
"169 435 OFFCURVE",
"169 455 CURVE SMOOTH",
"169 489 OFFCURVE",
"205 513 OFFCURVE",
"229 513 CURVE SMOOTH",
"250 513 OFFCURVE",
"259 499 OFFCURVE",
"259 485 CURVE SMOOTH",
"259 456 OFFCURVE",
"229 424 OFFCURVE",
"199 424 CURVE SMOOTH"
);
}
);
width = 111;
}
);
unicode = 00B0;
},
{
glyphname = published;
lastChange = "2016-10-26 02:38:48 +0200";
layers = (
{
layerId = "248CDC77-21EA-41B6-93B8-E98A9208AB16";
name = Regular;
paths = (
{
closed = 1;
nodes = (
"218 506 OFFCURVE",
"170 457 OFFCURVE",
"170 405 CURVE SMOOTH",
"170 372 OFFCURVE",
"197 349 OFFCURVE",
"231 349 CURVE SMOOTH",
"274 349 OFFCURVE",
"337 388 OFFCURVE",
"337 451 CURVE SMOOTH",
"337 484 OFFCURVE",
"309 506 OFFCURVE",
"280 506 CURVE SMOOTH"
);
},
{
closed = 1;
nodes = (
"204 356 OFFCURVE",
"179 371 OFFCURVE",
"179 404 CURVE SMOOTH",
"179 462 OFFCURVE",
"239 499 OFFCURVE",
"277 499 CURVE SMOOTH",
"310 499 OFFCURVE",
"328 477 OFFCURVE",
"328 453 CURVE SMOOTH",
"328 403 OFFCURVE",
"278 356 OFFCURVE",
"228 356 CURVE SMOOTH"
);
},
{
closed = 1;
nodes = (
"267 468 OFFCURVE",
"257 462 OFFCURVE",
"247 450 CURVE",
"252 457 OFFCURVE",
"255 462 OFFCURVE",
"258 466 CURVE",
"262 472 OFFCURVE",
"249 472 OFFCURVE",
"245 465 CURVE",
"240 456 OFFCURVE",
"228 435 OFFCURVE",
"207 390 CURVE",
"208 387 OFFCURVE",
"215 388 OFFCURVE",
"219 394 CURVE",
"221 398 OFFCURVE",
"229 415 OFFCURVE",
"239 433 CURVE",
"243 438 LINE SMOOTH",
"254 450 OFFCURVE",
"263 459 OFFCURVE",
"275 459 CURVE SMOOTH",
"295 459 OFFCURVE",
"278 415 OFFCURVE",
"252 415 CURVE SMOOTH",
"246 415 OFFCURVE",
"242 419 OFFCURVE",
"242 424 CURVE",
"233 422 OFFCURVE",
"235 405 OFFCURVE",
"252 405 CURVE SMOOTH",
"292 405 OFFCURVE",
"309 468 OFFCURVE",
"278 468 CURVE SMOOTH"
);
}
);
width = 203;
}
);
leftKerningGroup = published;
rightKerningGroup = published;
unicode = 2117;
},
{
glyphname = registered;
lastChange = "2016-10-16 14:10:18 +0200";
layers = (
{
layerId = "248CDC77-21EA-41B6-93B8-E98A9208AB16";
name = Regular;
paths = (
{
closed = 1;
nodes = (
"252 462 OFFCURVE",
"243 469 OFFCURVE",
"233 469 CURVE SMOOTH",
"223.307 469 OFFCURVE",
"212.308 463.127 OFFCURVE",
"201.586 452.963 CURVE",
"205.572 459.452 OFFCURVE",
"209.48 465.38 OFFCURVE",
"213 470 CURVE",
"210 476 OFFCURVE",
"201 472 OFFCURVE",
"197 466 CURVE",
"193 459 OFFCURVE",
"177 437 OFFCURVE",
"159 392 CURVE",
"160 389 OFFCURVE",
"166 390 OFFCURVE",
"170 396 CURVE",
"171.815 399.024 OFFCURVE",
"181.312 417.78 OFFCURVE",
"192.075 436.778 CURVE",
"194 439 LINE SMOOTH",
"205 452 OFFCURVE",
"218 460 OFFCURVE",
"231 460 CURVE SMOOTH",
"236 460 OFFCURVE",
"242 457 OFFCURVE",
"242 451 CURVE SMOOTH",
"242 439 OFFCURVE",
"220 426 OFFCURVE",
"194 428 CURVE",
"194 407 OFFCURVE",
"222 380 OFFCURVE",
"230 390 CURVE",
"214 401 OFFCURVE",
"207 417 OFFCURVE",
"206 422 CURVE",
"225 419 OFFCURVE",
"252 432 OFFCURVE",
"252 451 CURVE"
);
},
{
closed = 1;
nodes = (
"175 506 OFFCURVE",
"127 457 OFFCURVE",
"127 405 CURVE SMOOTH",
"127 372 OFFCURVE",
"154 349 OFFCURVE",
"188 349 CURVE SMOOTH",
"231 349 OFFCURVE",
"294 388 OFFCURVE",
"294 451 CURVE SMOOTH",
"294 484 OFFCURVE",
"266 506 OFFCURVE",
"237 506 CURVE SMOOTH"
);
},
{
closed = 1;
nodes = (
"161 356 OFFCURVE",
"136 371 OFFCURVE",
"136 404 CURVE SMOOTH",
"136 462 OFFCURVE",
"196 499 OFFCURVE",
"234 499 CURVE SMOOTH",
"267 499 OFFCURVE",
"285 477 OFFCURVE",
"285 453 CURVE SMOOTH",
"285 403 OFFCURVE",
"235 356 OFFCURVE",
"185 356 CURVE SMOOTH"
);
}
);
width = 160;
}
);
leftKerningGroup = published;
rightKerningGroup = published;
unicode = 00AE;
},
{
glyphname = section;
lastChange = "2016-10-16 16:12:10 +0200";
layers = (
{
layerId = "248CDC77-21EA-41B6-93B8-E98A9208AB16";
name = Regular;
paths = (
{
closed = 1;
nodes = (
"296 368 OFFCURVE",
"299 356 OFFCURVE",
"317 356 CURVE SMOOTH",
"364 356 OFFCURVE",
"404 394 OFFCURVE",
"404 430 CURVE SMOOTH",
"404 471 OFFCURVE",
"367 500 OFFCURVE",
"297 500 CURVE SMOOTH",
"216 500 OFFCURVE",
"153 447 OFFCURVE",
"153 402 CURVE SMOOTH",
"153 359 OFFCURVE",
"184 343 OFFCURVE",
"204 334 CURVE",
"121 328 OFFCURVE",
"68 276 OFFCURVE",
"68 231 CURVE SMOOTH",
"68 134 OFFCURVE",
"215 158 OFFCURVE",
"215 70 CURVE SMOOTH",
"215 34 OFFCURVE",
"163 -15 OFFCURVE",
"87 -15 CURVE SMOOTH",
"34 -15 OFFCURVE",
"-14 3 OFFCURVE",
"-14 49 CURVE SMOOTH",
"-14 79 OFFCURVE",
"19 118 OFFCURVE",
"76 114 CURVE",
"79 121 OFFCURVE",
"73 127 OFFCURVE",
"58 127 CURVE SMOOTH",
"0 127 OFFCURVE",
"-32 80 OFFCURVE",
"-32 49 CURVE SMOOTH",
"-32 3 OFFCURVE",
"16 -27 OFFCURVE",
"86 -27 CURVE SMOOTH",
"183 -27 OFFCURVE",
"237 26 OFFCURVE",
"237 73 CURVE SMOOTH",
"237 111 OFFCURVE",
"207 141 OFFCURVE",
"174 152 CURVE",
"259 147 OFFCURVE",
"338 199 OFFCURVE",
"338 258 CURVE SMOOTH",
"338 301 OFFCURVE",
"301 330 OFFCURVE",
"239 341 CURVE",
"210 345 OFFCURVE",
"171 366 OFFCURVE",
"171 402 CURVE SMOOTH",
"171 444 OFFCURVE",
"228 489 OFFCURVE",
"299 489 CURVE SMOOTH",
"348 489 OFFCURVE",
"386 470 OFFCURVE",
"386 433 CURVE SMOOTH",
"386 402 OFFCURVE",
"351 369 OFFCURVE",
"300 369 CURVE"
);
},
{
closed = 1;
nodes = (
"315 212 OFFCURVE",
"249 164 OFFCURVE",
"159 164 CURVE",
"134 171 OFFCURVE",
"89 187 OFFCURVE",
"89 232 CURVE SMOOTH",
"89 277 OFFCURVE",
"149 323 OFFCURVE",
"225 326 CURVE",
"249 321 OFFCURVE",
"315 308 OFFCURVE",
"315 258 CURVE SMOOTH"
);
}
);
width = 350;
}
);
unicode = 00A7;
},
{
glyphname = servicemark;
lastChange = "2016-10-16 14:36:51 +0200";
layers = (
{
layerId = "248CDC77-21EA-41B6-93B8-E98A9208AB16";
name = Regular;
paths = (
{
closed = 1;
nodes = (
"278 499 LINE",
"275 540 LINE",
"274 543 OFFCURVE",
"264 554 OFFCURVE",
"259 543 CURVE SMOOTH",
"248 521 OFFCURVE",
"247 521 OFFCURVE",
"217 456 CURVE",
"215 451 OFFCURVE",
"226 451 OFFCURVE",
"231 460 CURVE SMOOTH",
"236 468 OFFCURVE",
"247 490 OFFCURVE",
"263 521 CURVE",
"263 511 OFFCURVE",
"265 494 OFFCURVE",
"265 492 CURVE SMOOTH",
"266 486 OFFCURVE",
"272 482 OFFCURVE",
"275 484 CURVE",
"284 491 OFFCURVE",
"301 505 OFFCURVE",
"319 521 CURVE",
"313 510 OFFCURVE",
"306 495 OFFCURVE",
"286 453 CURVE",
"284 447 OFFCURVE",
"295 447 OFFCURVE",
"300 456 CURVE SMOOTH",
"305 465 OFFCURVE",
"335 521 OFFCURVE",
"341 537 CURVE",
"341 540 OFFCURVE",
"335 551 OFFCURVE",
"329 545 CURVE SMOOTH"
);
},
{
closed = 1;
nodes = (
"203 512 OFFCURVE",
"205 507 OFFCURVE",
"213 507 CURVE SMOOTH",
"222 507 OFFCURVE",
"234 515 OFFCURVE",
"234 528 CURVE SMOOTH",
"234 537 OFFCURVE",
"225 548 OFFCURVE",
"203 548 CURVE SMOOTH",
"182 548 OFFCURVE",
"168 533 OFFCURVE",
"168 520 CURVE SMOOTH",
"168 497 OFFCURVE",
"196 492 OFFCURVE",
"196 478 CURVE SMOOTH",
"196 470 OFFCURVE",
"189 460 OFFCURVE",
"171 460 CURVE SMOOTH",
"163 460 OFFCURVE",
"155 465 OFFCURVE",
"155 473 CURVE SMOOTH",
"155 481 OFFCURVE",
"162 484 OFFCURVE",
"165 485 CURVE",
"165 485 LINE",
"165 485 LINE SMOOTH",
"166 486 OFFCURVE",
"165 490 OFFCURVE",
"161 490 CURVE SMOOTH",
"152 490 OFFCURVE",
"143 482 OFFCURVE",
"143 471 CURVE SMOOTH",
"143 459 OFFCURVE",
"155 449 OFFCURVE",
"170 449 CURVE SMOOTH",
"204 449 OFFCURVE",
"209 470 OFFCURVE",
"209 479 CURVE SMOOTH",
"209 499 OFFCURVE",
"182 502 OFFCURVE",
"182 520 CURVE SMOOTH",
"182 530 OFFCURVE",
"194 538 OFFCURVE",
"206 538 CURVE SMOOTH",
"215 538 OFFCURVE",
"222 534 OFFCURVE",
"222 527 CURVE SMOOTH",
"222 520 OFFCURVE",
"213 515 OFFCURVE",
"206 515 CURVE"
);
}
);
width = 200;
}
);
leftMetricsKey = S;
rightMetricsKey = M;
unicode = 2120;
},
{
glyphname = trademark;
lastChange = "2016-10-16 14:36:02 +0200";
layers = (
{
layerId = "248CDC77-21EA-41B6-93B8-E98A9208AB16";
name = Regular;
paths = (
{
closed = 1;
nodes = (
"181 511 OFFCURVE",
"175 499 OFFCURVE",
"152 454 CURVE SMOOTH",
"149 449 OFFCURVE",
"161 448 OFFCURVE",
"167 456 CURVE SMOOTH",
"172 465 OFFCURVE",
"187 493 OFFCURVE",
"211 533 CURVE",
"211 537 OFFCURVE",
"197 544 OFFCURVE",
"192 533 CURVE SMOOTH"
);
},
{
closed = 1;
nodes = (
"234 543 OFFCURVE",
"227 542 OFFCURVE",
"154 541 CURVE",
"147 540 OFFCURVE",
"153 530 OFFCURVE",
"165 530 CURVE SMOOTH",
"175 530 OFFCURVE",
"198 530 OFFCURVE",
"237 529 CURVE",
"245 530 OFFCURVE",
"252 543 OFFCURVE",
"246 543 CURVE SMOOTH"
);
},
{
closed = 1;
nodes = (
"282 497 LINE",
"279 538 LINE",
"278 540 OFFCURVE",
"269 551 OFFCURVE",
"263 541 CURVE",
"253 519 OFFCURVE",
"251 519 OFFCURVE",
"221 454 CURVE",
"219 449 OFFCURVE",
"230 449 OFFCURVE",
"236 458 CURVE",
"240 465 OFFCURVE",
"251 487 OFFCURVE",
"266 518 CURVE",
"267 509 OFFCURVE",
"270 492 OFFCURVE",
"270 489 CURVE SMOOTH",
"270 484 OFFCURVE",
"277 480 OFFCURVE",
"280 482 CURVE",
"292 492 OFFCURVE",
"307 505 OFFCURVE",
"323 519 CURVE",
"317 508 OFFCURVE",
"310 495 OFFCURVE",
"290 451 CURVE",
"287 445 OFFCURVE",
"299 445 OFFCURVE",
"305 453 CURVE",
"310 462 OFFCURVE",
"338 517 OFFCURVE",
"344 533 CURVE",
"344 536 OFFCURVE",
"339 548 OFFCURVE",
"333 543 CURVE"
);
}
);
width = 200;
}
);
leftMetricsKey = T;
rightMetricsKey = M;
unicode = 2122;
},
